<?xml version="1.0" encoding="utf-8" standalone="no"?>
<!DOCTYPE svg PUBLIC "-//W3C//DTD SVG 1.1//EN"
  "http://www.w3.org/Graphics/SVG/1.1/DTD/svg11.dtd">
<svg xmlns:xlink="http://www.w3.org/1999/xlink" width="568.683125pt" height="336.634375pt" viewBox="0 0 568.683125 336.634375" xmlns="http://www.w3.org/2000/svg" version="1.1">
 <metadata>
  <rdf:RDF xmlns:dc="http://purl.org/dc/elements/1.1/" xmlns:cc="http://creativecommons.org/ns#" xmlns:rdf="http://www.w3.org/1999/02/22-rdf-syntax-ns#">
   <cc:Work>
    <dc:type rdf:resource="http://purl.org/dc/dcmitype/StillImage"/>
    <dc:date>2026-05-27T15:34:13.326674</dc:date>
    <dc:format>image/svg+xml</dc:format>
    <dc:creator>
     <cc:Agent>
      <dc:title>Matplotlib v3.10.9, https://matplotlib.org/</dc:title>
     </cc:Agent>
    </dc:creator>
   </cc:Work>
  </rdf:RDF>
 </metadata>
 <defs>
  <style type="text/css">*{stroke-linejoin: round; stroke-linecap: butt}</style>
 </defs>
 <g id="figure_1">
  <g id="patch_1">
   <path d="M 0 336.634375 
L 568.683125 336.634375 
L 568.683125 0 
L 0 0 
z
" style="fill: #ffffff"/>
  </g>
  <g id="axes_1">
   <g id="patch_2">
    <path d="M 66.053125 299.078125 
L 561.483125 299.078125 
L 561.483125 22.318125 
L 66.053125 22.318125 
z
" style="fill: #ffffff"/>
   </g>
   <g id="patch_3">
    <path d="M 88.57267 299.078125 
L 94.202557 299.078125 
L 94.202557 299.000284 
L 88.57267 299.000284 
z
" clip-path="url(#p14a1aff01f)" style="fill: #1f77b4"/>
   </g>
   <g id="patch_4">
    <path d="M 94.202557 299.078125 
L 99.832443 299.078125 
L 99.832443 299.009231 
L 94.202557 299.009231 
z
" clip-path="url(#p14a1aff01f)" style="fill: #1f77b4"/>
   </g>
   <g id="patch_5">
    <path d="M 99.832443 299.078125 
L 105.46233 299.078125 
L 105.46233 299.002073 
L 99.832443 299.002073 
z
" clip-path="url(#p14a1aff01f)" style="fill: #1f77b4"/>
   </g>
   <g id="patch_6">
    <path d="M 105.46233 299.078125 
L 111.092216 299.078125 
L 111.092216 298.967179 
L 105.46233 298.967179 
z
" clip-path="url(#p14a1aff01f)" style="fill: #1f77b4"/>
   </g>
   <g id="patch_7">
    <path d="M 111.092216 299.078125 
L 116.722102 299.078125 
L 116.722102 298.907828 
L 111.092216 298.907828 
z
" clip-path="url(#p14a1aff01f)" style="fill: #1f77b4"/>
   </g>
   <g id="patch_8">
    <path d="M 116.722102 299.078125 
L 122.351989 299.078125 
L 122.351989 298.200397 
L 116.722102 298.200397 
z
" clip-path="url(#p14a1aff01f)" style="fill: #1f77b4"/>
   </g>
   <g id="patch_9">
    <path d="M 122.351989 299.078125 
L 127.981875 299.078125 
L 127.981875 270.053442 
L 122.351989 270.053442 
z
" clip-path="url(#p14a1aff01f)" style="fill: #1f77b4"/>
   </g>
   <g id="patch_10">
    <path d="M 127.981875 299.078125 
L 133.611761 299.078125 
L 133.611761 140.699012 
L 127.981875 140.699012 
z
" clip-path="url(#p14a1aff01f)" style="fill: #1f77b4"/>
   </g>
   <g id="patch_11">
    <path d="M 133.611761 299.078125 
L 139.241648 299.078125 
L 139.241648 35.497173 
L 133.611761 35.497173 
z
" clip-path="url(#p14a1aff01f)" style="fill: #1f77b4"/>
   </g>
   <g id="patch_12">
    <path d="M 139.241648 299.078125 
L 144.871534 299.078125 
L 144.871534 189.436943 
L 139.241648 189.436943 
z
" clip-path="url(#p14a1aff01f)" style="fill: #1f77b4"/>
   </g>
   <g id="patch_13">
    <path d="M 144.871534 299.078125 
L 150.50142 299.078125 
L 150.50142 276.839955 
L 144.871534 276.839955 
z
" clip-path="url(#p14a1aff01f)" style="fill: #1f77b4"/>
   </g>
   <g id="patch_14">
    <path d="M 150.50142 299.078125 
L 156.131307 299.078125 
L 156.131307 290.683189 
L 150.50142 290.683189 
z
" clip-path="url(#p14a1aff01f)" style="fill: #1f77b4"/>
   </g>
   <g id="patch_15">
    <path d="M 156.131307 299.078125 
L 161.761193 299.078125 
L 161.761193 295.573177 
L 156.131307 295.573177 
z
" clip-path="url(#p14a1aff01f)" style="fill: #1f77b4"/>
   </g>
   <g id="patch_16">
    <path d="M 161.761193 299.078125 
L 167.39108 299.078125 
L 167.39108 296.990128 
L 161.761193 296.990128 
z
" clip-path="url(#p14a1aff01f)" style="fill: #1f77b4"/>
   </g>
   <g id="patch_17">
    <path d="M 167.39108 299.078125 
L 173.020966 299.078125 
L 173.020966 297.512351 
L 167.39108 297.512351 
z
" clip-path="url(#p14a1aff01f)" style="fill: #1f77b4"/>
   </g>
   <g id="patch_18">
    <path d="M 173.020966 299.078125 
L 178.650852 299.078125 
L 178.650852 297.787331 
L 173.020966 297.787331 
z
" clip-path="url(#p14a1aff01f)" style="fill: #1f77b4"/>
   </g>
   <g id="patch_19">
    <path d="M 178.650852 299.078125 
L 184.280739 299.078125 
L 184.280739 297.777787 
L 178.650852 297.777787 
z
" clip-path="url(#p14a1aff01f)" style="fill: #1f77b4"/>
   </g>
   <g id="patch_20">
    <path d="M 184.280739 299.078125 
L 189.910625 299.078125 
L 189.910625 298.245133 
L 184.280739 298.245133 
z
" clip-path="url(#p14a1aff01f)" style="fill: #1f77b4"/>
   </g>
   <g id="patch_21">
    <path d="M 189.910625 299.078125 
L 195.540511 299.078125 
L 195.540511 298.6242 
L 189.910625 298.6242 
z
" clip-path="url(#p14a1aff01f)" style="fill: #1f77b4"/>
   </g>
   <g id="patch_22">
    <path d="M 195.540511 299.078125 
L 201.170398 299.078125 
L 201.170398 298.806724 
L 195.540511 298.806724 
z
" clip-path="url(#p14a1aff01f)" style="fill: #1f77b4"/>
   </g>
   <g id="patch_23">
    <path d="M 201.170398 299.078125 
L 206.800284 299.078125 
L 206.800284 298.86518 
L 201.170398 298.86518 
z
" clip-path="url(#p14a1aff01f)" style="fill: #1f77b4"/>
   </g>
   <g id="patch_24">
    <path d="M 206.800284 299.078125 
L 212.43017 299.078125 
L 212.43017 298.935863 
L 206.800284 298.935863 
z
" clip-path="url(#p14a1aff01f)" style="fill: #1f77b4"/>
   </g>
   <g id="patch_25">
    <path d="M 212.43017 299.078125 
L 218.060057 299.078125 
L 218.060057 298.957337 
L 212.43017 298.957337 
z
" clip-path="url(#p14a1aff01f)" style="fill: #1f77b4"/>
   </g>
   <g id="patch_26">
    <path d="M 218.060057 299.078125 
L 223.689943 299.078125 
L 223.689943 298.981793 
L 218.060057 298.981793 
z
" clip-path="url(#p14a1aff01f)" style="fill: #1f77b4"/>
   </g>
   <g id="patch_27">
    <path d="M 223.689943 299.078125 
L 229.31983 299.078125 
L 229.31983 298.976722 
L 223.689943 298.976722 
z
" clip-path="url(#p14a1aff01f)" style="fill: #1f77b4"/>
   </g>
   <g id="patch_28">
    <path d="M 229.31983 299.078125 
L 234.949716 299.078125 
L 234.949716 299.006845 
L 229.31983 299.006845 
z
" clip-path="url(#p14a1aff01f)" style="fill: #1f77b4"/>
   </g>
   <g id="patch_29">
    <path d="M 234.949716 299.078125 
L 240.579602 299.078125 
L 240.579602 299.012512 
L 234.949716 299.012512 
z
" clip-path="url(#p14a1aff01f)" style="fill: #1f77b4"/>
   </g>
   <g id="patch_30">
    <path d="M 240.579602 299.078125 
L 246.209489 299.078125 
L 246.209489 299.021161 
L 240.579602 299.021161 
z
" clip-path="url(#p14a1aff01f)" style="fill: #1f77b4"/>
   </g>
   <g id="patch_31">
    <path d="M 246.209489 299.078125 
L 251.839375 299.078125 
L 251.839375 299.012512 
L 246.209489 299.012512 
z
" clip-path="url(#p14a1aff01f)" style="fill: #1f77b4"/>
   </g>
   <g id="patch_32">
    <path d="M 251.839375 299.078125 
L 257.469261 299.078125 
L 257.469261 299.011915 
L 251.839375 299.011915 
z
" clip-path="url(#p14a1aff01f)" style="fill: #1f77b4"/>
   </g>
   <g id="patch_33">
    <path d="M 257.469261 299.078125 
L 263.099148 299.078125 
L 263.099148 299.024441 
L 257.469261 299.024441 
z
" clip-path="url(#p14a1aff01f)" style="fill: #1f77b4"/>
   </g>
   <g id="patch_34">
    <path d="M 263.099148 299.078125 
L 268.729034 299.078125 
L 268.729034 299.030704 
L 263.099148 299.030704 
z
" clip-path="url(#p14a1aff01f)" style="fill: #1f77b4"/>
   </g>
   <g id="patch_35">
    <path d="M 268.729034 299.078125 
L 274.35892 299.078125 
L 274.35892 299.024441 
L 268.729034 299.024441 
z
" clip-path="url(#p14a1aff01f)" style="fill: #1f77b4"/>
   </g>
   <g id="patch_36">
    <path d="M 274.35892 299.078125 
L 279.988807 299.078125 
L 279.988807 299.030704 
L 274.35892 299.030704 
z
" clip-path="url(#p14a1aff01f)" style="fill: #1f77b4"/>
   </g>
   <g id="patch_37">
    <path d="M 279.988807 299.078125 
L 285.618693 299.078125 
L 285.618693 299.031897 
L 279.988807 299.031897 
z
" clip-path="url(#p14a1aff01f)" style="fill: #1f77b4"/>
   </g>
   <g id="patch_38">
    <path d="M 285.618693 299.078125 
L 291.24858 299.078125 
L 291.24858 299.03309 
L 285.618693 299.03309 
z
" clip-path="url(#p14a1aff01f)" style="fill: #1f77b4"/>
   </g>
   <g id="patch_39">
    <path d="M 291.24858 299.078125 
L 296.878466 299.078125 
L 296.878466 299.034582 
L 291.24858 299.034582 
z
" clip-path="url(#p14a1aff01f)" style="fill: #1f77b4"/>
   </g>
   <g id="patch_40">
    <path d="M 296.878466 299.078125 
L 302.508352 299.078125 
L 302.508352 299.028915 
L 296.878466 299.028915 
z
" clip-path="url(#p14a1aff01f)" style="fill: #1f77b4"/>
   </g>
   <g id="patch_41">
    <path d="M 302.508352 299.078125 
L 308.138239 299.078125 
L 308.138239 299.018476 
L 302.508352 299.018476 
z
" clip-path="url(#p14a1aff01f)" style="fill: #1f77b4"/>
   </g>
   <g id="patch_42">
    <path d="M 308.138239 299.078125 
L 313.768125 299.078125 
L 313.768125 299.014003 
L 308.138239 299.014003 
z
" clip-path="url(#p14a1aff01f)" style="fill: #1f77b4"/>
   </g>
   <g id="patch_43">
    <path d="M 313.768125 299.078125 
L 319.398011 299.078125 
L 319.398011 299.016091 
L 313.768125 299.016091 
z
" clip-path="url(#p14a1aff01f)" style="fill: #1f77b4"/>
   </g>
   <g id="patch_44">
    <path d="M 319.398011 299.078125 
L 325.027898 299.078125 
L 325.027898 299.014599 
L 319.398011 299.014599 
z
" clip-path="url(#p14a1aff01f)" style="fill: #1f77b4"/>
   </g>
   <g id="patch_45">
    <path d="M 325.027898 299.078125 
L 330.657784 299.078125 
L 330.657784 299.010722 
L 325.027898 299.010722 
z
" clip-path="url(#p14a1aff01f)" style="fill: #1f77b4"/>
   </g>
   <g id="patch_46">
    <path d="M 330.657784 299.078125 
L 336.28767 299.078125 
L 336.28767 299.017283 
L 330.657784 299.017283 
z
" clip-path="url(#p14a1aff01f)" style="fill: #1f77b4"/>
   </g>
   <g id="patch_47">
    <path d="M 336.28767 299.078125 
L 341.917557 299.078125 
L 341.917557 299.02295 
L 336.28767 299.02295 
z
" clip-path="url(#p14a1aff01f)" style="fill: #1f77b4"/>
   </g>
   <g id="patch_48">
    <path d="M 341.917557 299.078125 
L 347.547443 299.078125 
L 347.547443 299.021757 
L 341.917557 299.021757 
z
" clip-path="url(#p14a1aff01f)" style="fill: #1f77b4"/>
   </g>
   <g id="patch_49">
    <path d="M 347.547443 299.078125 
L 353.17733 299.078125 
L 353.17733 299.040248 
L 347.547443 299.040248 
z
" clip-path="url(#p14a1aff01f)" style="fill: #1f77b4"/>
   </g>
   <g id="patch_50">
    <path d="M 353.17733 299.078125 
L 358.807216 299.078125 
L 358.807216 299.050687 
L 353.17733 299.050687 
z
" clip-path="url(#p14a1aff01f)" style="fill: #1f77b4"/>
   </g>
   <g id="patch_51">
    <path d="M 358.807216 299.078125 
L 364.437102 299.078125 
L 364.437102 299.035178 
L 358.807216 299.035178 
z
" clip-path="url(#p14a1aff01f)" style="fill: #1f77b4"/>
   </g>
   <g id="patch_52">
    <path d="M 364.437102 299.078125 
L 370.066989 299.078125 
L 370.066989 299.049792 
L 364.437102 299.049792 
z
" clip-path="url(#p14a1aff01f)" style="fill: #1f77b4"/>
   </g>
   <g id="patch_53">
    <path d="M 370.066989 299.078125 
L 375.696875 299.078125 
L 375.696875 299.045318 
L 370.066989 299.045318 
z
" clip-path="url(#p14a1aff01f)" style="fill: #1f77b4"/>
   </g>
   <g id="patch_54">
    <path d="M 375.696875 299.078125 
L 381.326761 299.078125 
L 381.326761 299.049195 
L 375.696875 299.049195 
z
" clip-path="url(#p14a1aff01f)" style="fill: #1f77b4"/>
   </g>
   <g id="patch_55">
    <path d="M 381.326761 299.078125 
L 386.956648 299.078125 
L 386.956648 299.040845 
L 381.326761 299.040845 
z
" clip-path="url(#p14a1aff01f)" style="fill: #1f77b4"/>
   </g>
   <g id="patch_56">
    <path d="M 386.956648 299.078125 
L 392.586534 299.078125 
L 392.586534 299.038459 
L 386.956648 299.038459 
z
" clip-path="url(#p14a1aff01f)" style="fill: #1f77b4"/>
   </g>
   <g id="patch_57">
    <path d="M 392.586534 299.078125 
L 398.21642 299.078125 
L 398.21642 299.042038 
L 392.586534 299.042038 
z
" clip-path="url(#p14a1aff01f)" style="fill: #1f77b4"/>
   </g>
   <g id="patch_58">
    <path d="M 398.21642 299.078125 
L 403.846307 299.078125 
L 403.846307 299.048897 
L 398.21642 299.048897 
z
" clip-path="url(#p14a1aff01f)" style="fill: #1f77b4"/>
   </g>
   <g id="patch_59">
    <path d="M 403.846307 299.078125 
L 409.476193 299.078125 
L 409.476193 299.05188 
L 403.846307 299.05188 
z
" clip-path="url(#p14a1aff01f)" style="fill: #1f77b4"/>
   </g>
   <g id="patch_60">
    <path d="M 409.476193 299.078125 
L 415.10608 299.078125 
L 415.10608 299.054862 
L 409.476193 299.054862 
z
" clip-path="url(#p14a1aff01f)" style="fill: #1f77b4"/>
   </g>
   <g id="patch_61">
    <path d="M 415.10608 299.078125 
L 420.735966 299.078125 
L 420.735966 299.059932 
L 415.10608 299.059932 
z
" clip-path="url(#p14a1aff01f)" style="fill: #1f77b4"/>
   </g>
   <g id="patch_62">
    <path d="M 420.735966 299.078125 
L 426.365852 299.078125 
L 426.365852 299.059932 
L 420.735966 299.059932 
z
" clip-path="url(#p14a1aff01f)" style="fill: #1f77b4"/>
   </g>
   <g id="patch_63">
    <path d="M 426.365852 299.078125 
L 431.995739 299.078125 
L 431.995739 299.064406 
L 426.365852 299.064406 
z
" clip-path="url(#p14a1aff01f)" style="fill: #1f77b4"/>
   </g>
   <g id="patch_64">
    <path d="M 431.995739 299.078125 
L 437.625625 299.078125 
L 437.625625 299.061125 
L 431.995739 299.061125 
z
" clip-path="url(#p14a1aff01f)" style="fill: #1f77b4"/>
   </g>
   <g id="patch_65">
    <path d="M 437.625625 299.078125 
L 443.255511 299.078125 
L 443.255511 299.067687 
L 437.625625 299.067687 
z
" clip-path="url(#p14a1aff01f)" style="fill: #1f77b4"/>
   </g>
   <g id="patch_66">
    <path d="M 443.255511 299.078125 
L 448.885398 299.078125 
L 448.885398 299.070072 
L 443.255511 299.070072 
z
" clip-path="url(#p14a1aff01f)" style="fill: #1f77b4"/>
   </g>
   <g id="patch_67">
    <path d="M 448.885398 299.078125 
L 454.515284 299.078125 
L 454.515284 299.074844 
L 448.885398 299.074844 
z
" clip-path="url(#p14a1aff01f)" style="fill: #1f77b4"/>
   </g>
   <g id="patch_68">
    <path d="M 454.515284 299.078125 
L 460.14517 299.078125 
L 460.14517 299.074844 
L 454.515284 299.074844 
z
" clip-path="url(#p14a1aff01f)" style="fill: #1f77b4"/>
   </g>
   <g id="patch_69">
    <path d="M 460.14517 299.078125 
L 465.775057 299.078125 
L 465.775057 299.073651 
L 460.14517 299.073651 
z
" clip-path="url(#p14a1aff01f)" style="fill: #1f77b4"/>
   </g>
   <g id="patch_70">
    <path d="M 465.775057 299.078125 
L 471.404943 299.078125 
L 471.404943 299.074546 
L 465.775057 299.074546 
z
" clip-path="url(#p14a1aff01f)" style="fill: #1f77b4"/>
   </g>
   <g id="patch_71">
    <path d="M 471.404943 299.078125 
L 477.03483 299.078125 
L 477.03483 299.076037 
L 471.404943 299.076037 
z
" clip-path="url(#p14a1aff01f)" style="fill: #1f77b4"/>
   </g>
   <g id="patch_72">
    <path d="M 477.03483 299.078125 
L 482.664716 299.078125 
L 482.664716 299.075441 
L 477.03483 299.075441 
z
" clip-path="url(#p14a1aff01f)" style="fill: #1f77b4"/>
   </g>
   <g id="patch_73">
    <path d="M 482.664716 299.078125 
L 488.294602 299.078125 
L 488.294602 299.075143 
L 482.664716 299.075143 
z
" clip-path="url(#p14a1aff01f)" style="fill: #1f77b4"/>
   </g>
   <g id="patch_74">
    <path d="M 488.294602 299.078125 
L 493.924489 299.078125 
L 493.924489 299.073353 
L 488.294602 299.073353 
z
" clip-path="url(#p14a1aff01f)" style="fill: #1f77b4"/>
   </g>
   <g id="patch_75">
    <path d="M 493.924489 299.078125 
L 499.554375 299.078125 
L 499.554375 299.072757 
L 493.924489 299.072757 
z
" clip-path="url(#p14a1aff01f)" style="fill: #1f77b4"/>
   </g>
   <g id="patch_76">
    <path d="M 499.554375 299.078125 
L 505.184261 299.078125 
L 505.184261 299.073353 
L 499.554375 299.073353 
z
" clip-path="url(#p14a1aff01f)" style="fill: #1f77b4"/>
   </g>
   <g id="patch_77">
    <path d="M 505.184261 299.078125 
L 510.814148 299.078125 
L 510.814148 299.076037 
L 505.184261 299.076037 
z
" clip-path="url(#p14a1aff01f)" style="fill: #1f77b4"/>
   </g>
   <g id="patch_78">
    <path d="M 510.814148 299.078125 
L 516.444034 299.078125 
L 516.444034 299.07395 
L 510.814148 299.07395 
z
" clip-path="url(#p14a1aff01f)" style="fill: #1f77b4"/>
   </g>
   <g id="patch_79">
    <path d="M 516.444034 299.078125 
L 522.07392 299.078125 
L 522.07392 299.069774 
L 516.444034 299.069774 
z
" clip-path="url(#p14a1aff01f)" style="fill: #1f77b4"/>
   </g>
   <g id="patch_80">
    <path d="M 522.07392 299.078125 
L 527.703807 299.078125 
L 527.703807 299.072757 
L 522.07392 299.072757 
z
" clip-path="url(#p14a1aff01f)" style="fill: #1f77b4"/>
   </g>
   <g id="patch_81">
    <path d="M 527.703807 299.078125 
L 533.333693 299.078125 
L 533.333693 299.072757 
L 527.703807 299.072757 
z
" clip-path="url(#p14a1aff01f)" style="fill: #1f77b4"/>
   </g>
   <g id="patch_82">
    <path d="M 533.333693 299.078125 
L 538.96358 299.078125 
L 538.96358 299.07395 
L 533.333693 299.07395 
z
" clip-path="url(#p14a1aff01f)" style="fill: #1f77b4"/>
   </g>
   <g id="matplotlib.axis_1">
    <g id="xtick_1">
     <g id="line2d_1">
      <defs>
       <path id="madd47de6e1" d="M 0 0 
L 0 3.5 
" style="stroke: #000000; stroke-width: 0.8"/>
      </defs>
      <g>
       <use xlink:href="#madd47de6e1" x="88.562548" y="299.078125" style="stroke: #000000; stroke-width: 0.8"/>
      </g>
     </g>
     <g id="text_1">
      <!-- 0 -->
      <g transform="translate(85.381298 313.676562) scale(0.1 -0.1)">
       <defs>
        <path id="DejaVuSans-30" d="M 2034 4250 
Q 1547 4250 1301 3770 
Q 1056 3291 1056 2328 
Q 1056 1369 1301 889 
Q 1547 409 2034 409 
Q 2525 409 2770 889 
Q 3016 1369 3016 2328 
Q 3016 3291 2770 3770 
Q 2525 4250 2034 4250 
z
M 2034 4750 
Q 2819 4750 3233 4129 
Q 3647 3509 3647 2328 
Q 3647 1150 3233 529 
Q 2819 -91 2034 -91 
Q 1250 -91 836 529 
Q 422 1150 422 2328 
Q 422 3509 836 4129 
Q 1250 4750 2034 4750 
z
" transform="scale(0.015625)"/>
       </defs>
       <use xlink:href="#DejaVuSans-30"/>
      </g>
     </g>
    </g>
    <g id="xtick_2">
     <g id="line2d_2">
      <g>
       <use xlink:href="#madd47de6e1" x="178.696313" y="299.078125" style="stroke: #000000; stroke-width: 0.8"/>
      </g>
     </g>
     <g id="text_2">
      <!-- 10 -->
      <g transform="translate(172.333813 313.676562) scale(0.1 -0.1)">
       <defs>
        <path id="DejaVuSans-31" d="M 794 531 
L 1825 531 
L 1825 4091 
L 703 3866 
L 703 4441 
L 1819 4666 
L 2450 4666 
L 2450 531 
L 3481 531 
L 3481 0 
L 794 0 
L 794 531 
z
" transform="scale(0.015625)"/>
       </defs>
       <use xlink:href="#DejaVuSans-31"/>
       <use xlink:href="#DejaVuSans-30" transform="translate(63.623047 0)"/>
      </g>
     </g>
    </g>
    <g id="xtick_3">
     <g id="line2d_3">
      <g>
       <use xlink:href="#madd47de6e1" x="268.830078" y="299.078125" style="stroke: #000000; stroke-width: 0.8"/>
      </g>
     </g>
     <g id="text_3">
      <!-- 20 -->
      <g transform="translate(262.467578 313.676562) scale(0.1 -0.1)">
       <defs>
        <path id="DejaVuSans-32" d="M 1228 531 
L 3431 531 
L 3431 0 
L 469 0 
L 469 531 
Q 828 903 1448 1529 
Q 2069 2156 2228 2338 
Q 2531 2678 2651 2914 
Q 2772 3150 2772 3378 
Q 2772 3750 2511 3984 
Q 2250 4219 1831 4219 
Q 1534 4219 1204 4116 
Q 875 4013 500 3803 
L 500 4441 
Q 881 4594 1212 4672 
Q 1544 4750 1819 4750 
Q 2544 4750 2975 4387 
Q 3406 4025 3406 3419 
Q 3406 3131 3298 2873 
Q 3191 2616 2906 2266 
Q 2828 2175 2409 1742 
Q 1991 1309 1228 531 
z
" transform="scale(0.015625)"/>
       </defs>
       <use xlink:href="#DejaVuSans-32"/>
       <use xlink:href="#DejaVuSans-30" transform="translate(63.623047 0)"/>
      </g>
     </g>
    </g>
    <g id="xtick_4">
     <g id="line2d_4">
      <g>
       <use xlink:href="#madd47de6e1" x="358.963843" y="299.078125" style="stroke: #000000; stroke-width: 0.8"/>
      </g>
     </g>
     <g id="text_4">
      <!-- 30 -->
      <g transform="translate(352.601343 313.676562) scale(0.1 -0.1)">
       <defs>
        <path id="DejaVuSans-33" d="M 2597 2516 
Q 3050 2419 3304 2112 
Q 3559 1806 3559 1356 
Q 3559 666 3084 287 
Q 2609 -91 1734 -91 
Q 1441 -91 1130 -33 
Q 819 25 488 141 
L 488 750 
Q 750 597 1062 519 
Q 1375 441 1716 441 
Q 2309 441 2620 675 
Q 2931 909 2931 1356 
Q 2931 1769 2642 2001 
Q 2353 2234 1838 2234 
L 1294 2234 
L 1294 2753 
L 1863 2753 
Q 2328 2753 2575 2939 
Q 2822 3125 2822 3475 
Q 2822 3834 2567 4026 
Q 2313 4219 1838 4219 
Q 1578 4219 1281 4162 
Q 984 4106 628 3988 
L 628 4550 
Q 988 4650 1302 4700 
Q 1616 4750 1894 4750 
Q 2613 4750 3031 4423 
Q 3450 4097 3450 3541 
Q 3450 3153 3228 2886 
Q 3006 2619 2597 2516 
z
" transform="scale(0.015625)"/>
       </defs>
       <use xlink:href="#DejaVuSans-33"/>
       <use xlink:href="#DejaVuSans-30" transform="translate(63.623047 0)"/>
      </g>
     </g>
    </g>
    <g id="xtick_5">
     <g id="line2d_5">
      <g>
       <use xlink:href="#madd47de6e1" x="449.097608" y="299.078125" style="stroke: #000000; stroke-width: 0.8"/>
      </g>
     </g>
     <g id="text_5">
      <!-- 40 -->
      <g transform="translate(442.735108 313.676562) scale(0.1 -0.1)">
       <defs>
        <path id="DejaVuSans-34" d="M 2419 4116 
L 825 1625 
L 2419 1625 
L 2419 4116 
z
M 2253 4666 
L 3047 4666 
L 3047 1625 
L 3713 1625 
L 3713 1100 
L 3047 1100 
L 3047 0 
L 2419 0 
L 2419 1100 
L 313 1100 
L 313 1709 
L 2253 4666 
z
" transform="scale(0.015625)"/>
       </defs>
       <use xlink:href="#DejaVuSans-34"/>
       <use xlink:href="#DejaVuSans-30" transform="translate(63.623047 0)"/>
      </g>
     </g>
    </g>
    <g id="xtick_6">
     <g id="line2d_6">
      <g>
       <use xlink:href="#madd47de6e1" x="539.231373" y="299.078125" style="stroke: #000000; stroke-width: 0.8"/>
      </g>
     </g>
     <g id="text_6">
      <!-- 50 -->
      <g transform="translate(532.868873 313.676562) scale(0.1 -0.1)">
       <defs>
        <path id="DejaVuSans-35" d="M 691 4666 
L 3169 4666 
L 3169 4134 
L 1269 4134 
L 1269 2991 
Q 1406 3038 1543 3061 
Q 1681 3084 1819 3084 
Q 2600 3084 3056 2656 
Q 3513 2228 3513 1497 
Q 3513 744 3044 326 
Q 2575 -91 1722 -91 
Q 1428 -91 1123 -41 
Q 819 9 494 109 
L 494 744 
Q 775 591 1075 516 
Q 1375 441 1709 441 
Q 2250 441 2565 725 
Q 2881 1009 2881 1497 
Q 2881 1984 2565 2268 
Q 2250 2553 1709 2553 
Q 1456 2553 1204 2497 
Q 953 2441 691 2322 
L 691 4666 
z
" transform="scale(0.015625)"/>
       </defs>
       <use xlink:href="#DejaVuSans-35"/>
       <use xlink:href="#DejaVuSans-30" transform="translate(63.623047 0)"/>
      </g>
     </g>
    </g>
    <g id="text_7">
     <!-- Yield, pct -->
     <g transform="translate(290.804844 327.354687) scale(0.1 -0.1)">
      <defs>
       <path id="DejaVuSans-59" d="M -13 4666 
L 666 4666 
L 1959 2747 
L 3244 4666 
L 3922 4666 
L 2272 2222 
L 2272 0 
L 1638 0 
L 1638 2222 
L -13 4666 
z
" transform="scale(0.015625)"/>
       <path id="DejaVuSans-69" d="M 603 3500 
L 1178 3500 
L 1178 0 
L 603 0 
L 603 3500 
z
M 603 4863 
L 1178 4863 
L 1178 4134 
L 603 4134 
L 603 4863 
z
" transform="scale(0.015625)"/>
       <path id="DejaVuSans-65" d="M 3597 1894 
L 3597 1613 
L 953 1613 
Q 991 1019 1311 708 
Q 1631 397 2203 397 
Q 2534 397 2845 478 
Q 3156 559 3463 722 
L 3463 178 
Q 3153 47 2828 -22 
Q 2503 -91 2169 -91 
Q 1331 -91 842 396 
Q 353 884 353 1716 
Q 353 2575 817 3079 
Q 1281 3584 2069 3584 
Q 2775 3584 3186 3129 
Q 3597 2675 3597 1894 
z
M 3022 2063 
Q 3016 2534 2758 2815 
Q 2500 3097 2075 3097 
Q 1594 3097 1305 2825 
Q 1016 2553 972 2059 
L 3022 2063 
z
" transform="scale(0.015625)"/>
       <path id="DejaVuSans-6c" d="M 603 4863 
L 1178 4863 
L 1178 0 
L 603 0 
L 603 4863 
z
" transform="scale(0.015625)"/>
       <path id="DejaVuSans-64" d="M 2906 2969 
L 2906 4863 
L 3481 4863 
L 3481 0 
L 2906 0 
L 2906 525 
Q 2725 213 2448 61 
Q 2172 -91 1784 -91 
Q 1150 -91 751 415 
Q 353 922 353 1747 
Q 353 2572 751 3078 
Q 1150 3584 1784 3584 
Q 2172 3584 2448 3432 
Q 2725 3281 2906 2969 
z
M 947 1747 
Q 947 1113 1208 752 
Q 1469 391 1925 391 
Q 2381 391 2643 752 
Q 2906 1113 2906 1747 
Q 2906 2381 2643 2742 
Q 2381 3103 1925 3103 
Q 1469 3103 1208 2742 
Q 947 2381 947 1747 
z
" transform="scale(0.015625)"/>
       <path id="DejaVuSans-2c" d="M 750 794 
L 1409 794 
L 1409 256 
L 897 -744 
L 494 -744 
L 750 256 
L 750 794 
z
" transform="scale(0.015625)"/>
       <path id="DejaVuSans-20" transform="scale(0.015625)"/>
       <path id="DejaVuSans-70" d="M 1159 525 
L 1159 -1331 
L 581 -1331 
L 581 3500 
L 1159 3500 
L 1159 2969 
Q 1341 3281 1617 3432 
Q 1894 3584 2278 3584 
Q 2916 3584 3314 3078 
Q 3713 2572 3713 1747 
Q 3713 922 3314 415 
Q 2916 -91 2278 -91 
Q 1894 -91 1617 61 
Q 1341 213 1159 525 
z
M 3116 1747 
Q 3116 2381 2855 2742 
Q 2594 3103 2138 3103 
Q 1681 3103 1420 2742 
Q 1159 2381 1159 1747 
Q 1159 1113 1420 752 
Q 1681 391 2138 391 
Q 2594 391 2855 752 
Q 3116 1113 3116 1747 
z
" transform="scale(0.015625)"/>
       <path id="DejaVuSans-63" d="M 3122 3366 
L 3122 2828 
Q 2878 2963 2633 3030 
Q 2388 3097 2138 3097 
Q 1578 3097 1268 2742 
Q 959 2388 959 1747 
Q 959 1106 1268 751 
Q 1578 397 2138 397 
Q 2388 397 2633 464 
Q 2878 531 3122 666 
L 3122 134 
Q 2881 22 2623 -34 
Q 2366 -91 2075 -91 
Q 1284 -91 818 406 
Q 353 903 353 1747 
Q 353 2603 823 3093 
Q 1294 3584 2113 3584 
Q 2378 3584 2631 3529 
Q 2884 3475 3122 3366 
z
" transform="scale(0.015625)"/>
       <path id="DejaVuSans-74" d="M 1172 4494 
L 1172 3500 
L 2356 3500 
L 2356 3053 
L 1172 3053 
L 1172 1153 
Q 1172 725 1289 603 
Q 1406 481 1766 481 
L 2356 481 
L 2356 0 
L 1766 0 
Q 1100 0 847 248 
Q 594 497 594 1153 
L 594 3053 
L 172 3053 
L 172 3500 
L 594 3500 
L 594 4494 
L 1172 4494 
z
" transform="scale(0.015625)"/>
      </defs>
      <use xlink:href="#DejaVuSans-59"/>
      <use xlink:href="#DejaVuSans-69" transform="translate(57.458984 0)"/>
      <use xlink:href="#DejaVuSans-65" transform="translate(85.242188 0)"/>
      <use xlink:href="#DejaVuSans-6c" transform="translate(146.765625 0)"/>
      <use xlink:href="#DejaVuSans-64" transform="translate(174.548828 0)"/>
      <use xlink:href="#DejaVuSans-2c" transform="translate(238.025391 0)"/>
      <use xlink:href="#DejaVuSans-20" transform="translate(269.8125 0)"/>
      <use xlink:href="#DejaVuSans-70" transform="translate(301.599609 0)"/>
      <use xlink:href="#DejaVuSans-63" transform="translate(365.076172 0)"/>
      <use xlink:href="#DejaVuSans-74" transform="translate(420.056641 0)"/>
     </g>
    </g>
   </g>
   <g id="matplotlib.axis_2">
    <g id="ytick_1">
     <g id="line2d_7">
      <path d="M 66.053125 299.078125 
L 561.483125 299.078125 
" clip-path="url(#p14a1aff01f)" style="fill: none; stroke: #b0b0b0; stroke-opacity: 0.25; stroke-width: 0.8; stroke-linecap: square"/>
     </g>
     <g id="line2d_8">
      <defs>
       <path id="mb3e4834587" d="M 0 0 
L -3.5 0 
" style="stroke: #000000; stroke-width: 0.8"/>
      </defs>
      <g>
       <use xlink:href="#mb3e4834587" x="66.053125" y="299.078125" style="stroke: #000000; stroke-width: 0.8"/>
      </g>
     </g>
     <g id="text_8">
      <!-- 0 -->
      <g transform="translate(52.690625 302.877344) scale(0.1 -0.1)">
       <use xlink:href="#DejaVuSans-30"/>
      </g>
     </g>
    </g>
    <g id="ytick_2">
     <g id="line2d_9">
      <path d="M 66.053125 239.429581 
L 561.483125 239.429581 
" clip-path="url(#p14a1aff01f)" style="fill: none; stroke: #b0b0b0; stroke-opacity: 0.25; stroke-width: 0.8; stroke-linecap: square"/>
     </g>
     <g id="line2d_10">
      <g>
       <use xlink:href="#mb3e4834587" x="66.053125" y="239.429581" style="stroke: #000000; stroke-width: 0.8"/>
      </g>
     </g>
     <g id="text_9">
      <!-- 200000 -->
      <g transform="translate(20.878125 243.228799) scale(0.1 -0.1)">
       <use xlink:href="#DejaVuSans-32"/>
       <use xlink:href="#DejaVuSans-30" transform="translate(63.623047 0)"/>
       <use xlink:href="#DejaVuSans-30" transform="translate(127.246094 0)"/>
       <use xlink:href="#DejaVuSans-30" transform="translate(190.869141 0)"/>
       <use xlink:href="#DejaVuSans-30" transform="translate(254.492188 0)"/>
       <use xlink:href="#DejaVuSans-30" transform="translate(318.115234 0)"/>
      </g>
     </g>
    </g>
    <g id="ytick_3">
     <g id="line2d_11">
      <path d="M 66.053125 179.781036 
L 561.483125 179.781036 
" clip-path="url(#p14a1aff01f)" style="fill: none; stroke: #b0b0b0; stroke-opacity: 0.25; stroke-width: 0.8; stroke-linecap: square"/>
     </g>
     <g id="line2d_12">
      <g>
       <use xlink:href="#mb3e4834587" x="66.053125" y="179.781036" style="stroke: #000000; stroke-width: 0.8"/>
      </g>
     </g>
     <g id="text_10">
      <!-- 400000 -->
      <g transform="translate(20.878125 183.580255) scale(0.1 -0.1)">
       <use xlink:href="#DejaVuSans-34"/>
       <use xlink:href="#DejaVuSans-30" transform="translate(63.623047 0)"/>
       <use xlink:href="#DejaVuSans-30" transform="translate(127.246094 0)"/>
       <use xlink:href="#DejaVuSans-30" transform="translate(190.869141 0)"/>
       <use xlink:href="#DejaVuSans-30" transform="translate(254.492188 0)"/>
       <use xlink:href="#DejaVuSans-30" transform="translate(318.115234 0)"/>
      </g>
     </g>
    </g>
    <g id="ytick_4">
     <g id="line2d_13">
      <path d="M 66.053125 120.132492 
L 561.483125 120.132492 
" clip-path="url(#p14a1aff01f)" style="fill: none; stroke: #b0b0b0; stroke-opacity: 0.25; stroke-width: 0.8; stroke-linecap: square"/>
     </g>
     <g id="line2d_14">
      <g>
       <use xlink:href="#mb3e4834587" x="66.053125" y="120.132492" style="stroke: #000000; stroke-width: 0.8"/>
      </g>
     </g>
     <g id="text_11">
      <!-- 600000 -->
      <g transform="translate(20.878125 123.931711) scale(0.1 -0.1)">
       <defs>
        <path id="DejaVuSans-36" d="M 2113 2584 
Q 1688 2584 1439 2293 
Q 1191 2003 1191 1497 
Q 1191 994 1439 701 
Q 1688 409 2113 409 
Q 2538 409 2786 701 
Q 3034 994 3034 1497 
Q 3034 2003 2786 2293 
Q 2538 2584 2113 2584 
z
M 3366 4563 
L 3366 3988 
Q 3128 4100 2886 4159 
Q 2644 4219 2406 4219 
Q 1781 4219 1451 3797 
Q 1122 3375 1075 2522 
Q 1259 2794 1537 2939 
Q 1816 3084 2150 3084 
Q 2853 3084 3261 2657 
Q 3669 2231 3669 1497 
Q 3669 778 3244 343 
Q 2819 -91 2113 -91 
Q 1303 -91 875 529 
Q 447 1150 447 2328 
Q 447 3434 972 4092 
Q 1497 4750 2381 4750 
Q 2619 4750 2861 4703 
Q 3103 4656 3366 4563 
z
" transform="scale(0.015625)"/>
       </defs>
       <use xlink:href="#DejaVuSans-36"/>
       <use xlink:href="#DejaVuSans-30" transform="translate(63.623047 0)"/>
       <use xlink:href="#DejaVuSans-30" transform="translate(127.246094 0)"/>
       <use xlink:href="#DejaVuSans-30" transform="translate(190.869141 0)"/>
       <use xlink:href="#DejaVuSans-30" transform="translate(254.492188 0)"/>
       <use xlink:href="#DejaVuSans-30" transform="translate(318.115234 0)"/>
      </g>
     </g>
    </g>
    <g id="ytick_5">
     <g id="line2d_15">
      <path d="M 66.053125 60.483948 
L 561.483125 60.483948 
" clip-path="url(#p14a1aff01f)" style="fill: none; stroke: #b0b0b0; stroke-opacity: 0.25; stroke-width: 0.8; stroke-linecap: square"/>
     </g>
     <g id="line2d_16">
      <g>
       <use xlink:href="#mb3e4834587" x="66.053125" y="60.483948" style="stroke: #000000; stroke-width: 0.8"/>
      </g>
     </g>
     <g id="text_12">
      <!-- 800000 -->
      <g transform="translate(20.878125 64.283167) scale(0.1 -0.1)">
       <defs>
        <path id="DejaVuSans-38" d="M 2034 2216 
Q 1584 2216 1326 1975 
Q 1069 1734 1069 1313 
Q 1069 891 1326 650 
Q 1584 409 2034 409 
Q 2484 409 2743 651 
Q 3003 894 3003 1313 
Q 3003 1734 2745 1975 
Q 2488 2216 2034 2216 
z
M 1403 2484 
Q 997 2584 770 2862 
Q 544 3141 544 3541 
Q 544 4100 942 4425 
Q 1341 4750 2034 4750 
Q 2731 4750 3128 4425 
Q 3525 4100 3525 3541 
Q 3525 3141 3298 2862 
Q 3072 2584 2669 2484 
Q 3125 2378 3379 2068 
Q 3634 1759 3634 1313 
Q 3634 634 3220 271 
Q 2806 -91 2034 -91 
Q 1263 -91 848 271 
Q 434 634 434 1313 
Q 434 1759 690 2068 
Q 947 2378 1403 2484 
z
M 1172 3481 
Q 1172 3119 1398 2916 
Q 1625 2713 2034 2713 
Q 2441 2713 2670 2916 
Q 2900 3119 2900 3481 
Q 2900 3844 2670 4047 
Q 2441 4250 2034 4250 
Q 1625 4250 1398 4047 
Q 1172 3844 1172 3481 
z
" transform="scale(0.015625)"/>
       </defs>
       <use xlink:href="#DejaVuSans-38"/>
       <use xlink:href="#DejaVuSans-30" transform="translate(63.623047 0)"/>
       <use xlink:href="#DejaVuSans-30" transform="translate(127.246094 0)"/>
       <use xlink:href="#DejaVuSans-30" transform="translate(190.869141 0)"/>
       <use xlink:href="#DejaVuSans-30" transform="translate(254.492188 0)"/>
       <use xlink:href="#DejaVuSans-30" transform="translate(318.115234 0)"/>
      </g>
     </g>
    </g>
    <g id="text_13">
     <!-- Bond-days -->
     <g transform="translate(14.798438 187.137187) rotate(-90) scale(0.1 -0.1)">
      <defs>
       <path id="DejaVuSans-42" d="M 1259 2228 
L 1259 519 
L 2272 519 
Q 2781 519 3026 730 
Q 3272 941 3272 1375 
Q 3272 1813 3026 2020 
Q 2781 2228 2272 2228 
L 1259 2228 
z
M 1259 4147 
L 1259 2741 
L 2194 2741 
Q 2656 2741 2882 2914 
Q 3109 3088 3109 3444 
Q 3109 3797 2882 3972 
Q 2656 4147 2194 4147 
L 1259 4147 
z
M 628 4666 
L 2241 4666 
Q 2963 4666 3353 4366 
Q 3744 4066 3744 3513 
Q 3744 3084 3544 2831 
Q 3344 2578 2956 2516 
Q 3422 2416 3680 2098 
Q 3938 1781 3938 1306 
Q 3938 681 3513 340 
Q 3088 0 2303 0 
L 628 0 
L 628 4666 
z
" transform="scale(0.015625)"/>
       <path id="DejaVuSans-6f" d="M 1959 3097 
Q 1497 3097 1228 2736 
Q 959 2375 959 1747 
Q 959 1119 1226 758 
Q 1494 397 1959 397 
Q 2419 397 2687 759 
Q 2956 1122 2956 1747 
Q 2956 2369 2687 2733 
Q 2419 3097 1959 3097 
z
M 1959 3584 
Q 2709 3584 3137 3096 
Q 3566 2609 3566 1747 
Q 3566 888 3137 398 
Q 2709 -91 1959 -91 
Q 1206 -91 779 398 
Q 353 888 353 1747 
Q 353 2609 779 3096 
Q 1206 3584 1959 3584 
z
" transform="scale(0.015625)"/>
       <path id="DejaVuSans-6e" d="M 3513 2113 
L 3513 0 
L 2938 0 
L 2938 2094 
Q 2938 2591 2744 2837 
Q 2550 3084 2163 3084 
Q 1697 3084 1428 2787 
Q 1159 2491 1159 1978 
L 1159 0 
L 581 0 
L 581 3500 
L 1159 3500 
L 1159 2956 
Q 1366 3272 1645 3428 
Q 1925 3584 2291 3584 
Q 2894 3584 3203 3211 
Q 3513 2838 3513 2113 
z
" transform="scale(0.015625)"/>
       <path id="DejaVuSans-2d" d="M 313 2009 
L 1997 2009 
L 1997 1497 
L 313 1497 
L 313 2009 
z
" transform="scale(0.015625)"/>
       <path id="DejaVuSans-61" d="M 2194 1759 
Q 1497 1759 1228 1600 
Q 959 1441 959 1056 
Q 959 750 1161 570 
Q 1363 391 1709 391 
Q 2188 391 2477 730 
Q 2766 1069 2766 1631 
L 2766 1759 
L 2194 1759 
z
M 3341 1997 
L 3341 0 
L 2766 0 
L 2766 531 
Q 2569 213 2275 61 
Q 1981 -91 1556 -91 
Q 1019 -91 701 211 
Q 384 513 384 1019 
Q 384 1609 779 1909 
Q 1175 2209 1959 2209 
L 2766 2209 
L 2766 2266 
Q 2766 2663 2505 2880 
Q 2244 3097 1772 3097 
Q 1472 3097 1187 3025 
Q 903 2953 641 2809 
L 641 3341 
Q 956 3463 1253 3523 
Q 1550 3584 1831 3584 
Q 2591 3584 2966 3190 
Q 3341 2797 3341 1997 
z
" transform="scale(0.015625)"/>
       <path id="DejaVuSans-79" d="M 2059 -325 
Q 1816 -950 1584 -1140 
Q 1353 -1331 966 -1331 
L 506 -1331 
L 506 -850 
L 844 -850 
Q 1081 -850 1212 -737 
Q 1344 -625 1503 -206 
L 1606 56 
L 191 3500 
L 800 3500 
L 1894 763 
L 2988 3500 
L 3597 3500 
L 2059 -325 
z
" transform="scale(0.015625)"/>
       <path id="DejaVuSans-73" d="M 2834 3397 
L 2834 2853 
Q 2591 2978 2328 3040 
Q 2066 3103 1784 3103 
Q 1356 3103 1142 2972 
Q 928 2841 928 2578 
Q 928 2378 1081 2264 
Q 1234 2150 1697 2047 
L 1894 2003 
Q 2506 1872 2764 1633 
Q 3022 1394 3022 966 
Q 3022 478 2636 193 
Q 2250 -91 1575 -91 
Q 1294 -91 989 -36 
Q 684 19 347 128 
L 347 722 
Q 666 556 975 473 
Q 1284 391 1588 391 
Q 1994 391 2212 530 
Q 2431 669 2431 922 
Q 2431 1156 2273 1281 
Q 2116 1406 1581 1522 
L 1381 1569 
Q 847 1681 609 1914 
Q 372 2147 372 2553 
Q 372 3047 722 3315 
Q 1072 3584 1716 3584 
Q 2034 3584 2315 3537 
Q 2597 3491 2834 3397 
z
" transform="scale(0.015625)"/>
      </defs>
      <use xlink:href="#DejaVuSans-42"/>
      <use xlink:href="#DejaVuSans-6f" transform="translate(68.603516 0)"/>
      <use xlink:href="#DejaVuSans-6e" transform="translate(129.785156 0)"/>
      <use xlink:href="#DejaVuSans-64" transform="translate(193.164062 0)"/>
      <use xlink:href="#DejaVuSans-2d" transform="translate(256.640625 0)"/>
      <use xlink:href="#DejaVuSans-64" transform="translate(292.724609 0)"/>
      <use xlink:href="#DejaVuSans-61" transform="translate(356.201172 0)"/>
      <use xlink:href="#DejaVuSans-79" transform="translate(417.480469 0)"/>
      <use xlink:href="#DejaVuSans-73" transform="translate(476.660156 0)"/>
     </g>
    </g>
   </g>
   <g id="patch_83">
    <path d="M 66.053125 299.078125 
L 66.053125 22.318125 
" style="fill: none; stroke: #000000; stroke-width: 0.8; stroke-linejoin: miter; stroke-linecap: square"/>
   </g>
   <g id="patch_84">
    <path d="M 561.483125 299.078125 
L 561.483125 22.318125 
" style="fill: none; stroke: #000000; stroke-width: 0.8; stroke-linejoin: miter; stroke-linecap: square"/>
   </g>
   <g id="patch_85">
    <path d="M 66.053125 299.078125 
L 561.483125 299.078125 
" style="fill: none; stroke: #000000; stroke-width: 0.8; stroke-linejoin: miter; stroke-linecap: square"/>
   </g>
   <g id="patch_86">
    <path d="M 66.053125 22.318125 
L 561.483125 22.318125 
" style="fill: none; stroke: #000000; stroke-width: 0.8; stroke-linejoin: miter; stroke-linecap: square"/>
   </g>
   <g id="text_14">
    <!-- TRACE daily mean yield distribution (full2024) -->
    <g transform="translate(175.495313 16.318125) scale(0.12 -0.12)">
     <defs>
      <path id="DejaVuSans-54" d="M -19 4666 
L 3928 4666 
L 3928 4134 
L 2272 4134 
L 2272 0 
L 1638 0 
L 1638 4134 
L -19 4134 
L -19 4666 
z
" transform="scale(0.015625)"/>
      <path id="DejaVuSans-52" d="M 2841 2188 
Q 3044 2119 3236 1894 
Q 3428 1669 3622 1275 
L 4263 0 
L 3584 0 
L 2988 1197 
Q 2756 1666 2539 1819 
Q 2322 1972 1947 1972 
L 1259 1972 
L 1259 0 
L 628 0 
L 628 4666 
L 2053 4666 
Q 2853 4666 3247 4331 
Q 3641 3997 3641 3322 
Q 3641 2881 3436 2590 
Q 3231 2300 2841 2188 
z
M 1259 4147 
L 1259 2491 
L 2053 2491 
Q 2509 2491 2742 2702 
Q 2975 2913 2975 3322 
Q 2975 3731 2742 3939 
Q 2509 4147 2053 4147 
L 1259 4147 
z
" transform="scale(0.015625)"/>
      <path id="DejaVuSans-41" d="M 2188 4044 
L 1331 1722 
L 3047 1722 
L 2188 4044 
z
M 1831 4666 
L 2547 4666 
L 4325 0 
L 3669 0 
L 3244 1197 
L 1141 1197 
L 716 0 
L 50 0 
L 1831 4666 
z
" transform="scale(0.015625)"/>
      <path id="DejaVuSans-43" d="M 4122 4306 
L 4122 3641 
Q 3803 3938 3442 4084 
Q 3081 4231 2675 4231 
Q 1875 4231 1450 3742 
Q 1025 3253 1025 2328 
Q 1025 1406 1450 917 
Q 1875 428 2675 428 
Q 3081 428 3442 575 
Q 3803 722 4122 1019 
L 4122 359 
Q 3791 134 3420 21 
Q 3050 -91 2638 -91 
Q 1578 -91 968 557 
Q 359 1206 359 2328 
Q 359 3453 968 4101 
Q 1578 4750 2638 4750 
Q 3056 4750 3426 4639 
Q 3797 4528 4122 4306 
z
" transform="scale(0.015625)"/>
      <path id="DejaVuSans-45" d="M 628 4666 
L 3578 4666 
L 3578 4134 
L 1259 4134 
L 1259 2753 
L 3481 2753 
L 3481 2222 
L 1259 2222 
L 1259 531 
L 3634 531 
L 3634 0 
L 628 0 
L 628 4666 
z
" transform="scale(0.015625)"/>
      <path id="DejaVuSans-6d" d="M 3328 2828 
Q 3544 3216 3844 3400 
Q 4144 3584 4550 3584 
Q 5097 3584 5394 3201 
Q 5691 2819 5691 2113 
L 5691 0 
L 5113 0 
L 5113 2094 
Q 5113 2597 4934 2840 
Q 4756 3084 4391 3084 
Q 3944 3084 3684 2787 
Q 3425 2491 3425 1978 
L 3425 0 
L 2847 0 
L 2847 2094 
Q 2847 2600 2669 2842 
Q 2491 3084 2119 3084 
Q 1678 3084 1418 2786 
Q 1159 2488 1159 1978 
L 1159 0 
L 581 0 
L 581 3500 
L 1159 3500 
L 1159 2956 
Q 1356 3278 1631 3431 
Q 1906 3584 2284 3584 
Q 2666 3584 2933 3390 
Q 3200 3197 3328 2828 
z
" transform="scale(0.015625)"/>
      <path id="DejaVuSans-72" d="M 2631 2963 
Q 2534 3019 2420 3045 
Q 2306 3072 2169 3072 
Q 1681 3072 1420 2755 
Q 1159 2438 1159 1844 
L 1159 0 
L 581 0 
L 581 3500 
L 1159 3500 
L 1159 2956 
Q 1341 3275 1631 3429 
Q 1922 3584 2338 3584 
Q 2397 3584 2469 3576 
Q 2541 3569 2628 3553 
L 2631 2963 
z
" transform="scale(0.015625)"/>
      <path id="DejaVuSans-62" d="M 3116 1747 
Q 3116 2381 2855 2742 
Q 2594 3103 2138 3103 
Q 1681 3103 1420 2742 
Q 1159 2381 1159 1747 
Q 1159 1113 1420 752 
Q 1681 391 2138 391 
Q 2594 391 2855 752 
Q 3116 1113 3116 1747 
z
M 1159 2969 
Q 1341 3281 1617 3432 
Q 1894 3584 2278 3584 
Q 2916 3584 3314 3078 
Q 3713 2572 3713 1747 
Q 3713 922 3314 415 
Q 2916 -91 2278 -91 
Q 1894 -91 1617 61 
Q 1341 213 1159 525 
L 1159 0 
L 581 0 
L 581 4863 
L 1159 4863 
L 1159 2969 
z
" transform="scale(0.015625)"/>
      <path id="DejaVuSans-75" d="M 544 1381 
L 544 3500 
L 1119 3500 
L 1119 1403 
Q 1119 906 1312 657 
Q 1506 409 1894 409 
Q 2359 409 2629 706 
Q 2900 1003 2900 1516 
L 2900 3500 
L 3475 3500 
L 3475 0 
L 2900 0 
L 2900 538 
Q 2691 219 2414 64 
Q 2138 -91 1772 -91 
Q 1169 -91 856 284 
Q 544 659 544 1381 
z
M 1991 3584 
L 1991 3584 
z
" transform="scale(0.015625)"/>
      <path id="DejaVuSans-28" d="M 1984 4856 
Q 1566 4138 1362 3434 
Q 1159 2731 1159 2009 
Q 1159 1288 1364 580 
Q 1569 -128 1984 -844 
L 1484 -844 
Q 1016 -109 783 600 
Q 550 1309 550 2009 
Q 550 2706 781 3412 
Q 1013 4119 1484 4856 
L 1984 4856 
z
" transform="scale(0.015625)"/>
      <path id="DejaVuSans-66" d="M 2375 4863 
L 2375 4384 
L 1825 4384 
Q 1516 4384 1395 4259 
Q 1275 4134 1275 3809 
L 1275 3500 
L 2222 3500 
L 2222 3053 
L 1275 3053 
L 1275 0 
L 697 0 
L 697 3053 
L 147 3053 
L 147 3500 
L 697 3500 
L 697 3744 
Q 697 4328 969 4595 
Q 1241 4863 1831 4863 
L 2375 4863 
z
" transform="scale(0.015625)"/>
      <path id="DejaVuSans-29" d="M 513 4856 
L 1013 4856 
Q 1481 4119 1714 3412 
Q 1947 2706 1947 2009 
Q 1947 1309 1714 600 
Q 1481 -109 1013 -844 
L 513 -844 
Q 928 -128 1133 580 
Q 1338 1288 1338 2009 
Q 1338 2731 1133 3434 
Q 928 4138 513 4856 
z
" transform="scale(0.015625)"/>
     </defs>
     <use xlink:href="#DejaVuSans-54"/>
     <use xlink:href="#DejaVuSans-52" transform="translate(61.083984 0)"/>
     <use xlink:href="#DejaVuSans-41" transform="translate(126.566406 0)"/>
     <use xlink:href="#DejaVuSans-43" transform="translate(193.224609 0)"/>
     <use xlink:href="#DejaVuSans-45" transform="translate(263.048828 0)"/>
     <use xlink:href="#DejaVuSans-20" transform="translate(326.232422 0)"/>
     <use xlink:href="#DejaVuSans-64" transform="translate(358.019531 0)"/>
     <use xlink:href="#DejaVuSans-61" transform="translate(421.496094 0)"/>
     <use xlink:href="#DejaVuSans-69" transform="translate(482.775391 0)"/>
     <use xlink:href="#DejaVuSans-6c" transform="translate(510.558594 0)"/>
     <use xlink:href="#DejaVuSans-79" transform="translate(538.341797 0)"/>
     <use xlink:href="#DejaVuSans-20" transform="translate(597.521484 0)"/>
     <use xlink:href="#DejaVuSans-6d" transform="translate(629.308594 0)"/>
     <use xlink:href="#DejaVuSans-65" transform="translate(726.720703 0)"/>
     <use xlink:href="#DejaVuSans-61" transform="translate(788.244141 0)"/>
     <use xlink:href="#DejaVuSans-6e" transform="translate(849.523438 0)"/>
     <use xlink:href="#DejaVuSans-20" transform="translate(912.902344 0)"/>
     <use xlink:href="#DejaVuSans-79" transform="translate(944.689453 0)"/>
     <use xlink:href="#DejaVuSans-69" transform="translate(1003.869141 0)"/>
     <use xlink:href="#DejaVuSans-65" transform="translate(1031.652344 0)"/>
     <use xlink:href="#DejaVuSans-6c" transform="translate(1093.175781 0)"/>
     <use xlink:href="#DejaVuSans-64" transform="translate(1120.958984 0)"/>
     <use xlink:href="#DejaVuSans-20" transform="translate(1184.435547 0)"/>
     <use xlink:href="#DejaVuSans-64" transform="translate(1216.222656 0)"/>
     <use xlink:href="#DejaVuSans-69" transform="translate(1279.699219 0)"/>
     <use xlink:href="#DejaVuSans-73" transform="translate(1307.482422 0)"/>
     <use xlink:href="#DejaVuSans-74" transform="translate(1359.582031 0)"/>
     <use xlink:href="#DejaVuSans-72" transform="translate(1398.791016 0)"/>
     <use xlink:href="#DejaVuSans-69" transform="translate(1439.904297 0)"/>
     <use xlink:href="#DejaVuSans-62" transform="translate(1467.6875 0)"/>
     <use xlink:href="#DejaVuSans-75" transform="translate(1531.164062 0)"/>
     <use xlink:href="#DejaVuSans-74" transform="translate(1594.542969 0)"/>
     <use xlink:href="#DejaVuSans-69" transform="translate(1633.751953 0)"/>
     <use xlink:href="#DejaVuSans-6f" transform="translate(1661.535156 0)"/>
     <use xlink:href="#DejaVuSans-6e" transform="translate(1722.716797 0)"/>
     <use xlink:href="#DejaVuSans-20" transform="translate(1786.095703 0)"/>
     <use xlink:href="#DejaVuSans-28" transform="translate(1817.882812 0)"/>
     <use xlink:href="#DejaVuSans-66" transform="translate(1856.896484 0)"/>
     <use xlink:href="#DejaVuSans-75" transform="translate(1892.101562 0)"/>
     <use xlink:href="#DejaVuSans-6c" transform="translate(1955.480469 0)"/>
     <use xlink:href="#DejaVuSans-6c" transform="translate(1983.263672 0)"/>
     <use xlink:href="#DejaVuSans-32" transform="translate(2011.046875 0)"/>
     <use xlink:href="#DejaVuSans-30" transform="translate(2074.669922 0)"/>
     <use xlink:href="#DejaVuSans-32" transform="translate(2138.292969 0)"/>
     <use xlink:href="#DejaVuSans-34" transform="translate(2201.916016 0)"/>
     <use xlink:href="#DejaVuSans-29" transform="translate(2265.539062 0)"/>
    </g>
   </g>
  </g>
 </g>
 <defs>
  <clipPath id="p14a1aff01f">
   <rect x="66.053125" y="22.318125" width="495.43" height="276.76"/>
  </clipPath>
 </defs>
</svg>
