<?xml version="1.0" encoding="utf-8" standalone="no"?>
<!DOCTYPE svg PUBLIC "-//W3C//DTD SVG 1.1//EN"
  "http://www.w3.org/Graphics/SVG/1.1/DTD/svg11.dtd">
<svg xmlns:xlink="http://www.w3.org/1999/xlink" width="640.488942pt" height="388.474375pt" viewBox="0 0 640.488942 388.474375" xmlns="http://www.w3.org/2000/svg" version="1.1">
 <metadata>
  <rdf:RDF xmlns:dc="http://purl.org/dc/elements/1.1/" xmlns:cc="http://creativecommons.org/ns#" xmlns:rdf="http://www.w3.org/1999/02/22-rdf-syntax-ns#">
   <cc:Work>
    <dc:type rdf:resource="http://purl.org/dc/dcmitype/StillImage"/>
    <dc:date>2026-05-27T13:27:10.784981</dc:date>
    <dc:format>image/svg+xml</dc:format>
    <dc:creator>
     <cc:Agent>
      <dc:title>Matplotlib v3.10.9, https://matplotlib.org/</dc:title>
     </cc:Agent>
    </dc:creator>
   </cc:Work>
  </rdf:RDF>
 </metadata>
 <defs>
  <style type="text/css">*{stroke-linejoin: round; stroke-linecap: butt}</style>
 </defs>
 <g id="figure_1">
  <g id="patch_1">
   <path d="M 0 388.474375 
L 640.488942 388.474375 
L 640.488942 0 
L 0 0 
z
" style="fill: #ffffff"/>
  </g>
  <g id="axes_1">
   <g id="patch_2">
    <path d="M 43.78125 350.918125 
L 633.288942 350.918125 
L 633.288942 22.318125 
L 43.78125 22.318125 
z
" style="fill: #ffffff"/>
   </g>
   <g id="PathCollection_1">
    <path d="M 72.453689 257.324847 
C 73.875682 257.324847 75.239625 256.759883 76.245126 255.754382 
C 77.250627 254.748881 77.815591 253.384937 77.815591 251.962944 
C 77.815591 250.540951 77.250627 249.177007 76.245126 248.171506 
C 75.239625 247.166005 73.875682 246.601041 72.453689 246.601041 
C 71.031695 246.601041 69.667752 247.166005 68.662251 248.171506 
C 67.65675 249.177007 67.091786 250.540951 67.091786 251.962944 
C 67.091786 253.384937 67.65675 254.748881 68.662251 255.754382 
C 69.667752 256.759883 71.031695 257.324847 72.453689 257.324847 
z
" clip-path="url(#p342794cf0c)" style="fill: #1f77b4; fill-opacity: 0.85; stroke: #1f77b4; stroke-opacity: 0.85"/>
    <path d="M 76.494616 39.832565 
C 77.17833 39.832565 77.834133 39.560922 78.317591 39.077464 
C 78.80105 38.594005 79.072692 37.938202 79.072692 37.254489 
C 79.072692 36.570775 78.80105 35.914972 78.317591 35.431514 
C 77.834133 34.948055 77.17833 34.676413 76.494616 34.676413 
C 75.810903 34.676413 75.1551 34.948055 74.671641 35.431514 
C 74.188183 35.914972 73.916541 36.570775 73.916541 37.254489 
C 73.916541 37.938202 74.188183 38.594005 74.671641 39.077464 
C 75.1551 39.560922 75.810903 39.832565 76.494616 39.832565 
z
" clip-path="url(#p342794cf0c)" style="fill: #1f77b4; fill-opacity: 0.85; stroke: #1f77b4; stroke-opacity: 0.85"/>
    <path d="M 109.027511 338.78103 
C 109.769886 338.78103 110.481954 338.486081 111.006893 337.961143 
C 111.531831 337.436205 111.826779 336.724136 111.826779 335.981761 
C 111.826779 335.239387 111.531831 334.527318 111.006893 334.00238 
C 110.481954 333.477442 109.769886 333.182493 109.027511 333.182493 
C 108.285136 333.182493 107.573068 333.477442 107.048129 334.00238 
C 106.523191 334.527318 106.228243 335.239387 106.228243 335.981761 
C 106.228243 336.724136 106.523191 337.436205 107.048129 337.961143 
C 107.573068 338.486081 108.285136 338.78103 109.027511 338.78103 
z
" clip-path="url(#p342794cf0c)" style="fill: #1f77b4; fill-opacity: 0.85; stroke: #1f77b4; stroke-opacity: 0.85"/>
    <path d="M 116.150503 240.806257 
C 116.834216 240.806257 117.490019 240.534615 117.973478 240.051156 
C 118.456936 239.567698 118.728579 238.911895 118.728579 238.228181 
C 118.728579 237.544468 118.456936 236.888665 117.973478 236.405206 
C 117.490019 235.921748 116.834216 235.650105 116.150503 235.650105 
C 115.466789 235.650105 114.810986 235.921748 114.327528 236.405206 
C 113.844069 236.888665 113.572427 237.544468 113.572427 238.228181 
C 113.572427 238.911895 113.844069 239.567698 114.327528 240.051156 
C 114.810986 240.534615 115.466789 240.806257 116.150503 240.806257 
z
" clip-path="url(#p342794cf0c)" style="fill: #1f77b4; fill-opacity: 0.85; stroke: #1f77b4; stroke-opacity: 0.85"/>
    <path d="M 187.037968 307.917395 
C 187.843398 307.917395 188.615949 307.597394 189.185474 307.027868 
C 189.754999 306.458343 190.075 305.685792 190.075 304.880362 
C 190.075 304.074931 189.754999 303.302381 189.185474 302.732855 
C 188.615949 302.16333 187.843398 301.843329 187.037968 301.843329 
C 186.232537 301.843329 185.459986 302.16333 184.890461 302.732855 
C 184.320936 303.302381 184.000935 304.074931 184.000935 304.880362 
C 184.000935 305.685792 184.320936 306.458343 184.890461 307.027868 
C 185.459986 307.597394 186.232537 307.917395 187.037968 307.917395 
z
" clip-path="url(#p342794cf0c)" style="fill: #1f77b4; fill-opacity: 0.85; stroke: #1f77b4; stroke-opacity: 0.85"/>
    <path d="M 262.445793 284.351787 
C 263.15944 284.351787 263.843954 284.068252 264.348579 283.563627 
C 264.853203 283.059002 265.136738 282.374488 265.136738 281.660841 
C 265.136738 280.947194 264.853203 280.26268 264.348579 279.758055 
C 263.843954 279.25343 263.15944 278.969895 262.445793 278.969895 
C 261.732145 278.969895 261.047631 279.25343 260.543007 279.758055 
C 260.038382 280.26268 259.754847 280.947194 259.754847 281.660841 
C 259.754847 282.374488 260.038382 283.059002 260.543007 283.563627 
C 261.047631 284.068252 261.732145 284.351787 262.445793 284.351787 
z
" clip-path="url(#p342794cf0c)" style="fill: #1f77b4; fill-opacity: 0.85; stroke: #1f77b4; stroke-opacity: 0.85"/>
    <path d="M 265.185405 254.860851 
C 265.908755 254.860851 266.602575 254.573461 267.114061 254.061976 
C 267.625546 253.55049 267.912936 252.85667 267.912936 252.13332 
C 267.912936 251.40997 267.625546 250.71615 267.114061 250.204664 
C 266.602575 249.693178 265.908755 249.405789 265.185405 249.405789 
C 264.462055 249.405789 263.768234 249.693178 263.256749 250.204664 
C 262.745263 250.71615 262.457873 251.40997 262.457873 252.13332 
C 262.457873 252.85667 262.745263 253.55049 263.256749 254.061976 
C 263.768234 254.573461 264.462055 254.860851 265.185405 254.860851 
z
" clip-path="url(#p342794cf0c)" style="fill: #1f77b4; fill-opacity: 0.85; stroke: #1f77b4; stroke-opacity: 0.85"/>
    <path d="M 375.660266 211.3215 
C 376.383615 211.3215 377.077436 211.03411 377.588922 210.522625 
C 378.100407 210.011139 378.387797 209.317319 378.387797 208.593969 
C 378.387797 207.870619 378.100407 207.176798 377.588922 206.665313 
C 377.077436 206.153827 376.383615 205.866437 375.660266 205.866437 
C 374.936916 205.866437 374.243095 206.153827 373.73161 206.665313 
C 373.220124 207.176798 372.932734 207.870619 372.932734 208.593969 
C 372.932734 209.317319 373.220124 210.011139 373.73161 210.522625 
C 374.243095 211.03411 374.936916 211.3215 375.660266 211.3215 
z
" clip-path="url(#p342794cf0c)" style="fill: #1f77b4; fill-opacity: 0.85; stroke: #1f77b4; stroke-opacity: 0.85"/>
    <path d="M 398.604518 214.744566 
C 399.337441 214.744566 400.040445 214.453372 400.558701 213.935116 
C 401.076956 213.416861 401.36815 212.713857 401.36815 211.980933 
C 401.36815 211.248009 401.076956 210.545005 400.558701 210.02675 
C 400.040445 209.508494 399.337441 209.2173 398.604518 209.2173 
C 397.871594 209.2173 397.16859 209.508494 396.650334 210.02675 
C 396.132079 210.545005 395.840885 211.248009 395.840885 211.980933 
C 395.840885 212.713857 396.132079 213.416861 396.650334 213.935116 
C 397.16859 214.453372 397.871594 214.744566 398.604518 214.744566 
z
" clip-path="url(#p342794cf0c)" style="fill: #1f77b4; fill-opacity: 0.85; stroke: #1f77b4; stroke-opacity: 0.85"/>
    <path d="M 419.562551 229.126169 
C 420.276198 229.126169 420.960712 228.842634 421.465337 228.338009 
C 421.969961 227.833384 422.253496 227.14887 422.253496 226.435223 
C 422.253496 225.721576 421.969961 225.037062 421.465337 224.532437 
C 420.960712 224.027812 420.276198 223.744277 419.562551 223.744277 
C 418.848903 223.744277 418.164389 224.027812 417.659765 224.532437 
C 417.15514 225.037062 416.871605 225.721576 416.871605 226.435223 
C 416.871605 227.14887 417.15514 227.833384 417.659765 228.338009 
C 418.164389 228.842634 418.848903 229.126169 419.562551 229.126169 
z
" clip-path="url(#p342794cf0c)" style="fill: #1f77b4; fill-opacity: 0.85; stroke: #1f77b4; stroke-opacity: 0.85"/>
    <path d="M 557.091082 201.760524 
C 557.764522 201.760524 558.410471 201.492963 558.886665 201.016769 
C 559.362859 200.540575 559.63042 199.894626 559.63042 199.221186 
C 559.63042 198.547745 559.362859 197.901797 558.886665 197.425603 
C 558.410471 196.949408 557.764522 196.681848 557.091082 196.681848 
C 556.417641 196.681848 555.771693 196.949408 555.295498 197.425603 
C 554.819304 197.901797 554.551744 198.547745 554.551744 199.221186 
C 554.551744 199.894626 554.819304 200.540575 555.295498 201.016769 
C 555.771693 201.492963 556.417641 201.760524 557.091082 201.760524 
z
" clip-path="url(#p342794cf0c)" style="fill: #1f77b4; fill-opacity: 0.85; stroke: #1f77b4; stroke-opacity: 0.85"/>
   </g>
   <g id="matplotlib.axis_1">
    <g id="xtick_1">
     <g id="line2d_1">
      <path d="M 63.070517 350.918125 
L 63.070517 22.318125 
" clip-path="url(#p342794cf0c)" style="fill: none; stroke: #b0b0b0; stroke-opacity: 0.25; stroke-width: 0.8; stroke-linecap: square"/>
     </g>
     <g id="line2d_2">
      <defs>
       <path id="m5739c4c089" d="M 0 0 
L 0 3.5 
" style="stroke: #000000; stroke-width: 0.8"/>
      </defs>
      <g>
       <use xlink:href="#m5739c4c089" x="63.070517" y="350.918125" style="stroke: #000000; stroke-width: 0.8"/>
      </g>
     </g>
     <g id="text_1">
      <!-- 0 -->
      <g transform="translate(59.889267 365.516563) scale(0.1 -0.1)">
       <defs>
        <path id="DejaVuSans-30" d="M 2034 4250 
Q 1547 4250 1301 3770 
Q 1056 3291 1056 2328 
Q 1056 1369 1301 889 
Q 1547 409 2034 409 
Q 2525 409 2770 889 
Q 3016 1369 3016 2328 
Q 3016 3291 2770 3770 
Q 2525 4250 2034 4250 
z
M 2034 4750 
Q 2819 4750 3233 4129 
Q 3647 3509 3647 2328 
Q 3647 1150 3233 529 
Q 2819 -91 2034 -91 
Q 1250 -91 836 529 
Q 422 1150 422 2328 
Q 422 3509 836 4129 
Q 1250 4750 2034 4750 
z
" transform="scale(0.015625)"/>
       </defs>
       <use xlink:href="#DejaVuSans-30"/>
      </g>
     </g>
    </g>
    <g id="xtick_2">
     <g id="line2d_3">
      <path d="M 188.150935 350.918125 
L 188.150935 22.318125 
" clip-path="url(#p342794cf0c)" style="fill: none; stroke: #b0b0b0; stroke-opacity: 0.25; stroke-width: 0.8; stroke-linecap: square"/>
     </g>
     <g id="line2d_4">
      <g>
       <use xlink:href="#m5739c4c089" x="188.150935" y="350.918125" style="stroke: #000000; stroke-width: 0.8"/>
      </g>
     </g>
     <g id="text_2">
      <!-- 5 -->
      <g transform="translate(184.969685 365.516563) scale(0.1 -0.1)">
       <defs>
        <path id="DejaVuSans-35" d="M 691 4666 
L 3169 4666 
L 3169 4134 
L 1269 4134 
L 1269 2991 
Q 1406 3038 1543 3061 
Q 1681 3084 1819 3084 
Q 2600 3084 3056 2656 
Q 3513 2228 3513 1497 
Q 3513 744 3044 326 
Q 2575 -91 1722 -91 
Q 1428 -91 1123 -41 
Q 819 9 494 109 
L 494 744 
Q 775 591 1075 516 
Q 1375 441 1709 441 
Q 2250 441 2565 725 
Q 2881 1009 2881 1497 
Q 2881 1984 2565 2268 
Q 2250 2553 1709 2553 
Q 1456 2553 1204 2497 
Q 953 2441 691 2322 
L 691 4666 
z
" transform="scale(0.015625)"/>
       </defs>
       <use xlink:href="#DejaVuSans-35"/>
      </g>
     </g>
    </g>
    <g id="xtick_3">
     <g id="line2d_5">
      <path d="M 313.231353 350.918125 
L 313.231353 22.318125 
" clip-path="url(#p342794cf0c)" style="fill: none; stroke: #b0b0b0; stroke-opacity: 0.25; stroke-width: 0.8; stroke-linecap: square"/>
     </g>
     <g id="line2d_6">
      <g>
       <use xlink:href="#m5739c4c089" x="313.231353" y="350.918125" style="stroke: #000000; stroke-width: 0.8"/>
      </g>
     </g>
     <g id="text_3">
      <!-- 10 -->
      <g transform="translate(306.868853 365.516563) scale(0.1 -0.1)">
       <defs>
        <path id="DejaVuSans-31" d="M 794 531 
L 1825 531 
L 1825 4091 
L 703 3866 
L 703 4441 
L 1819 4666 
L 2450 4666 
L 2450 531 
L 3481 531 
L 3481 0 
L 794 0 
L 794 531 
z
" transform="scale(0.015625)"/>
       </defs>
       <use xlink:href="#DejaVuSans-31"/>
       <use xlink:href="#DejaVuSans-30" transform="translate(63.623047 0)"/>
      </g>
     </g>
    </g>
    <g id="xtick_4">
     <g id="line2d_7">
      <path d="M 438.311771 350.918125 
L 438.311771 22.318125 
" clip-path="url(#p342794cf0c)" style="fill: none; stroke: #b0b0b0; stroke-opacity: 0.25; stroke-width: 0.8; stroke-linecap: square"/>
     </g>
     <g id="line2d_8">
      <g>
       <use xlink:href="#m5739c4c089" x="438.311771" y="350.918125" style="stroke: #000000; stroke-width: 0.8"/>
      </g>
     </g>
     <g id="text_4">
      <!-- 15 -->
      <g transform="translate(431.949271 365.516563) scale(0.1 -0.1)">
       <use xlink:href="#DejaVuSans-31"/>
       <use xlink:href="#DejaVuSans-35" transform="translate(63.623047 0)"/>
      </g>
     </g>
    </g>
    <g id="xtick_5">
     <g id="line2d_9">
      <path d="M 563.39219 350.918125 
L 563.39219 22.318125 
" clip-path="url(#p342794cf0c)" style="fill: none; stroke: #b0b0b0; stroke-opacity: 0.25; stroke-width: 0.8; stroke-linecap: square"/>
     </g>
     <g id="line2d_10">
      <g>
       <use xlink:href="#m5739c4c089" x="563.39219" y="350.918125" style="stroke: #000000; stroke-width: 0.8"/>
      </g>
     </g>
     <g id="text_5">
      <!-- 20 -->
      <g transform="translate(557.02969 365.516563) scale(0.1 -0.1)">
       <defs>
        <path id="DejaVuSans-32" d="M 1228 531 
L 3431 531 
L 3431 0 
L 469 0 
L 469 531 
Q 828 903 1448 1529 
Q 2069 2156 2228 2338 
Q 2531 2678 2651 2914 
Q 2772 3150 2772 3378 
Q 2772 3750 2511 3984 
Q 2250 4219 1831 4219 
Q 1534 4219 1204 4116 
Q 875 4013 500 3803 
L 500 4441 
Q 881 4594 1212 4672 
Q 1544 4750 1819 4750 
Q 2544 4750 2975 4387 
Q 3406 4025 3406 3419 
Q 3406 3131 3298 2873 
Q 3191 2616 2906 2266 
Q 2828 2175 2409 1742 
Q 1991 1309 1228 531 
z
" transform="scale(0.015625)"/>
       </defs>
       <use xlink:href="#DejaVuSans-32"/>
       <use xlink:href="#DejaVuSans-30" transform="translate(63.623047 0)"/>
      </g>
     </g>
    </g>
    <g id="text_6">
     <!-- Residual maturity, years -->
     <g transform="translate(277.464784 379.194687) scale(0.1 -0.1)">
      <defs>
       <path id="DejaVuSans-52" d="M 2841 2188 
Q 3044 2119 3236 1894 
Q 3428 1669 3622 1275 
L 4263 0 
L 3584 0 
L 2988 1197 
Q 2756 1666 2539 1819 
Q 2322 1972 1947 1972 
L 1259 1972 
L 1259 0 
L 628 0 
L 628 4666 
L 2053 4666 
Q 2853 4666 3247 4331 
Q 3641 3997 3641 3322 
Q 3641 2881 3436 2590 
Q 3231 2300 2841 2188 
z
M 1259 4147 
L 1259 2491 
L 2053 2491 
Q 2509 2491 2742 2702 
Q 2975 2913 2975 3322 
Q 2975 3731 2742 3939 
Q 2509 4147 2053 4147 
L 1259 4147 
z
" transform="scale(0.015625)"/>
       <path id="DejaVuSans-65" d="M 3597 1894 
L 3597 1613 
L 953 1613 
Q 991 1019 1311 708 
Q 1631 397 2203 397 
Q 2534 397 2845 478 
Q 3156 559 3463 722 
L 3463 178 
Q 3153 47 2828 -22 
Q 2503 -91 2169 -91 
Q 1331 -91 842 396 
Q 353 884 353 1716 
Q 353 2575 817 3079 
Q 1281 3584 2069 3584 
Q 2775 3584 3186 3129 
Q 3597 2675 3597 1894 
z
M 3022 2063 
Q 3016 2534 2758 2815 
Q 2500 3097 2075 3097 
Q 1594 3097 1305 2825 
Q 1016 2553 972 2059 
L 3022 2063 
z
" transform="scale(0.015625)"/>
       <path id="DejaVuSans-73" d="M 2834 3397 
L 2834 2853 
Q 2591 2978 2328 3040 
Q 2066 3103 1784 3103 
Q 1356 3103 1142 2972 
Q 928 2841 928 2578 
Q 928 2378 1081 2264 
Q 1234 2150 1697 2047 
L 1894 2003 
Q 2506 1872 2764 1633 
Q 3022 1394 3022 966 
Q 3022 478 2636 193 
Q 2250 -91 1575 -91 
Q 1294 -91 989 -36 
Q 684 19 347 128 
L 347 722 
Q 666 556 975 473 
Q 1284 391 1588 391 
Q 1994 391 2212 530 
Q 2431 669 2431 922 
Q 2431 1156 2273 1281 
Q 2116 1406 1581 1522 
L 1381 1569 
Q 847 1681 609 1914 
Q 372 2147 372 2553 
Q 372 3047 722 3315 
Q 1072 3584 1716 3584 
Q 2034 3584 2315 3537 
Q 2597 3491 2834 3397 
z
" transform="scale(0.015625)"/>
       <path id="DejaVuSans-69" d="M 603 3500 
L 1178 3500 
L 1178 0 
L 603 0 
L 603 3500 
z
M 603 4863 
L 1178 4863 
L 1178 4134 
L 603 4134 
L 603 4863 
z
" transform="scale(0.015625)"/>
       <path id="DejaVuSans-64" d="M 2906 2969 
L 2906 4863 
L 3481 4863 
L 3481 0 
L 2906 0 
L 2906 525 
Q 2725 213 2448 61 
Q 2172 -91 1784 -91 
Q 1150 -91 751 415 
Q 353 922 353 1747 
Q 353 2572 751 3078 
Q 1150 3584 1784 3584 
Q 2172 3584 2448 3432 
Q 2725 3281 2906 2969 
z
M 947 1747 
Q 947 1113 1208 752 
Q 1469 391 1925 391 
Q 2381 391 2643 752 
Q 2906 1113 2906 1747 
Q 2906 2381 2643 2742 
Q 2381 3103 1925 3103 
Q 1469 3103 1208 2742 
Q 947 2381 947 1747 
z
" transform="scale(0.015625)"/>
       <path id="DejaVuSans-75" d="M 544 1381 
L 544 3500 
L 1119 3500 
L 1119 1403 
Q 1119 906 1312 657 
Q 1506 409 1894 409 
Q 2359 409 2629 706 
Q 2900 1003 2900 1516 
L 2900 3500 
L 3475 3500 
L 3475 0 
L 2900 0 
L 2900 538 
Q 2691 219 2414 64 
Q 2138 -91 1772 -91 
Q 1169 -91 856 284 
Q 544 659 544 1381 
z
M 1991 3584 
L 1991 3584 
z
" transform="scale(0.015625)"/>
       <path id="DejaVuSans-61" d="M 2194 1759 
Q 1497 1759 1228 1600 
Q 959 1441 959 1056 
Q 959 750 1161 570 
Q 1363 391 1709 391 
Q 2188 391 2477 730 
Q 2766 1069 2766 1631 
L 2766 1759 
L 2194 1759 
z
M 3341 1997 
L 3341 0 
L 2766 0 
L 2766 531 
Q 2569 213 2275 61 
Q 1981 -91 1556 -91 
Q 1019 -91 701 211 
Q 384 513 384 1019 
Q 384 1609 779 1909 
Q 1175 2209 1959 2209 
L 2766 2209 
L 2766 2266 
Q 2766 2663 2505 2880 
Q 2244 3097 1772 3097 
Q 1472 3097 1187 3025 
Q 903 2953 641 2809 
L 641 3341 
Q 956 3463 1253 3523 
Q 1550 3584 1831 3584 
Q 2591 3584 2966 3190 
Q 3341 2797 3341 1997 
z
" transform="scale(0.015625)"/>
       <path id="DejaVuSans-6c" d="M 603 4863 
L 1178 4863 
L 1178 0 
L 603 0 
L 603 4863 
z
" transform="scale(0.015625)"/>
       <path id="DejaVuSans-20" transform="scale(0.015625)"/>
       <path id="DejaVuSans-6d" d="M 3328 2828 
Q 3544 3216 3844 3400 
Q 4144 3584 4550 3584 
Q 5097 3584 5394 3201 
Q 5691 2819 5691 2113 
L 5691 0 
L 5113 0 
L 5113 2094 
Q 5113 2597 4934 2840 
Q 4756 3084 4391 3084 
Q 3944 3084 3684 2787 
Q 3425 2491 3425 1978 
L 3425 0 
L 2847 0 
L 2847 2094 
Q 2847 2600 2669 2842 
Q 2491 3084 2119 3084 
Q 1678 3084 1418 2786 
Q 1159 2488 1159 1978 
L 1159 0 
L 581 0 
L 581 3500 
L 1159 3500 
L 1159 2956 
Q 1356 3278 1631 3431 
Q 1906 3584 2284 3584 
Q 2666 3584 2933 3390 
Q 3200 3197 3328 2828 
z
" transform="scale(0.015625)"/>
       <path id="DejaVuSans-74" d="M 1172 4494 
L 1172 3500 
L 2356 3500 
L 2356 3053 
L 1172 3053 
L 1172 1153 
Q 1172 725 1289 603 
Q 1406 481 1766 481 
L 2356 481 
L 2356 0 
L 1766 0 
Q 1100 0 847 248 
Q 594 497 594 1153 
L 594 3053 
L 172 3053 
L 172 3500 
L 594 3500 
L 594 4494 
L 1172 4494 
z
" transform="scale(0.015625)"/>
       <path id="DejaVuSans-72" d="M 2631 2963 
Q 2534 3019 2420 3045 
Q 2306 3072 2169 3072 
Q 1681 3072 1420 2755 
Q 1159 2438 1159 1844 
L 1159 0 
L 581 0 
L 581 3500 
L 1159 3500 
L 1159 2956 
Q 1341 3275 1631 3429 
Q 1922 3584 2338 3584 
Q 2397 3584 2469 3576 
Q 2541 3569 2628 3553 
L 2631 2963 
z
" transform="scale(0.015625)"/>
       <path id="DejaVuSans-79" d="M 2059 -325 
Q 1816 -950 1584 -1140 
Q 1353 -1331 966 -1331 
L 506 -1331 
L 506 -850 
L 844 -850 
Q 1081 -850 1212 -737 
Q 1344 -625 1503 -206 
L 1606 56 
L 191 3500 
L 800 3500 
L 1894 763 
L 2988 3500 
L 3597 3500 
L 2059 -325 
z
" transform="scale(0.015625)"/>
       <path id="DejaVuSans-2c" d="M 750 794 
L 1409 794 
L 1409 256 
L 897 -744 
L 494 -744 
L 750 256 
L 750 794 
z
" transform="scale(0.015625)"/>
      </defs>
      <use xlink:href="#DejaVuSans-52"/>
      <use xlink:href="#DejaVuSans-65" transform="translate(64.982422 0)"/>
      <use xlink:href="#DejaVuSans-73" transform="translate(126.505859 0)"/>
      <use xlink:href="#DejaVuSans-69" transform="translate(178.605469 0)"/>
      <use xlink:href="#DejaVuSans-64" transform="translate(206.388672 0)"/>
      <use xlink:href="#DejaVuSans-75" transform="translate(269.865234 0)"/>
      <use xlink:href="#DejaVuSans-61" transform="translate(333.244141 0)"/>
      <use xlink:href="#DejaVuSans-6c" transform="translate(394.523438 0)"/>
      <use xlink:href="#DejaVuSans-20" transform="translate(422.306641 0)"/>
      <use xlink:href="#DejaVuSans-6d" transform="translate(454.09375 0)"/>
      <use xlink:href="#DejaVuSans-61" transform="translate(551.505859 0)"/>
      <use xlink:href="#DejaVuSans-74" transform="translate(612.785156 0)"/>
      <use xlink:href="#DejaVuSans-75" transform="translate(651.994141 0)"/>
      <use xlink:href="#DejaVuSans-72" transform="translate(715.373047 0)"/>
      <use xlink:href="#DejaVuSans-69" transform="translate(756.486328 0)"/>
      <use xlink:href="#DejaVuSans-74" transform="translate(784.269531 0)"/>
      <use xlink:href="#DejaVuSans-79" transform="translate(823.478516 0)"/>
      <use xlink:href="#DejaVuSans-2c" transform="translate(882.658203 0)"/>
      <use xlink:href="#DejaVuSans-20" transform="translate(914.445312 0)"/>
      <use xlink:href="#DejaVuSans-79" transform="translate(946.232422 0)"/>
      <use xlink:href="#DejaVuSans-65" transform="translate(1005.412109 0)"/>
      <use xlink:href="#DejaVuSans-61" transform="translate(1066.935547 0)"/>
      <use xlink:href="#DejaVuSans-72" transform="translate(1128.214844 0)"/>
      <use xlink:href="#DejaVuSans-73" transform="translate(1169.328125 0)"/>
     </g>
    </g>
   </g>
   <g id="matplotlib.axis_2">
    <g id="ytick_1">
     <g id="line2d_11">
      <path d="M 43.78125 308.109543 
L 633.288942 308.109543 
" clip-path="url(#p342794cf0c)" style="fill: none; stroke: #b0b0b0; stroke-opacity: 0.25; stroke-width: 0.8; stroke-linecap: square"/>
     </g>
     <g id="line2d_12">
      <defs>
       <path id="m72642eca1d" d="M 0 0 
L -3.5 0 
" style="stroke: #000000; stroke-width: 0.8"/>
      </defs>
      <g>
       <use xlink:href="#m72642eca1d" x="43.78125" y="308.109543" style="stroke: #000000; stroke-width: 0.8"/>
      </g>
     </g>
     <g id="text_7">
      <!-- 4.5 -->
      <g transform="translate(20.878125 311.908762) scale(0.1 -0.1)">
       <defs>
        <path id="DejaVuSans-34" d="M 2419 4116 
L 825 1625 
L 2419 1625 
L 2419 4116 
z
M 2253 4666 
L 3047 4666 
L 3047 1625 
L 3713 1625 
L 3713 1100 
L 3047 1100 
L 3047 0 
L 2419 0 
L 2419 1100 
L 313 1100 
L 313 1709 
L 2253 4666 
z
" transform="scale(0.015625)"/>
        <path id="DejaVuSans-2e" d="M 684 794 
L 1344 794 
L 1344 0 
L 684 0 
L 684 794 
z
" transform="scale(0.015625)"/>
       </defs>
       <use xlink:href="#DejaVuSans-34"/>
       <use xlink:href="#DejaVuSans-2e" transform="translate(63.623047 0)"/>
       <use xlink:href="#DejaVuSans-35" transform="translate(95.410156 0)"/>
      </g>
     </g>
    </g>
    <g id="ytick_2">
     <g id="line2d_13">
      <path d="M 43.78125 240.500455 
L 633.288942 240.500455 
" clip-path="url(#p342794cf0c)" style="fill: none; stroke: #b0b0b0; stroke-opacity: 0.25; stroke-width: 0.8; stroke-linecap: square"/>
     </g>
     <g id="line2d_14">
      <g>
       <use xlink:href="#m72642eca1d" x="43.78125" y="240.500455" style="stroke: #000000; stroke-width: 0.8"/>
      </g>
     </g>
     <g id="text_8">
      <!-- 5.0 -->
      <g transform="translate(20.878125 244.299674) scale(0.1 -0.1)">
       <use xlink:href="#DejaVuSans-35"/>
       <use xlink:href="#DejaVuSans-2e" transform="translate(63.623047 0)"/>
       <use xlink:href="#DejaVuSans-30" transform="translate(95.410156 0)"/>
      </g>
     </g>
    </g>
    <g id="ytick_3">
     <g id="line2d_15">
      <path d="M 43.78125 172.891367 
L 633.288942 172.891367 
" clip-path="url(#p342794cf0c)" style="fill: none; stroke: #b0b0b0; stroke-opacity: 0.25; stroke-width: 0.8; stroke-linecap: square"/>
     </g>
     <g id="line2d_16">
      <g>
       <use xlink:href="#m72642eca1d" x="43.78125" y="172.891367" style="stroke: #000000; stroke-width: 0.8"/>
      </g>
     </g>
     <g id="text_9">
      <!-- 5.5 -->
      <g transform="translate(20.878125 176.690586) scale(0.1 -0.1)">
       <use xlink:href="#DejaVuSans-35"/>
       <use xlink:href="#DejaVuSans-2e" transform="translate(63.623047 0)"/>
       <use xlink:href="#DejaVuSans-35" transform="translate(95.410156 0)"/>
      </g>
     </g>
    </g>
    <g id="ytick_4">
     <g id="line2d_17">
      <path d="M 43.78125 105.28228 
L 633.288942 105.28228 
" clip-path="url(#p342794cf0c)" style="fill: none; stroke: #b0b0b0; stroke-opacity: 0.25; stroke-width: 0.8; stroke-linecap: square"/>
     </g>
     <g id="line2d_18">
      <g>
       <use xlink:href="#m72642eca1d" x="43.78125" y="105.28228" style="stroke: #000000; stroke-width: 0.8"/>
      </g>
     </g>
     <g id="text_10">
      <!-- 6.0 -->
      <g transform="translate(20.878125 109.081498) scale(0.1 -0.1)">
       <defs>
        <path id="DejaVuSans-36" d="M 2113 2584 
Q 1688 2584 1439 2293 
Q 1191 2003 1191 1497 
Q 1191 994 1439 701 
Q 1688 409 2113 409 
Q 2538 409 2786 701 
Q 3034 994 3034 1497 
Q 3034 2003 2786 2293 
Q 2538 2584 2113 2584 
z
M 3366 4563 
L 3366 3988 
Q 3128 4100 2886 4159 
Q 2644 4219 2406 4219 
Q 1781 4219 1451 3797 
Q 1122 3375 1075 2522 
Q 1259 2794 1537 2939 
Q 1816 3084 2150 3084 
Q 2853 3084 3261 2657 
Q 3669 2231 3669 1497 
Q 3669 778 3244 343 
Q 2819 -91 2113 -91 
Q 1303 -91 875 529 
Q 447 1150 447 2328 
Q 447 3434 972 4092 
Q 1497 4750 2381 4750 
Q 2619 4750 2861 4703 
Q 3103 4656 3366 4563 
z
" transform="scale(0.015625)"/>
       </defs>
       <use xlink:href="#DejaVuSans-36"/>
       <use xlink:href="#DejaVuSans-2e" transform="translate(63.623047 0)"/>
       <use xlink:href="#DejaVuSans-30" transform="translate(95.410156 0)"/>
      </g>
     </g>
    </g>
    <g id="ytick_5">
     <g id="line2d_19">
      <path d="M 43.78125 37.673192 
L 633.288942 37.673192 
" clip-path="url(#p342794cf0c)" style="fill: none; stroke: #b0b0b0; stroke-opacity: 0.25; stroke-width: 0.8; stroke-linecap: square"/>
     </g>
     <g id="line2d_20">
      <g>
       <use xlink:href="#m72642eca1d" x="43.78125" y="37.673192" style="stroke: #000000; stroke-width: 0.8"/>
      </g>
     </g>
     <g id="text_11">
      <!-- 6.5 -->
      <g transform="translate(20.878125 41.47241) scale(0.1 -0.1)">
       <use xlink:href="#DejaVuSans-36"/>
       <use xlink:href="#DejaVuSans-2e" transform="translate(63.623047 0)"/>
       <use xlink:href="#DejaVuSans-35" transform="translate(95.410156 0)"/>
      </g>
     </g>
    </g>
    <g id="text_12">
     <!-- Yield, % -->
     <g transform="translate(14.798438 206.448594) rotate(-90) scale(0.1 -0.1)">
      <defs>
       <path id="DejaVuSans-59" d="M -13 4666 
L 666 4666 
L 1959 2747 
L 3244 4666 
L 3922 4666 
L 2272 2222 
L 2272 0 
L 1638 0 
L 1638 2222 
L -13 4666 
z
" transform="scale(0.015625)"/>
       <path id="DejaVuSans-25" d="M 4653 2053 
Q 4381 2053 4226 1822 
Q 4072 1591 4072 1178 
Q 4072 772 4226 539 
Q 4381 306 4653 306 
Q 4919 306 5073 539 
Q 5228 772 5228 1178 
Q 5228 1588 5073 1820 
Q 4919 2053 4653 2053 
z
M 4653 2450 
Q 5147 2450 5437 2106 
Q 5728 1763 5728 1178 
Q 5728 594 5436 251 
Q 5144 -91 4653 -91 
Q 4153 -91 3862 251 
Q 3572 594 3572 1178 
Q 3572 1766 3864 2108 
Q 4156 2450 4653 2450 
z
M 1428 4353 
Q 1159 4353 1004 4120 
Q 850 3888 850 3481 
Q 850 3069 1003 2837 
Q 1156 2606 1428 2606 
Q 1700 2606 1854 2837 
Q 2009 3069 2009 3481 
Q 2009 3884 1853 4118 
Q 1697 4353 1428 4353 
z
M 4250 4750 
L 4750 4750 
L 1831 -91 
L 1331 -91 
L 4250 4750 
z
M 1428 4750 
Q 1922 4750 2215 4408 
Q 2509 4066 2509 3481 
Q 2509 2891 2217 2550 
Q 1925 2209 1428 2209 
Q 931 2209 642 2551 
Q 353 2894 353 3481 
Q 353 4063 643 4406 
Q 934 4750 1428 4750 
z
" transform="scale(0.015625)"/>
      </defs>
      <use xlink:href="#DejaVuSans-59"/>
      <use xlink:href="#DejaVuSans-69" transform="translate(57.458984 0)"/>
      <use xlink:href="#DejaVuSans-65" transform="translate(85.242188 0)"/>
      <use xlink:href="#DejaVuSans-6c" transform="translate(146.765625 0)"/>
      <use xlink:href="#DejaVuSans-64" transform="translate(174.548828 0)"/>
      <use xlink:href="#DejaVuSans-2c" transform="translate(238.025391 0)"/>
      <use xlink:href="#DejaVuSans-20" transform="translate(269.8125 0)"/>
      <use xlink:href="#DejaVuSans-25" transform="translate(301.599609 0)"/>
     </g>
    </g>
   </g>
   <g id="line2d_21">
    <path d="M 70.577054 202.586244 
L 73.2701 213.042221 
L 75.963145 222.70963 
L 78.656191 231.636038 
L 81.349237 239.866327 
L 84.042282 247.442836 
L 86.735328 254.405505 
L 89.428374 260.792005 
L 92.121419 266.637863 
L 94.814465 271.976583 
L 97.507511 276.839753 
L 100.200556 281.257153 
L 102.893602 285.256857 
L 105.586648 288.865324 
L 108.279693 292.107488 
L 110.972739 295.006847 
L 113.665785 297.585535 
L 116.35883 299.864405 
L 119.051876 301.863097 
L 121.744922 303.600105 
L 124.437967 305.092841 
L 127.131013 306.357699 
L 129.824058 307.410107 
L 132.517104 308.264584 
L 135.21015 308.93479 
L 137.903195 309.433575 
L 140.596241 309.773024 
L 143.289287 309.964499 
L 145.982332 310.018683 
L 148.675378 309.945614 
L 154.061469 309.454879 
L 159.447561 308.561085 
L 164.833652 307.32487 
L 170.219743 305.799623 
L 175.605834 304.032286 
L 180.991926 302.064077 
L 189.071063 298.812927 
L 197.1502 295.293531 
L 207.922382 290.327165 
L 226.773702 281.294847 
L 248.318067 271.027014 
L 261.783295 264.846919 
L 275.248523 258.930132 
L 286.020706 254.410591 
L 296.792889 250.091462 
L 307.565071 245.976072 
L 318.337254 242.06355 
L 329.109436 238.350001 
L 339.881619 234.82941 
L 353.346847 230.688588 
L 366.812075 226.821171 
L 380.277304 223.209716 
L 393.742532 219.83655 
L 407.20776 216.684314 
L 420.672988 213.73632 
L 436.831262 210.446142 
L 452.989536 207.401972 
L 469.14781 204.580595 
L 487.99913 201.542606 
L 506.850449 198.749411 
L 525.701769 196.174654 
L 547.246134 193.469958 
L 568.790499 190.990294 
L 593.02791 188.437507 
L 606.493138 187.116389 
L 606.493138 187.116389 
" clip-path="url(#p342794cf0c)" style="fill: none; stroke: #1f77b4; stroke-width: 1.5; stroke-linecap: square"/>
   </g>
   <g id="LineCollection_1">
    <path d="M 72.453689 209.957985 
L 72.453689 251.962944 
" clip-path="url(#p342794cf0c)" style="fill: none; stroke: #1f77b4; stroke-opacity: 0.6; stroke-width: 0.7"/>
   </g>
   <g id="LineCollection_2">
    <path d="M 76.494616 224.528483 
L 76.494616 37.254489 
" clip-path="url(#p342794cf0c)" style="fill: none; stroke: #1f77b4; stroke-opacity: 0.6; stroke-width: 0.7"/>
   </g>
   <g id="LineCollection_3">
    <path d="M 109.027511 292.946006 
L 109.027511 335.981761 
" clip-path="url(#p342794cf0c)" style="fill: none; stroke: #1f77b4; stroke-opacity: 0.6; stroke-width: 0.7"/>
   </g>
   <g id="LineCollection_4">
    <path d="M 116.150503 299.698361 
L 116.150503 238.228181 
" clip-path="url(#p342794cf0c)" style="fill: none; stroke: #1f77b4; stroke-opacity: 0.6; stroke-width: 0.7"/>
   </g>
   <g id="LineCollection_5">
    <path d="M 187.037968 299.660039 
L 187.037968 304.880362 
" clip-path="url(#p342794cf0c)" style="fill: none; stroke: #1f77b4; stroke-opacity: 0.6; stroke-width: 0.7"/>
   </g>
   <g id="LineCollection_6">
    <path d="M 262.445793 264.549271 
L 262.445793 281.660841 
" clip-path="url(#p342794cf0c)" style="fill: none; stroke: #1f77b4; stroke-opacity: 0.6; stroke-width: 0.7"/>
   </g>
   <g id="LineCollection_7">
    <path d="M 265.185405 263.325355 
L 265.185405 252.13332 
" clip-path="url(#p342794cf0c)" style="fill: none; stroke: #1f77b4; stroke-opacity: 0.6; stroke-width: 0.7"/>
   </g>
   <g id="LineCollection_8">
    <path d="M 375.660266 224.420299 
L 375.660266 208.593969 
" clip-path="url(#p342794cf0c)" style="fill: none; stroke: #1f77b4; stroke-opacity: 0.6; stroke-width: 0.7"/>
   </g>
   <g id="LineCollection_9">
    <path d="M 398.604518 218.673756 
L 398.604518 211.980933 
" clip-path="url(#p342794cf0c)" style="fill: none; stroke: #1f77b4; stroke-opacity: 0.6; stroke-width: 0.7"/>
   </g>
   <g id="LineCollection_10">
    <path d="M 419.562551 213.972093 
L 419.562551 226.435223 
" clip-path="url(#p342794cf0c)" style="fill: none; stroke: #1f77b4; stroke-opacity: 0.6; stroke-width: 0.7"/>
   </g>
   <g id="LineCollection_11">
    <path d="M 557.091082 192.310579 
L 557.091082 199.221186 
" clip-path="url(#p342794cf0c)" style="fill: none; stroke: #1f77b4; stroke-opacity: 0.6; stroke-width: 0.7"/>
   </g>
   <g id="patch_3">
    <path d="M 43.78125 350.918125 
L 43.78125 22.318125 
" style="fill: none; stroke: #000000; stroke-width: 0.8; stroke-linejoin: miter; stroke-linecap: square"/>
   </g>
   <g id="patch_4">
    <path d="M 43.78125 350.918125 
L 633.288942 350.918125 
" style="fill: none; stroke: #000000; stroke-width: 0.8; stroke-linejoin: miter; stroke-linecap: square"/>
   </g>
   <g id="text_13">
    <!-- 5.0 Pilot Example Issuer Curve: issuer 33695, week 2024-11-15 -->
    <g transform="translate(147.653534 16.318125) scale(0.12 -0.12)">
     <defs>
      <path id="DejaVuSans-50" d="M 1259 4147 
L 1259 2394 
L 2053 2394 
Q 2494 2394 2734 2622 
Q 2975 2850 2975 3272 
Q 2975 3691 2734 3919 
Q 2494 4147 2053 4147 
L 1259 4147 
z
M 628 4666 
L 2053 4666 
Q 2838 4666 3239 4311 
Q 3641 3956 3641 3272 
Q 3641 2581 3239 2228 
Q 2838 1875 2053 1875 
L 1259 1875 
L 1259 0 
L 628 0 
L 628 4666 
z
" transform="scale(0.015625)"/>
      <path id="DejaVuSans-6f" d="M 1959 3097 
Q 1497 3097 1228 2736 
Q 959 2375 959 1747 
Q 959 1119 1226 758 
Q 1494 397 1959 397 
Q 2419 397 2687 759 
Q 2956 1122 2956 1747 
Q 2956 2369 2687 2733 
Q 2419 3097 1959 3097 
z
M 1959 3584 
Q 2709 3584 3137 3096 
Q 3566 2609 3566 1747 
Q 3566 888 3137 398 
Q 2709 -91 1959 -91 
Q 1206 -91 779 398 
Q 353 888 353 1747 
Q 353 2609 779 3096 
Q 1206 3584 1959 3584 
z
" transform="scale(0.015625)"/>
      <path id="DejaVuSans-45" d="M 628 4666 
L 3578 4666 
L 3578 4134 
L 1259 4134 
L 1259 2753 
L 3481 2753 
L 3481 2222 
L 1259 2222 
L 1259 531 
L 3634 531 
L 3634 0 
L 628 0 
L 628 4666 
z
" transform="scale(0.015625)"/>
      <path id="DejaVuSans-78" d="M 3513 3500 
L 2247 1797 
L 3578 0 
L 2900 0 
L 1881 1375 
L 863 0 
L 184 0 
L 1544 1831 
L 300 3500 
L 978 3500 
L 1906 2253 
L 2834 3500 
L 3513 3500 
z
" transform="scale(0.015625)"/>
      <path id="DejaVuSans-70" d="M 1159 525 
L 1159 -1331 
L 581 -1331 
L 581 3500 
L 1159 3500 
L 1159 2969 
Q 1341 3281 1617 3432 
Q 1894 3584 2278 3584 
Q 2916 3584 3314 3078 
Q 3713 2572 3713 1747 
Q 3713 922 3314 415 
Q 2916 -91 2278 -91 
Q 1894 -91 1617 61 
Q 1341 213 1159 525 
z
M 3116 1747 
Q 3116 2381 2855 2742 
Q 2594 3103 2138 3103 
Q 1681 3103 1420 2742 
Q 1159 2381 1159 1747 
Q 1159 1113 1420 752 
Q 1681 391 2138 391 
Q 2594 391 2855 752 
Q 3116 1113 3116 1747 
z
" transform="scale(0.015625)"/>
      <path id="DejaVuSans-49" d="M 628 4666 
L 1259 4666 
L 1259 0 
L 628 0 
L 628 4666 
z
" transform="scale(0.015625)"/>
      <path id="DejaVuSans-43" d="M 4122 4306 
L 4122 3641 
Q 3803 3938 3442 4084 
Q 3081 4231 2675 4231 
Q 1875 4231 1450 3742 
Q 1025 3253 1025 2328 
Q 1025 1406 1450 917 
Q 1875 428 2675 428 
Q 3081 428 3442 575 
Q 3803 722 4122 1019 
L 4122 359 
Q 3791 134 3420 21 
Q 3050 -91 2638 -91 
Q 1578 -91 968 557 
Q 359 1206 359 2328 
Q 359 3453 968 4101 
Q 1578 4750 2638 4750 
Q 3056 4750 3426 4639 
Q 3797 4528 4122 4306 
z
" transform="scale(0.015625)"/>
      <path id="DejaVuSans-76" d="M 191 3500 
L 800 3500 
L 1894 563 
L 2988 3500 
L 3597 3500 
L 2284 0 
L 1503 0 
L 191 3500 
z
" transform="scale(0.015625)"/>
      <path id="DejaVuSans-3a" d="M 750 794 
L 1409 794 
L 1409 0 
L 750 0 
L 750 794 
z
M 750 3309 
L 1409 3309 
L 1409 2516 
L 750 2516 
L 750 3309 
z
" transform="scale(0.015625)"/>
      <path id="DejaVuSans-33" d="M 2597 2516 
Q 3050 2419 3304 2112 
Q 3559 1806 3559 1356 
Q 3559 666 3084 287 
Q 2609 -91 1734 -91 
Q 1441 -91 1130 -33 
Q 819 25 488 141 
L 488 750 
Q 750 597 1062 519 
Q 1375 441 1716 441 
Q 2309 441 2620 675 
Q 2931 909 2931 1356 
Q 2931 1769 2642 2001 
Q 2353 2234 1838 2234 
L 1294 2234 
L 1294 2753 
L 1863 2753 
Q 2328 2753 2575 2939 
Q 2822 3125 2822 3475 
Q 2822 3834 2567 4026 
Q 2313 4219 1838 4219 
Q 1578 4219 1281 4162 
Q 984 4106 628 3988 
L 628 4550 
Q 988 4650 1302 4700 
Q 1616 4750 1894 4750 
Q 2613 4750 3031 4423 
Q 3450 4097 3450 3541 
Q 3450 3153 3228 2886 
Q 3006 2619 2597 2516 
z
" transform="scale(0.015625)"/>
      <path id="DejaVuSans-39" d="M 703 97 
L 703 672 
Q 941 559 1184 500 
Q 1428 441 1663 441 
Q 2288 441 2617 861 
Q 2947 1281 2994 2138 
Q 2813 1869 2534 1725 
Q 2256 1581 1919 1581 
Q 1219 1581 811 2004 
Q 403 2428 403 3163 
Q 403 3881 828 4315 
Q 1253 4750 1959 4750 
Q 2769 4750 3195 4129 
Q 3622 3509 3622 2328 
Q 3622 1225 3098 567 
Q 2575 -91 1691 -91 
Q 1453 -91 1209 -44 
Q 966 3 703 97 
z
M 1959 2075 
Q 2384 2075 2632 2365 
Q 2881 2656 2881 3163 
Q 2881 3666 2632 3958 
Q 2384 4250 1959 4250 
Q 1534 4250 1286 3958 
Q 1038 3666 1038 3163 
Q 1038 2656 1286 2365 
Q 1534 2075 1959 2075 
z
" transform="scale(0.015625)"/>
      <path id="DejaVuSans-77" d="M 269 3500 
L 844 3500 
L 1563 769 
L 2278 3500 
L 2956 3500 
L 3675 769 
L 4391 3500 
L 4966 3500 
L 4050 0 
L 3372 0 
L 2619 2869 
L 1863 0 
L 1184 0 
L 269 3500 
z
" transform="scale(0.015625)"/>
      <path id="DejaVuSans-6b" d="M 581 4863 
L 1159 4863 
L 1159 1991 
L 2875 3500 
L 3609 3500 
L 1753 1863 
L 3688 0 
L 2938 0 
L 1159 1709 
L 1159 0 
L 581 0 
L 581 4863 
z
" transform="scale(0.015625)"/>
      <path id="DejaVuSans-2d" d="M 313 2009 
L 1997 2009 
L 1997 1497 
L 313 1497 
L 313 2009 
z
" transform="scale(0.015625)"/>
     </defs>
     <use xlink:href="#DejaVuSans-35"/>
     <use xlink:href="#DejaVuSans-2e" transform="translate(63.623047 0)"/>
     <use xlink:href="#DejaVuSans-30" transform="translate(95.410156 0)"/>
     <use xlink:href="#DejaVuSans-20" transform="translate(159.033203 0)"/>
     <use xlink:href="#DejaVuSans-50" transform="translate(190.820312 0)"/>
     <use xlink:href="#DejaVuSans-69" transform="translate(248.873047 0)"/>
     <use xlink:href="#DejaVuSans-6c" transform="translate(276.65625 0)"/>
     <use xlink:href="#DejaVuSans-6f" transform="translate(304.439453 0)"/>
     <use xlink:href="#DejaVuSans-74" transform="translate(365.621094 0)"/>
     <use xlink:href="#DejaVuSans-20" transform="translate(404.830078 0)"/>
     <use xlink:href="#DejaVuSans-45" transform="translate(436.617188 0)"/>
     <use xlink:href="#DejaVuSans-78" transform="translate(499.800781 0)"/>
     <use xlink:href="#DejaVuSans-61" transform="translate(558.980469 0)"/>
     <use xlink:href="#DejaVuSans-6d" transform="translate(620.259766 0)"/>
     <use xlink:href="#DejaVuSans-70" transform="translate(717.671875 0)"/>
     <use xlink:href="#DejaVuSans-6c" transform="translate(781.148438 0)"/>
     <use xlink:href="#DejaVuSans-65" transform="translate(808.931641 0)"/>
     <use xlink:href="#DejaVuSans-20" transform="translate(870.455078 0)"/>
     <use xlink:href="#DejaVuSans-49" transform="translate(902.242188 0)"/>
     <use xlink:href="#DejaVuSans-73" transform="translate(931.734375 0)"/>
     <use xlink:href="#DejaVuSans-73" transform="translate(983.833984 0)"/>
     <use xlink:href="#DejaVuSans-75" transform="translate(1035.933594 0)"/>
     <use xlink:href="#DejaVuSans-65" transform="translate(1099.3125 0)"/>
     <use xlink:href="#DejaVuSans-72" transform="translate(1160.835938 0)"/>
     <use xlink:href="#DejaVuSans-20" transform="translate(1201.949219 0)"/>
     <use xlink:href="#DejaVuSans-43" transform="translate(1233.736328 0)"/>
     <use xlink:href="#DejaVuSans-75" transform="translate(1303.560547 0)"/>
     <use xlink:href="#DejaVuSans-72" transform="translate(1366.939453 0)"/>
     <use xlink:href="#DejaVuSans-76" transform="translate(1408.052734 0)"/>
     <use xlink:href="#DejaVuSans-65" transform="translate(1467.232422 0)"/>
     <use xlink:href="#DejaVuSans-3a" transform="translate(1528.755859 0)"/>
     <use xlink:href="#DejaVuSans-20" transform="translate(1562.447266 0)"/>
     <use xlink:href="#DejaVuSans-69" transform="translate(1594.234375 0)"/>
     <use xlink:href="#DejaVuSans-73" transform="translate(1622.017578 0)"/>
     <use xlink:href="#DejaVuSans-73" transform="translate(1674.117188 0)"/>
     <use xlink:href="#DejaVuSans-75" transform="translate(1726.216797 0)"/>
     <use xlink:href="#DejaVuSans-65" transform="translate(1789.595703 0)"/>
     <use xlink:href="#DejaVuSans-72" transform="translate(1851.119141 0)"/>
     <use xlink:href="#DejaVuSans-20" transform="translate(1892.232422 0)"/>
     <use xlink:href="#DejaVuSans-33" transform="translate(1924.019531 0)"/>
     <use xlink:href="#DejaVuSans-33" transform="translate(1987.642578 0)"/>
     <use xlink:href="#DejaVuSans-36" transform="translate(2051.265625 0)"/>
     <use xlink:href="#DejaVuSans-39" transform="translate(2114.888672 0)"/>
     <use xlink:href="#DejaVuSans-35" transform="translate(2178.511719 0)"/>
     <use xlink:href="#DejaVuSans-2c" transform="translate(2242.134766 0)"/>
     <use xlink:href="#DejaVuSans-20" transform="translate(2273.921875 0)"/>
     <use xlink:href="#DejaVuSans-77" transform="translate(2305.708984 0)"/>
     <use xlink:href="#DejaVuSans-65" transform="translate(2387.496094 0)"/>
     <use xlink:href="#DejaVuSans-65" transform="translate(2449.019531 0)"/>
     <use xlink:href="#DejaVuSans-6b" transform="translate(2510.542969 0)"/>
     <use xlink:href="#DejaVuSans-20" transform="translate(2568.453125 0)"/>
     <use xlink:href="#DejaVuSans-32" transform="translate(2600.240234 0)"/>
     <use xlink:href="#DejaVuSans-30" transform="translate(2663.863281 0)"/>
     <use xlink:href="#DejaVuSans-32" transform="translate(2727.486328 0)"/>
     <use xlink:href="#DejaVuSans-34" transform="translate(2791.109375 0)"/>
     <use xlink:href="#DejaVuSans-2d" transform="translate(2854.732422 0)"/>
     <use xlink:href="#DejaVuSans-31" transform="translate(2890.816406 0)"/>
     <use xlink:href="#DejaVuSans-31" transform="translate(2954.439453 0)"/>
     <use xlink:href="#DejaVuSans-2d" transform="translate(3018.0625 0)"/>
     <use xlink:href="#DejaVuSans-31" transform="translate(3054.146484 0)"/>
     <use xlink:href="#DejaVuSans-35" transform="translate(3117.769531 0)"/>
    </g>
   </g>
   <g id="legend_1">
    <g id="patch_5">
     <path d="M 430.545192 59.674375 
L 626.288942 59.674375 
Q 628.288942 59.674375 628.288942 57.674375 
L 628.288942 29.318125 
Q 628.288942 27.318125 626.288942 27.318125 
L 430.545192 27.318125 
Q 428.545192 27.318125 428.545192 29.318125 
L 428.545192 57.674375 
Q 428.545192 59.674375 430.545192 59.674375 
z
" style="fill: #ffffff; opacity: 0.8; stroke: #cccccc; stroke-linejoin: miter"/>
    </g>
    <g id="line2d_22">
     <path d="M 432.545192 35.416562 
L 442.545192 35.416562 
L 452.545192 35.416562 
" style="fill: none; stroke: #1f77b4; stroke-width: 1.5; stroke-linecap: square"/>
    </g>
    <g id="text_14">
     <!-- Fitted Nelson-Siegel issuer curve -->
     <g transform="translate(460.545192 38.916562) scale(0.1 -0.1)">
      <defs>
       <path id="DejaVuSans-46" d="M 628 4666 
L 3309 4666 
L 3309 4134 
L 1259 4134 
L 1259 2759 
L 3109 2759 
L 3109 2228 
L 1259 2228 
L 1259 0 
L 628 0 
L 628 4666 
z
" transform="scale(0.015625)"/>
       <path id="DejaVuSans-4e" d="M 628 4666 
L 1478 4666 
L 3547 763 
L 3547 4666 
L 4159 4666 
L 4159 0 
L 3309 0 
L 1241 3903 
L 1241 0 
L 628 0 
L 628 4666 
z
" transform="scale(0.015625)"/>
       <path id="DejaVuSans-6e" d="M 3513 2113 
L 3513 0 
L 2938 0 
L 2938 2094 
Q 2938 2591 2744 2837 
Q 2550 3084 2163 3084 
Q 1697 3084 1428 2787 
Q 1159 2491 1159 1978 
L 1159 0 
L 581 0 
L 581 3500 
L 1159 3500 
L 1159 2956 
Q 1366 3272 1645 3428 
Q 1925 3584 2291 3584 
Q 2894 3584 3203 3211 
Q 3513 2838 3513 2113 
z
" transform="scale(0.015625)"/>
       <path id="DejaVuSans-53" d="M 3425 4513 
L 3425 3897 
Q 3066 4069 2747 4153 
Q 2428 4238 2131 4238 
Q 1616 4238 1336 4038 
Q 1056 3838 1056 3469 
Q 1056 3159 1242 3001 
Q 1428 2844 1947 2747 
L 2328 2669 
Q 3034 2534 3370 2195 
Q 3706 1856 3706 1288 
Q 3706 609 3251 259 
Q 2797 -91 1919 -91 
Q 1588 -91 1214 -16 
Q 841 59 441 206 
L 441 856 
Q 825 641 1194 531 
Q 1563 422 1919 422 
Q 2459 422 2753 634 
Q 3047 847 3047 1241 
Q 3047 1584 2836 1778 
Q 2625 1972 2144 2069 
L 1759 2144 
Q 1053 2284 737 2584 
Q 422 2884 422 3419 
Q 422 4038 858 4394 
Q 1294 4750 2059 4750 
Q 2388 4750 2728 4690 
Q 3069 4631 3425 4513 
z
" transform="scale(0.015625)"/>
       <path id="DejaVuSans-67" d="M 2906 1791 
Q 2906 2416 2648 2759 
Q 2391 3103 1925 3103 
Q 1463 3103 1205 2759 
Q 947 2416 947 1791 
Q 947 1169 1205 825 
Q 1463 481 1925 481 
Q 2391 481 2648 825 
Q 2906 1169 2906 1791 
z
M 3481 434 
Q 3481 -459 3084 -895 
Q 2688 -1331 1869 -1331 
Q 1566 -1331 1297 -1286 
Q 1028 -1241 775 -1147 
L 775 -588 
Q 1028 -725 1275 -790 
Q 1522 -856 1778 -856 
Q 2344 -856 2625 -561 
Q 2906 -266 2906 331 
L 2906 616 
Q 2728 306 2450 153 
Q 2172 0 1784 0 
Q 1141 0 747 490 
Q 353 981 353 1791 
Q 353 2603 747 3093 
Q 1141 3584 1784 3584 
Q 2172 3584 2450 3431 
Q 2728 3278 2906 2969 
L 2906 3500 
L 3481 3500 
L 3481 434 
z
" transform="scale(0.015625)"/>
       <path id="DejaVuSans-63" d="M 3122 3366 
L 3122 2828 
Q 2878 2963 2633 3030 
Q 2388 3097 2138 3097 
Q 1578 3097 1268 2742 
Q 959 2388 959 1747 
Q 959 1106 1268 751 
Q 1578 397 2138 397 
Q 2388 397 2633 464 
Q 2878 531 3122 666 
L 3122 134 
Q 2881 22 2623 -34 
Q 2366 -91 2075 -91 
Q 1284 -91 818 406 
Q 353 903 353 1747 
Q 353 2603 823 3093 
Q 1294 3584 2113 3584 
Q 2378 3584 2631 3529 
Q 2884 3475 3122 3366 
z
" transform="scale(0.015625)"/>
      </defs>
      <use xlink:href="#DejaVuSans-46"/>
      <use xlink:href="#DejaVuSans-69" transform="translate(50.269531 0)"/>
      <use xlink:href="#DejaVuSans-74" transform="translate(78.052734 0)"/>
      <use xlink:href="#DejaVuSans-74" transform="translate(117.261719 0)"/>
      <use xlink:href="#DejaVuSans-65" transform="translate(156.470703 0)"/>
      <use xlink:href="#DejaVuSans-64" transform="translate(217.994141 0)"/>
      <use xlink:href="#DejaVuSans-20" transform="translate(281.470703 0)"/>
      <use xlink:href="#DejaVuSans-4e" transform="translate(313.257812 0)"/>
      <use xlink:href="#DejaVuSans-65" transform="translate(388.0625 0)"/>
      <use xlink:href="#DejaVuSans-6c" transform="translate(449.585938 0)"/>
      <use xlink:href="#DejaVuSans-73" transform="translate(477.369141 0)"/>
      <use xlink:href="#DejaVuSans-6f" transform="translate(529.46875 0)"/>
      <use xlink:href="#DejaVuSans-6e" transform="translate(590.650391 0)"/>
      <use xlink:href="#DejaVuSans-2d" transform="translate(654.029297 0)"/>
      <use xlink:href="#DejaVuSans-53" transform="translate(690.113281 0)"/>
      <use xlink:href="#DejaVuSans-69" transform="translate(753.589844 0)"/>
      <use xlink:href="#DejaVuSans-65" transform="translate(781.373047 0)"/>
      <use xlink:href="#DejaVuSans-67" transform="translate(842.896484 0)"/>
      <use xlink:href="#DejaVuSans-65" transform="translate(906.373047 0)"/>
      <use xlink:href="#DejaVuSans-6c" transform="translate(967.896484 0)"/>
      <use xlink:href="#DejaVuSans-20" transform="translate(995.679688 0)"/>
      <use xlink:href="#DejaVuSans-69" transform="translate(1027.466797 0)"/>
      <use xlink:href="#DejaVuSans-73" transform="translate(1055.25 0)"/>
      <use xlink:href="#DejaVuSans-73" transform="translate(1107.349609 0)"/>
      <use xlink:href="#DejaVuSans-75" transform="translate(1159.449219 0)"/>
      <use xlink:href="#DejaVuSans-65" transform="translate(1222.828125 0)"/>
      <use xlink:href="#DejaVuSans-72" transform="translate(1284.351562 0)"/>
      <use xlink:href="#DejaVuSans-20" transform="translate(1325.464844 0)"/>
      <use xlink:href="#DejaVuSans-63" transform="translate(1357.251953 0)"/>
      <use xlink:href="#DejaVuSans-75" transform="translate(1412.232422 0)"/>
      <use xlink:href="#DejaVuSans-72" transform="translate(1475.611328 0)"/>
      <use xlink:href="#DejaVuSans-76" transform="translate(1516.724609 0)"/>
      <use xlink:href="#DejaVuSans-65" transform="translate(1575.904297 0)"/>
     </g>
    </g>
    <g id="PathCollection_2">
     <defs>
      <path id="mb929a32748" d="M 0 4.19513 
C 1.112562 4.19513 2.179705 3.753105 2.966405 2.966405 
C 3.753105 2.179705 4.19513 1.112562 4.19513 0 
C 4.19513 -1.112562 3.753105 -2.179705 2.966405 -2.966405 
C 2.179705 -3.753105 1.112562 -4.19513 0 -4.19513 
C -1.112562 -4.19513 -2.179705 -3.753105 -2.966405 -2.966405 
C -3.753105 -2.179705 -4.19513 -1.112562 -4.19513 0 
C -4.19513 1.112562 -3.753105 2.179705 -2.966405 2.966405 
C -2.179705 3.753105 -1.112562 4.19513 0 4.19513 
z
" style="stroke: #1f77b4; stroke-opacity: 0.85"/>
     </defs>
     <g>
      <use xlink:href="#mb929a32748" x="442.545192" y="50.969687" style="fill: #1f77b4; fill-opacity: 0.85; stroke: #1f77b4; stroke-opacity: 0.85"/>
     </g>
    </g>
    <g id="text_15">
     <!-- Observed weekly TRACE yield -->
     <g transform="translate(460.545192 53.594687) scale(0.1 -0.1)">
      <defs>
       <path id="DejaVuSans-4f" d="M 2522 4238 
Q 1834 4238 1429 3725 
Q 1025 3213 1025 2328 
Q 1025 1447 1429 934 
Q 1834 422 2522 422 
Q 3209 422 3611 934 
Q 4013 1447 4013 2328 
Q 4013 3213 3611 3725 
Q 3209 4238 2522 4238 
z
M 2522 4750 
Q 3503 4750 4090 4092 
Q 4678 3434 4678 2328 
Q 4678 1225 4090 567 
Q 3503 -91 2522 -91 
Q 1538 -91 948 565 
Q 359 1222 359 2328 
Q 359 3434 948 4092 
Q 1538 4750 2522 4750 
z
" transform="scale(0.015625)"/>
       <path id="DejaVuSans-62" d="M 3116 1747 
Q 3116 2381 2855 2742 
Q 2594 3103 2138 3103 
Q 1681 3103 1420 2742 
Q 1159 2381 1159 1747 
Q 1159 1113 1420 752 
Q 1681 391 2138 391 
Q 2594 391 2855 752 
Q 3116 1113 3116 1747 
z
M 1159 2969 
Q 1341 3281 1617 3432 
Q 1894 3584 2278 3584 
Q 2916 3584 3314 3078 
Q 3713 2572 3713 1747 
Q 3713 922 3314 415 
Q 2916 -91 2278 -91 
Q 1894 -91 1617 61 
Q 1341 213 1159 525 
L 1159 0 
L 581 0 
L 581 4863 
L 1159 4863 
L 1159 2969 
z
" transform="scale(0.015625)"/>
       <path id="DejaVuSans-54" d="M -19 4666 
L 3928 4666 
L 3928 4134 
L 2272 4134 
L 2272 0 
L 1638 0 
L 1638 4134 
L -19 4134 
L -19 4666 
z
" transform="scale(0.015625)"/>
       <path id="DejaVuSans-41" d="M 2188 4044 
L 1331 1722 
L 3047 1722 
L 2188 4044 
z
M 1831 4666 
L 2547 4666 
L 4325 0 
L 3669 0 
L 3244 1197 
L 1141 1197 
L 716 0 
L 50 0 
L 1831 4666 
z
" transform="scale(0.015625)"/>
      </defs>
      <use xlink:href="#DejaVuSans-4f"/>
      <use xlink:href="#DejaVuSans-62" transform="translate(78.710938 0)"/>
      <use xlink:href="#DejaVuSans-73" transform="translate(142.1875 0)"/>
      <use xlink:href="#DejaVuSans-65" transform="translate(194.287109 0)"/>
      <use xlink:href="#DejaVuSans-72" transform="translate(255.810547 0)"/>
      <use xlink:href="#DejaVuSans-76" transform="translate(296.923828 0)"/>
      <use xlink:href="#DejaVuSans-65" transform="translate(356.103516 0)"/>
      <use xlink:href="#DejaVuSans-64" transform="translate(417.626953 0)"/>
      <use xlink:href="#DejaVuSans-20" transform="translate(481.103516 0)"/>
      <use xlink:href="#DejaVuSans-77" transform="translate(512.890625 0)"/>
      <use xlink:href="#DejaVuSans-65" transform="translate(594.677734 0)"/>
      <use xlink:href="#DejaVuSans-65" transform="translate(656.201172 0)"/>
      <use xlink:href="#DejaVuSans-6b" transform="translate(717.724609 0)"/>
      <use xlink:href="#DejaVuSans-6c" transform="translate(775.634766 0)"/>
      <use xlink:href="#DejaVuSans-79" transform="translate(803.417969 0)"/>
      <use xlink:href="#DejaVuSans-20" transform="translate(862.597656 0)"/>
      <use xlink:href="#DejaVuSans-54" transform="translate(894.384766 0)"/>
      <use xlink:href="#DejaVuSans-52" transform="translate(955.46875 0)"/>
      <use xlink:href="#DejaVuSans-41" transform="translate(1020.951172 0)"/>
      <use xlink:href="#DejaVuSans-43" transform="translate(1087.609375 0)"/>
      <use xlink:href="#DejaVuSans-45" transform="translate(1157.433594 0)"/>
      <use xlink:href="#DejaVuSans-20" transform="translate(1220.617188 0)"/>
      <use xlink:href="#DejaVuSans-79" transform="translate(1252.404297 0)"/>
      <use xlink:href="#DejaVuSans-69" transform="translate(1311.583984 0)"/>
      <use xlink:href="#DejaVuSans-65" transform="translate(1339.367188 0)"/>
      <use xlink:href="#DejaVuSans-6c" transform="translate(1400.890625 0)"/>
      <use xlink:href="#DejaVuSans-64" transform="translate(1428.673828 0)"/>
     </g>
    </g>
   </g>
  </g>
 </g>
 <defs>
  <clipPath id="p342794cf0c">
   <rect x="43.78125" y="22.318125" width="589.507692" height="328.6"/>
  </clipPath>
 </defs>
</svg>
