<?xml version="1.0" encoding="utf-8" standalone="no"?>
<!DOCTYPE svg PUBLIC "-//W3C//DTD SVG 1.1//EN"
  "http://www.w3.org/Graphics/SVG/1.1/DTD/svg11.dtd">
<svg xmlns:xlink="http://www.w3.org/1999/xlink" width="654.933437pt" height="329.434375pt" viewBox="0 0 654.933437 329.434375" xmlns="http://www.w3.org/2000/svg" version="1.1">
 <metadata>
  <rdf:RDF xmlns:dc="http://purl.org/dc/elements/1.1/" xmlns:cc="http://creativecommons.org/ns#" xmlns:rdf="http://www.w3.org/1999/02/22-rdf-syntax-ns#">
   <cc:Work>
    <dc:type rdf:resource="http://purl.org/dc/dcmitype/StillImage"/>
    <dc:date>2026-05-28T00:21:15.964030</dc:date>
    <dc:format>image/svg+xml</dc:format>
    <dc:creator>
     <cc:Agent>
      <dc:title>Matplotlib v3.10.9, https://matplotlib.org/</dc:title>
     </cc:Agent>
    </dc:creator>
   </cc:Work>
  </rdf:RDF>
 </metadata>
 <defs>
  <style type="text/css">*{stroke-linejoin: round; stroke-linecap: butt}</style>
 </defs>
 <g id="figure_1">
  <g id="patch_1">
   <path d="M 0 329.434375 
L 654.933437 329.434375 
L 654.933437 0 
L 0 0 
z
" style="fill: #ffffff"/>
  </g>
  <g id="axes_1">
   <g id="patch_2">
    <path d="M 58.523438 291.878125 
L 647.733438 291.878125 
L 647.733438 22.318125 
L 58.523438 22.318125 
z
" style="fill: #ffffff"/>
   </g>
   <g id="patch_3">
    <path d="M 85.30571 174.032089 
L 86.682337 174.032089 
L 86.682337 165.880318 
L 85.30571 165.880318 
z
" clip-path="url(#p81acced36f)" style="fill: #1f77b4"/>
   </g>
   <g id="patch_4">
    <path d="M 87.439482 174.032089 
L 88.816108 174.032089 
L 88.816108 159.046272 
L 87.439482 159.046272 
z
" clip-path="url(#p81acced36f)" style="fill: #1f77b4"/>
   </g>
   <g id="patch_5">
    <path d="M 89.504422 174.032089 
L 90.881048 174.032089 
L 90.881048 157.807282 
L 89.504422 157.807282 
z
" clip-path="url(#p81acced36f)" style="fill: #1f77b4"/>
   </g>
   <g id="patch_6">
    <path d="M 91.638193 174.032089 
L 93.01482 174.032089 
L 93.01482 125.32267 
L 91.638193 125.32267 
z
" clip-path="url(#p81acced36f)" style="fill: #1f77b4"/>
   </g>
   <g id="patch_7">
    <path d="M 93.703133 174.032089 
L 95.07976 174.032089 
L 95.07976 138.581524 
L 93.703133 138.581524 
z
" clip-path="url(#p81acced36f)" style="fill: #1f77b4"/>
   </g>
   <g id="patch_8">
    <path d="M 95.836905 174.032089 
L 97.213531 174.032089 
L 97.213531 165.736756 
L 95.836905 165.736756 
z
" clip-path="url(#p81acced36f)" style="fill: #1f77b4"/>
   </g>
   <g id="patch_9">
    <path d="M 97.970676 174.032089 
L 99.347303 174.032089 
L 99.347303 115.407365 
L 97.970676 115.407365 
z
" clip-path="url(#p81acced36f)" style="fill: #1f77b4"/>
   </g>
   <g id="patch_10">
    <path d="M 100.035616 174.032089 
L 101.412243 174.032089 
L 101.412243 159.6602 
L 100.035616 159.6602 
z
" clip-path="url(#p81acced36f)" style="fill: #1f77b4"/>
   </g>
   <g id="patch_11">
    <path d="M 102.169387 174.032089 
L 103.546014 174.032089 
L 103.546014 169.764407 
L 102.169387 169.764407 
z
" clip-path="url(#p81acced36f)" style="fill: #1f77b4"/>
   </g>
   <g id="patch_12">
    <path d="M 104.234328 174.032089 
L 105.610954 174.032089 
L 105.610954 236.223548 
L 104.234328 236.223548 
z
" clip-path="url(#p81acced36f)" style="fill: #1f77b4"/>
   </g>
   <g id="patch_13">
    <path d="M 106.368099 174.032089 
L 107.744726 174.032089 
L 107.744726 173.504799 
L 106.368099 173.504799 
z
" clip-path="url(#p81acced36f)" style="fill: #1f77b4"/>
   </g>
   <g id="patch_14">
    <path d="M 108.50187 174.032089 
L 109.878497 174.032089 
L 109.878497 151.948431 
L 108.50187 151.948431 
z
" clip-path="url(#p81acced36f)" style="fill: #1f77b4"/>
   </g>
   <g id="patch_15">
    <path d="M 110.429148 174.032089 
L 111.805774 174.032089 
L 111.805774 159.089677 
L 110.429148 159.089677 
z
" clip-path="url(#p81acced36f)" style="fill: #1f77b4"/>
   </g>
   <g id="patch_16">
    <path d="M 112.562919 174.032089 
L 113.939546 174.032089 
L 113.939546 166.62232 
L 112.562919 166.62232 
z
" clip-path="url(#p81acced36f)" style="fill: #1f77b4"/>
   </g>
   <g id="patch_17">
    <path d="M 114.627859 174.032089 
L 116.004486 174.032089 
L 116.004486 170.431098 
L 114.627859 170.431098 
z
" clip-path="url(#p81acced36f)" style="fill: #1f77b4"/>
   </g>
   <g id="patch_18">
    <path d="M 116.761631 174.032089 
L 118.138257 174.032089 
L 118.138257 151.447106 
L 116.761631 151.447106 
z
" clip-path="url(#p81acced36f)" style="fill: #1f77b4"/>
   </g>
   <g id="patch_19">
    <path d="M 118.826571 174.032089 
L 120.203197 174.032089 
L 120.203197 162.012817 
L 118.826571 162.012817 
z
" clip-path="url(#p81acced36f)" style="fill: #1f77b4"/>
   </g>
   <g id="patch_20">
    <path d="M 120.960342 174.032089 
L 122.336969 174.032089 
L 122.336969 166.428164 
L 120.960342 166.428164 
z
" clip-path="url(#p81acced36f)" style="fill: #1f77b4"/>
   </g>
   <g id="patch_21">
    <path d="M 123.094114 174.032089 
L 124.47074 174.032089 
L 124.47074 159.249379 
L 123.094114 159.249379 
z
" clip-path="url(#p81acced36f)" style="fill: #1f77b4"/>
   </g>
   <g id="patch_22">
    <path d="M 125.159054 174.032089 
L 126.53568 174.032089 
L 126.53568 168.831438 
L 125.159054 168.831438 
z
" clip-path="url(#p81acced36f)" style="fill: #1f77b4"/>
   </g>
   <g id="patch_23">
    <path d="M 127.292825 174.032089 
L 128.669452 174.032089 
L 128.669452 158.018776 
L 127.292825 158.018776 
z
" clip-path="url(#p81acced36f)" style="fill: #1f77b4"/>
   </g>
   <g id="patch_24">
    <path d="M 129.357765 174.032089 
L 130.734392 174.032089 
L 130.734392 161.90372 
L 129.357765 161.90372 
z
" clip-path="url(#p81acced36f)" style="fill: #1f77b4"/>
   </g>
   <g id="patch_25">
    <path d="M 131.491536 174.032089 
L 132.868163 174.032089 
L 132.868163 166.706101 
L 131.491536 166.706101 
z
" clip-path="url(#p81acced36f)" style="fill: #1f77b4"/>
   </g>
   <g id="patch_26">
    <path d="M 133.625308 174.032089 
L 135.001935 174.032089 
L 135.001935 148.832163 
L 133.625308 148.832163 
z
" clip-path="url(#p81acced36f)" style="fill: #1f77b4"/>
   </g>
   <g id="patch_27">
    <path d="M 135.552585 174.032089 
L 136.929212 174.032089 
L 136.929212 168.812452 
L 135.552585 168.812452 
z
" clip-path="url(#p81acced36f)" style="fill: #1f77b4"/>
   </g>
   <g id="patch_28">
    <path d="M 137.686357 174.032089 
L 139.062983 174.032089 
L 139.062983 169.41529 
L 137.686357 169.41529 
z
" clip-path="url(#p81acced36f)" style="fill: #1f77b4"/>
   </g>
   <g id="patch_29">
    <path d="M 139.751297 174.032089 
L 141.127923 174.032089 
L 141.127923 165.109352 
L 139.751297 165.109352 
z
" clip-path="url(#p81acced36f)" style="fill: #1f77b4"/>
   </g>
   <g id="patch_30">
    <path d="M 141.885068 174.032089 
L 143.261695 174.032089 
L 143.261695 151.695455 
L 141.885068 151.695455 
z
" clip-path="url(#p81acced36f)" style="fill: #1f77b4"/>
   </g>
   <g id="patch_31">
    <path d="M 143.950008 174.032089 
L 145.326635 174.032089 
L 145.326635 167.690534 
L 143.950008 167.690534 
z
" clip-path="url(#p81acced36f)" style="fill: #1f77b4"/>
   </g>
   <g id="patch_32">
    <path d="M 146.08378 174.032089 
L 147.460406 174.032089 
L 147.460406 152.375536 
L 146.08378 152.375536 
z
" clip-path="url(#p81acced36f)" style="fill: #1f77b4"/>
   </g>
   <g id="patch_33">
    <path d="M 148.217551 174.032089 
L 149.594178 174.032089 
L 149.594178 157.107668 
L 148.217551 157.107668 
z
" clip-path="url(#p81acced36f)" style="fill: #1f77b4"/>
   </g>
   <g id="patch_34">
    <path d="M 150.282491 174.032089 
L 151.659118 174.032089 
L 151.659118 166.056933 
L 150.282491 166.056933 
z
" clip-path="url(#p81acced36f)" style="fill: #1f77b4"/>
   </g>
   <g id="patch_35">
    <path d="M 152.416263 174.032089 
L 153.792889 174.032089 
L 153.792889 160.208607 
L 152.416263 160.208607 
z
" clip-path="url(#p81acced36f)" style="fill: #1f77b4"/>
   </g>
   <g id="patch_36">
    <path d="M 154.481203 174.032089 
L 155.857829 174.032089 
L 155.857829 171.661371 
L 154.481203 171.661371 
z
" clip-path="url(#p81acced36f)" style="fill: #1f77b4"/>
   </g>
   <g id="patch_37">
    <path d="M 156.614974 174.032089 
L 157.991601 174.032089 
L 157.991601 160.69553 
L 156.614974 160.69553 
z
" clip-path="url(#p81acced36f)" style="fill: #1f77b4"/>
   </g>
   <g id="patch_38">
    <path d="M 158.748745 174.032089 
L 160.125372 174.032089 
L 160.125372 153.704015 
L 158.748745 153.704015 
z
" clip-path="url(#p81acced36f)" style="fill: #1f77b4"/>
   </g>
   <g id="patch_39">
    <path d="M 160.676023 174.032089 
L 162.05265 174.032089 
L 162.05265 168.24297 
L 160.676023 168.24297 
z
" clip-path="url(#p81acced36f)" style="fill: #1f77b4"/>
   </g>
   <g id="patch_40">
    <path d="M 162.809794 174.032089 
L 164.186421 174.032089 
L 164.186421 166.367199 
L 162.809794 166.367199 
z
" clip-path="url(#p81acced36f)" style="fill: #1f77b4"/>
   </g>
   <g id="patch_41">
    <path d="M 164.874734 174.032089 
L 166.251361 174.032089 
L 166.251361 154.170548 
L 164.874734 154.170548 
z
" clip-path="url(#p81acced36f)" style="fill: #1f77b4"/>
   </g>
   <g id="patch_42">
    <path d="M 167.008506 174.032089 
L 168.385132 174.032089 
L 168.385132 170.021038 
L 167.008506 170.021038 
z
" clip-path="url(#p81acced36f)" style="fill: #1f77b4"/>
   </g>
   <g id="patch_43">
    <path d="M 169.073446 174.032089 
L 170.450073 174.032089 
L 170.450073 171.712488 
L 169.073446 171.712488 
z
" clip-path="url(#p81acced36f)" style="fill: #1f77b4"/>
   </g>
   <g id="patch_44">
    <path d="M 171.207217 174.032089 
L 172.583844 174.032089 
L 172.583844 163.772614 
L 171.207217 163.772614 
z
" clip-path="url(#p81acced36f)" style="fill: #1f77b4"/>
   </g>
   <g id="patch_45">
    <path d="M 173.340989 174.032089 
L 174.717615 174.032089 
L 174.717615 160.971261 
L 173.340989 160.971261 
z
" clip-path="url(#p81acced36f)" style="fill: #1f77b4"/>
   </g>
   <g id="patch_46">
    <path d="M 175.405929 174.032089 
L 176.782555 174.032089 
L 176.782555 150.332573 
L 175.405929 150.332573 
z
" clip-path="url(#p81acced36f)" style="fill: #1f77b4"/>
   </g>
   <g id="patch_47">
    <path d="M 177.5397 174.032089 
L 178.916327 174.032089 
L 178.916327 144.55728 
L 177.5397 144.55728 
z
" clip-path="url(#p81acced36f)" style="fill: #1f77b4"/>
   </g>
   <g id="patch_48">
    <path d="M 179.60464 174.032089 
L 180.981267 174.032089 
L 180.981267 173.055906 
L 179.60464 173.055906 
z
" clip-path="url(#p81acced36f)" style="fill: #1f77b4"/>
   </g>
   <g id="patch_49">
    <path d="M 181.738412 174.032089 
L 183.115038 174.032089 
L 183.115038 155.481484 
L 181.738412 155.481484 
z
" clip-path="url(#p81acced36f)" style="fill: #1f77b4"/>
   </g>
   <g id="patch_50">
    <path d="M 183.872183 174.032089 
L 185.24881 174.032089 
L 185.24881 137.724951 
L 183.872183 137.724951 
z
" clip-path="url(#p81acced36f)" style="fill: #1f77b4"/>
   </g>
   <g id="patch_51">
    <path d="M 185.868292 174.032089 
L 187.244918 174.032089 
L 187.244918 158.222356 
L 185.868292 158.222356 
z
" clip-path="url(#p81acced36f)" style="fill: #1f77b4"/>
   </g>
   <g id="patch_52">
    <path d="M 188.002063 174.032089 
L 189.37869 174.032089 
L 189.37869 149.924139 
L 188.002063 149.924139 
z
" clip-path="url(#p81acced36f)" style="fill: #1f77b4"/>
   </g>
   <g id="patch_53">
    <path d="M 190.067003 174.032089 
L 191.44363 174.032089 
L 191.44363 147.748128 
L 190.067003 147.748128 
z
" clip-path="url(#p81acced36f)" style="fill: #1f77b4"/>
   </g>
   <g id="patch_54">
    <path d="M 192.200775 174.032089 
L 193.577401 174.032089 
L 193.577401 146.513123 
L 192.200775 146.513123 
z
" clip-path="url(#p81acced36f)" style="fill: #1f77b4"/>
   </g>
   <g id="patch_55">
    <path d="M 194.265715 174.032089 
L 195.642341 174.032089 
L 195.642341 148.223751 
L 194.265715 148.223751 
z
" clip-path="url(#p81acced36f)" style="fill: #1f77b4"/>
   </g>
   <g id="patch_56">
    <path d="M 196.399486 174.032089 
L 197.776113 174.032089 
L 197.776113 136.746211 
L 196.399486 136.746211 
z
" clip-path="url(#p81acced36f)" style="fill: #1f77b4"/>
   </g>
   <g id="patch_57">
    <path d="M 198.533257 174.032089 
L 199.909884 174.032089 
L 199.909884 156.595839 
L 198.533257 156.595839 
z
" clip-path="url(#p81acced36f)" style="fill: #1f77b4"/>
   </g>
   <g id="patch_58">
    <path d="M 200.598198 174.032089 
L 201.974824 174.032089 
L 201.974824 140.615311 
L 200.598198 140.615311 
z
" clip-path="url(#p81acced36f)" style="fill: #1f77b4"/>
   </g>
   <g id="patch_59">
    <path d="M 202.731969 174.032089 
L 204.108596 174.032089 
L 204.108596 119.731007 
L 202.731969 119.731007 
z
" clip-path="url(#p81acced36f)" style="fill: #1f77b4"/>
   </g>
   <g id="patch_60">
    <path d="M 204.796909 174.032089 
L 206.173536 174.032089 
L 206.173536 48.486423 
L 204.796909 48.486423 
z
" clip-path="url(#p81acced36f)" style="fill: #1f77b4"/>
   </g>
   <g id="patch_61">
    <path d="M 206.93068 174.032089 
L 208.307307 174.032089 
L 208.307307 34.570852 
L 206.93068 34.570852 
z
" clip-path="url(#p81acced36f)" style="fill: #1f77b4"/>
   </g>
   <g id="patch_62">
    <path d="M 209.064452 174.032089 
L 210.441079 174.032089 
L 210.441079 83.914337 
L 209.064452 83.914337 
z
" clip-path="url(#p81acced36f)" style="fill: #1f77b4"/>
   </g>
   <g id="patch_63">
    <path d="M 210.991729 174.032089 
L 212.368356 174.032089 
L 212.368356 100.244822 
L 210.991729 100.244822 
z
" clip-path="url(#p81acced36f)" style="fill: #1f77b4"/>
   </g>
   <g id="patch_64">
    <path d="M 213.125501 174.032089 
L 214.502127 174.032089 
L 214.502127 184.879531 
L 213.125501 184.879531 
z
" clip-path="url(#p81acced36f)" style="fill: #1f77b4"/>
   </g>
   <g id="patch_65">
    <path d="M 215.190441 174.032089 
L 216.567067 174.032089 
L 216.567067 55.484794 
L 215.190441 55.484794 
z
" clip-path="url(#p81acced36f)" style="fill: #1f77b4"/>
   </g>
   <g id="patch_66">
    <path d="M 217.324212 174.032089 
L 218.700839 174.032089 
L 218.700839 116.719599 
L 217.324212 116.719599 
z
" clip-path="url(#p81acced36f)" style="fill: #1f77b4"/>
   </g>
   <g id="patch_67">
    <path d="M 219.389152 174.032089 
L 220.765779 174.032089 
L 220.765779 117.525479 
L 219.389152 117.525479 
z
" clip-path="url(#p81acced36f)" style="fill: #1f77b4"/>
   </g>
   <g id="patch_68">
    <path d="M 221.522924 174.032089 
L 222.89955 174.032089 
L 222.89955 139.031082 
L 221.522924 139.031082 
z
" clip-path="url(#p81acced36f)" style="fill: #1f77b4"/>
   </g>
   <g id="patch_69">
    <path d="M 223.656695 174.032089 
L 225.033322 174.032089 
L 225.033322 118.360869 
L 223.656695 118.360869 
z
" clip-path="url(#p81acced36f)" style="fill: #1f77b4"/>
   </g>
   <g id="patch_70">
    <path d="M 225.721635 174.032089 
L 227.098262 174.032089 
L 227.098262 138.099668 
L 225.721635 138.099668 
z
" clip-path="url(#p81acced36f)" style="fill: #1f77b4"/>
   </g>
   <g id="patch_71">
    <path d="M 227.855406 174.032089 
L 229.232033 174.032089 
L 229.232033 157.044445 
L 227.855406 157.044445 
z
" clip-path="url(#p81acced36f)" style="fill: #1f77b4"/>
   </g>
   <g id="patch_72">
    <path d="M 229.920347 174.032089 
L 231.296973 174.032089 
L 231.296973 154.159993 
L 229.920347 154.159993 
z
" clip-path="url(#p81acced36f)" style="fill: #1f77b4"/>
   </g>
   <g id="patch_73">
    <path d="M 232.054118 174.032089 
L 233.430745 174.032089 
L 233.430745 153.237486 
L 232.054118 153.237486 
z
" clip-path="url(#p81acced36f)" style="fill: #1f77b4"/>
   </g>
   <g id="patch_74">
    <path d="M 234.187889 174.032089 
L 235.564516 174.032089 
L 235.564516 162.51466 
L 234.187889 162.51466 
z
" clip-path="url(#p81acced36f)" style="fill: #1f77b4"/>
   </g>
   <g id="patch_75">
    <path d="M 236.115167 174.032089 
L 237.491793 174.032089 
L 237.491793 161.852061 
L 236.115167 161.852061 
z
" clip-path="url(#p81acced36f)" style="fill: #1f77b4"/>
   </g>
   <g id="patch_76">
    <path d="M 238.248938 174.032089 
L 239.625565 174.032089 
L 239.625565 151.268682 
L 238.248938 151.268682 
z
" clip-path="url(#p81acced36f)" style="fill: #1f77b4"/>
   </g>
   <g id="patch_77">
    <path d="M 240.313878 174.032089 
L 241.690505 174.032089 
L 241.690505 164.843153 
L 240.313878 164.843153 
z
" clip-path="url(#p81acced36f)" style="fill: #1f77b4"/>
   </g>
   <g id="patch_78">
    <path d="M 242.44765 174.032089 
L 243.824276 174.032089 
L 243.824276 155.309027 
L 242.44765 155.309027 
z
" clip-path="url(#p81acced36f)" style="fill: #1f77b4"/>
   </g>
   <g id="patch_79">
    <path d="M 244.51259 174.032089 
L 245.889216 174.032089 
L 245.889216 156.454686 
L 244.51259 156.454686 
z
" clip-path="url(#p81acced36f)" style="fill: #1f77b4"/>
   </g>
   <g id="patch_80">
    <path d="M 246.646361 174.032089 
L 248.022988 174.032089 
L 248.022988 279.625398 
L 246.646361 279.625398 
z
" clip-path="url(#p81acced36f)" style="fill: #1f77b4"/>
   </g>
   <g id="patch_81">
    <path d="M 248.780133 174.032089 
L 250.156759 174.032089 
L 250.156759 151.92499 
L 248.780133 151.92499 
z
" clip-path="url(#p81acced36f)" style="fill: #1f77b4"/>
   </g>
   <g id="patch_82">
    <path d="M 250.845073 174.032089 
L 252.221699 174.032089 
L 252.221699 153.657991 
L 250.845073 153.657991 
z
" clip-path="url(#p81acced36f)" style="fill: #1f77b4"/>
   </g>
   <g id="patch_83">
    <path d="M 252.978844 174.032089 
L 254.355471 174.032089 
L 254.355471 165.591144 
L 252.978844 165.591144 
z
" clip-path="url(#p81acced36f)" style="fill: #1f77b4"/>
   </g>
   <g id="patch_84">
    <path d="M 255.043784 174.032089 
L 256.420411 174.032089 
L 256.420411 156.57981 
L 255.043784 156.57981 
z
" clip-path="url(#p81acced36f)" style="fill: #1f77b4"/>
   </g>
   <g id="patch_85">
    <path d="M 257.177556 174.032089 
L 258.554182 174.032089 
L 258.554182 162.737032 
L 257.177556 162.737032 
z
" clip-path="url(#p81acced36f)" style="fill: #1f77b4"/>
   </g>
   <g id="patch_86">
    <path d="M 259.311327 174.032089 
L 260.687954 174.032089 
L 260.687954 154.354011 
L 259.311327 154.354011 
z
" clip-path="url(#p81acced36f)" style="fill: #1f77b4"/>
   </g>
   <g id="patch_87">
    <path d="M 261.238604 174.032089 
L 262.615231 174.032089 
L 262.615231 163.71114 
L 261.238604 163.71114 
z
" clip-path="url(#p81acced36f)" style="fill: #1f77b4"/>
   </g>
   <g id="patch_88">
    <path d="M 263.372376 174.032089 
L 264.749002 174.032089 
L 264.749002 165.065522 
L 263.372376 165.065522 
z
" clip-path="url(#p81acced36f)" style="fill: #1f77b4"/>
   </g>
   <g id="patch_89">
    <path d="M 265.437316 174.032089 
L 266.813943 174.032089 
L 266.813943 177.183623 
L 265.437316 177.183623 
z
" clip-path="url(#p81acced36f)" style="fill: #1f77b4"/>
   </g>
   <g id="patch_90">
    <path d="M 267.571087 174.032089 
L 268.947714 174.032089 
L 268.947714 166.259812 
L 267.571087 166.259812 
z
" clip-path="url(#p81acced36f)" style="fill: #1f77b4"/>
   </g>
   <g id="patch_91">
    <path d="M 269.636027 174.032089 
L 271.012654 174.032089 
L 271.012654 165.498479 
L 269.636027 165.498479 
z
" clip-path="url(#p81acced36f)" style="fill: #1f77b4"/>
   </g>
   <g id="patch_92">
    <path d="M 271.769799 174.032089 
L 273.146425 174.032089 
L 273.146425 179.071526 
L 271.769799 179.071526 
z
" clip-path="url(#p81acced36f)" style="fill: #1f77b4"/>
   </g>
   <g id="patch_93">
    <path d="M 273.90357 174.032089 
L 275.280197 174.032089 
L 275.280197 165.894893 
L 273.90357 165.894893 
z
" clip-path="url(#p81acced36f)" style="fill: #1f77b4"/>
   </g>
   <g id="patch_94">
    <path d="M 275.96851 174.032089 
L 277.345137 174.032089 
L 277.345137 169.183871 
L 275.96851 169.183871 
z
" clip-path="url(#p81acced36f)" style="fill: #1f77b4"/>
   </g>
   <g id="patch_95">
    <path d="M 278.102282 174.032089 
L 279.478908 174.032089 
L 279.478908 145.739564 
L 278.102282 145.739564 
z
" clip-path="url(#p81acced36f)" style="fill: #1f77b4"/>
   </g>
   <g id="patch_96">
    <path d="M 280.167222 174.032089 
L 281.543848 174.032089 
L 281.543848 149.579534 
L 280.167222 149.579534 
z
" clip-path="url(#p81acced36f)" style="fill: #1f77b4"/>
   </g>
   <g id="patch_97">
    <path d="M 282.300993 174.032089 
L 283.67762 174.032089 
L 283.67762 170.149038 
L 282.300993 170.149038 
z
" clip-path="url(#p81acced36f)" style="fill: #1f77b4"/>
   </g>
   <g id="patch_98">
    <path d="M 284.434764 174.032089 
L 285.811391 174.032089 
L 285.811391 146.286834 
L 284.434764 146.286834 
z
" clip-path="url(#p81acced36f)" style="fill: #1f77b4"/>
   </g>
   <g id="patch_99">
    <path d="M 286.430873 174.032089 
L 287.8075 174.032089 
L 287.8075 153.11839 
L 286.430873 153.11839 
z
" clip-path="url(#p81acced36f)" style="fill: #1f77b4"/>
   </g>
   <g id="patch_100">
    <path d="M 288.564645 174.032089 
L 289.941271 174.032089 
L 289.941271 161.39397 
L 288.564645 161.39397 
z
" clip-path="url(#p81acced36f)" style="fill: #1f77b4"/>
   </g>
   <g id="patch_101">
    <path d="M 290.629585 174.032089 
L 292.006211 174.032089 
L 292.006211 157.083701 
L 290.629585 157.083701 
z
" clip-path="url(#p81acced36f)" style="fill: #1f77b4"/>
   </g>
   <g id="patch_102">
    <path d="M 292.763356 174.032089 
L 294.139983 174.032089 
L 294.139983 165.737188 
L 292.763356 165.737188 
z
" clip-path="url(#p81acced36f)" style="fill: #1f77b4"/>
   </g>
   <g id="patch_103">
    <path d="M 294.828296 174.032089 
L 296.204923 174.032089 
L 296.204923 169.075494 
L 294.828296 169.075494 
z
" clip-path="url(#p81acced36f)" style="fill: #1f77b4"/>
   </g>
   <g id="patch_104">
    <path d="M 296.962068 174.032089 
L 298.338694 174.032089 
L 298.338694 172.990897 
L 296.962068 172.990897 
z
" clip-path="url(#p81acced36f)" style="fill: #1f77b4"/>
   </g>
   <g id="patch_105">
    <path d="M 299.095839 174.032089 
L 300.472466 174.032089 
L 300.472466 169.093248 
L 299.095839 169.093248 
z
" clip-path="url(#p81acced36f)" style="fill: #1f77b4"/>
   </g>
   <g id="patch_106">
    <path d="M 301.160779 174.032089 
L 302.537406 174.032089 
L 302.537406 157.393901 
L 301.160779 157.393901 
z
" clip-path="url(#p81acced36f)" style="fill: #1f77b4"/>
   </g>
   <g id="patch_107">
    <path d="M 303.29455 174.032089 
L 304.671177 174.032089 
L 304.671177 157.729922 
L 303.29455 157.729922 
z
" clip-path="url(#p81acced36f)" style="fill: #1f77b4"/>
   </g>
   <g id="patch_108">
    <path d="M 305.359491 174.032089 
L 306.736117 174.032089 
L 306.736117 167.201055 
L 305.359491 167.201055 
z
" clip-path="url(#p81acced36f)" style="fill: #1f77b4"/>
   </g>
   <g id="patch_109">
    <path d="M 307.493262 174.032089 
L 308.869889 174.032089 
L 308.869889 168.401926 
L 307.493262 168.401926 
z
" clip-path="url(#p81acced36f)" style="fill: #1f77b4"/>
   </g>
   <g id="patch_110">
    <path d="M 309.627033 174.032089 
L 311.00366 174.032089 
L 311.00366 145.422176 
L 309.627033 145.422176 
z
" clip-path="url(#p81acced36f)" style="fill: #1f77b4"/>
   </g>
   <g id="patch_111">
    <path d="M 311.554311 174.032089 
L 312.930937 174.032089 
L 312.930937 163.104907 
L 311.554311 163.104907 
z
" clip-path="url(#p81acced36f)" style="fill: #1f77b4"/>
   </g>
   <g id="patch_112">
    <path d="M 313.688082 174.032089 
L 315.064709 174.032089 
L 315.064709 166.495443 
L 313.688082 166.495443 
z
" clip-path="url(#p81acced36f)" style="fill: #1f77b4"/>
   </g>
   <g id="patch_113">
    <path d="M 315.753022 174.032089 
L 317.129649 174.032089 
L 317.129649 152.921622 
L 315.753022 152.921622 
z
" clip-path="url(#p81acced36f)" style="fill: #1f77b4"/>
   </g>
   <g id="patch_114">
    <path d="M 317.886794 174.032089 
L 319.26342 174.032089 
L 319.26342 162.897477 
L 317.886794 162.897477 
z
" clip-path="url(#p81acced36f)" style="fill: #1f77b4"/>
   </g>
   <g id="patch_115">
    <path d="M 319.951734 174.032089 
L 321.32836 174.032089 
L 321.32836 162.637813 
L 319.951734 162.637813 
z
" clip-path="url(#p81acced36f)" style="fill: #1f77b4"/>
   </g>
   <g id="patch_116">
    <path d="M 322.085505 174.032089 
L 323.462132 174.032089 
L 323.462132 156.984588 
L 322.085505 156.984588 
z
" clip-path="url(#p81acced36f)" style="fill: #1f77b4"/>
   </g>
   <g id="patch_117">
    <path d="M 324.219276 174.032089 
L 325.595903 174.032089 
L 325.595903 162.988716 
L 324.219276 162.988716 
z
" clip-path="url(#p81acced36f)" style="fill: #1f77b4"/>
   </g>
   <g id="patch_118">
    <path d="M 326.284217 174.032089 
L 327.660843 174.032089 
L 327.660843 166.240318 
L 326.284217 166.240318 
z
" clip-path="url(#p81acced36f)" style="fill: #1f77b4"/>
   </g>
   <g id="patch_119">
    <path d="M 328.417988 174.032089 
L 329.794615 174.032089 
L 329.794615 165.322489 
L 328.417988 165.322489 
z
" clip-path="url(#p81acced36f)" style="fill: #1f77b4"/>
   </g>
   <g id="patch_120">
    <path d="M 330.482928 174.032089 
L 331.859555 174.032089 
L 331.859555 160.830586 
L 330.482928 160.830586 
z
" clip-path="url(#p81acced36f)" style="fill: #1f77b4"/>
   </g>
   <g id="patch_121">
    <path d="M 332.616699 174.032089 
L 333.993326 174.032089 
L 333.993326 161.016846 
L 332.616699 161.016846 
z
" clip-path="url(#p81acced36f)" style="fill: #1f77b4"/>
   </g>
   <g id="patch_122">
    <path d="M 334.750471 174.032089 
L 336.127098 174.032089 
L 336.127098 162.754403 
L 334.750471 162.754403 
z
" clip-path="url(#p81acced36f)" style="fill: #1f77b4"/>
   </g>
   <g id="patch_123">
    <path d="M 336.677748 174.032089 
L 338.054375 174.032089 
L 338.054375 156.139998 
L 336.677748 156.139998 
z
" clip-path="url(#p81acced36f)" style="fill: #1f77b4"/>
   </g>
   <g id="patch_124">
    <path d="M 338.81152 174.032089 
L 340.188146 174.032089 
L 340.188146 160.315194 
L 338.81152 160.315194 
z
" clip-path="url(#p81acced36f)" style="fill: #1f77b4"/>
   </g>
   <g id="patch_125">
    <path d="M 340.87646 174.032089 
L 342.253086 174.032089 
L 342.253086 164.648629 
L 340.87646 164.648629 
z
" clip-path="url(#p81acced36f)" style="fill: #1f77b4"/>
   </g>
   <g id="patch_126">
    <path d="M 343.010231 174.032089 
L 344.386858 174.032089 
L 344.386858 170.719937 
L 343.010231 170.719937 
z
" clip-path="url(#p81acced36f)" style="fill: #1f77b4"/>
   </g>
   <g id="patch_127">
    <path d="M 345.075171 174.032089 
L 346.451798 174.032089 
L 346.451798 163.76952 
L 345.075171 163.76952 
z
" clip-path="url(#p81acced36f)" style="fill: #1f77b4"/>
   </g>
   <g id="patch_128">
    <path d="M 347.208943 174.032089 
L 348.585569 174.032089 
L 348.585569 169.207531 
L 347.208943 169.207531 
z
" clip-path="url(#p81acced36f)" style="fill: #1f77b4"/>
   </g>
   <g id="patch_129">
    <path d="M 349.342714 174.032089 
L 350.719341 174.032089 
L 350.719341 170.700737 
L 349.342714 170.700737 
z
" clip-path="url(#p81acced36f)" style="fill: #1f77b4"/>
   </g>
   <g id="patch_130">
    <path d="M 351.407654 174.032089 
L 352.784281 174.032089 
L 352.784281 160.530773 
L 351.407654 160.530773 
z
" clip-path="url(#p81acced36f)" style="fill: #1f77b4"/>
   </g>
   <g id="patch_131">
    <path d="M 353.541426 174.032089 
L 354.918052 174.032089 
L 354.918052 164.700936 
L 353.541426 164.700936 
z
" clip-path="url(#p81acced36f)" style="fill: #1f77b4"/>
   </g>
   <g id="patch_132">
    <path d="M 355.606366 174.032089 
L 356.982992 174.032089 
L 356.982992 168.378289 
L 355.606366 168.378289 
z
" clip-path="url(#p81acced36f)" style="fill: #1f77b4"/>
   </g>
   <g id="patch_133">
    <path d="M 357.740137 174.032089 
L 359.116764 174.032089 
L 359.116764 160.981428 
L 357.740137 160.981428 
z
" clip-path="url(#p81acced36f)" style="fill: #1f77b4"/>
   </g>
   <g id="patch_134">
    <path d="M 359.873908 174.032089 
L 361.250535 174.032089 
L 361.250535 170.309758 
L 359.873908 170.309758 
z
" clip-path="url(#p81acced36f)" style="fill: #1f77b4"/>
   </g>
   <g id="patch_135">
    <path d="M 361.801186 174.032089 
L 363.177813 174.032089 
L 363.177813 153.192318 
L 361.801186 153.192318 
z
" clip-path="url(#p81acced36f)" style="fill: #1f77b4"/>
   </g>
   <g id="patch_136">
    <path d="M 363.934957 174.032089 
L 365.311584 174.032089 
L 365.311584 166.188694 
L 363.934957 166.188694 
z
" clip-path="url(#p81acced36f)" style="fill: #1f77b4"/>
   </g>
   <g id="patch_137">
    <path d="M 365.999897 174.032089 
L 367.376524 174.032089 
L 367.376524 164.775474 
L 365.999897 164.775474 
z
" clip-path="url(#p81acced36f)" style="fill: #1f77b4"/>
   </g>
   <g id="patch_138">
    <path d="M 368.133669 174.032089 
L 369.510295 174.032089 
L 369.510295 172.88521 
L 368.133669 172.88521 
z
" clip-path="url(#p81acced36f)" style="fill: #1f77b4"/>
   </g>
   <g id="patch_139">
    <path d="M 370.198609 174.032089 
L 371.575235 174.032089 
L 371.575235 168.214499 
L 370.198609 168.214499 
z
" clip-path="url(#p81acced36f)" style="fill: #1f77b4"/>
   </g>
   <g id="patch_140">
    <path d="M 372.33238 174.032089 
L 373.709007 174.032089 
L 373.709007 163.905748 
L 372.33238 163.905748 
z
" clip-path="url(#p81acced36f)" style="fill: #1f77b4"/>
   </g>
   <g id="patch_141">
    <path d="M 374.466152 174.032089 
L 375.842778 174.032089 
L 375.842778 159.913281 
L 374.466152 159.913281 
z
" clip-path="url(#p81acced36f)" style="fill: #1f77b4"/>
   </g>
   <g id="patch_142">
    <path d="M 376.531092 174.032089 
L 377.907718 174.032089 
L 377.907718 166.331413 
L 376.531092 166.331413 
z
" clip-path="url(#p81acced36f)" style="fill: #1f77b4"/>
   </g>
   <g id="patch_143">
    <path d="M 378.664863 174.032089 
L 380.04149 174.032089 
L 380.04149 163.750505 
L 378.664863 163.750505 
z
" clip-path="url(#p81acced36f)" style="fill: #1f77b4"/>
   </g>
   <g id="patch_144">
    <path d="M 380.729803 174.032089 
L 382.10643 174.032089 
L 382.10643 163.680581 
L 380.729803 163.680581 
z
" clip-path="url(#p81acced36f)" style="fill: #1f77b4"/>
   </g>
   <g id="patch_145">
    <path d="M 382.863575 174.032089 
L 384.240201 174.032089 
L 384.240201 168.997468 
L 382.863575 168.997468 
z
" clip-path="url(#p81acced36f)" style="fill: #1f77b4"/>
   </g>
   <g id="patch_146">
    <path d="M 384.997346 174.032089 
L 386.373973 174.032089 
L 386.373973 165.635411 
L 384.997346 165.635411 
z
" clip-path="url(#p81acced36f)" style="fill: #1f77b4"/>
   </g>
   <g id="patch_147">
    <path d="M 386.993455 174.032089 
L 388.370081 174.032089 
L 388.370081 154.745632 
L 386.993455 154.745632 
z
" clip-path="url(#p81acced36f)" style="fill: #1f77b4"/>
   </g>
   <g id="patch_148">
    <path d="M 389.127226 174.032089 
L 390.503853 174.032089 
L 390.503853 155.124583 
L 389.127226 155.124583 
z
" clip-path="url(#p81acced36f)" style="fill: #1f77b4"/>
   </g>
   <g id="patch_149">
    <path d="M 391.192166 174.032089 
L 392.568793 174.032089 
L 392.568793 165.966635 
L 391.192166 165.966635 
z
" clip-path="url(#p81acced36f)" style="fill: #1f77b4"/>
   </g>
   <g id="patch_150">
    <path d="M 393.325938 174.032089 
L 394.702564 174.032089 
L 394.702564 151.186874 
L 393.325938 151.186874 
z
" clip-path="url(#p81acced36f)" style="fill: #1f77b4"/>
   </g>
   <g id="patch_151">
    <path d="M 395.390878 174.032089 
L 396.767504 174.032089 
L 396.767504 173.435406 
L 395.390878 173.435406 
z
" clip-path="url(#p81acced36f)" style="fill: #1f77b4"/>
   </g>
   <g id="patch_152">
    <path d="M 397.524649 174.032089 
L 398.901276 174.032089 
L 398.901276 162.822563 
L 397.524649 162.822563 
z
" clip-path="url(#p81acced36f)" style="fill: #1f77b4"/>
   </g>
   <g id="patch_153">
    <path d="M 399.65842 174.032089 
L 401.035047 174.032089 
L 401.035047 157.258286 
L 399.65842 157.258286 
z
" clip-path="url(#p81acced36f)" style="fill: #1f77b4"/>
   </g>
   <g id="patch_154">
    <path d="M 401.723361 174.032089 
L 403.099987 174.032089 
L 403.099987 168.840351 
L 401.723361 168.840351 
z
" clip-path="url(#p81acced36f)" style="fill: #1f77b4"/>
   </g>
   <g id="patch_155">
    <path d="M 403.857132 174.032089 
L 405.233759 174.032089 
L 405.233759 156.452191 
L 403.857132 156.452191 
z
" clip-path="url(#p81acced36f)" style="fill: #1f77b4"/>
   </g>
   <g id="patch_156">
    <path d="M 405.922072 174.032089 
L 407.298699 174.032089 
L 407.298699 156.530511 
L 405.922072 156.530511 
z
" clip-path="url(#p81acced36f)" style="fill: #1f77b4"/>
   </g>
   <g id="patch_157">
    <path d="M 408.055843 174.032089 
L 409.43247 174.032089 
L 409.43247 163.796781 
L 408.055843 163.796781 
z
" clip-path="url(#p81acced36f)" style="fill: #1f77b4"/>
   </g>
   <g id="patch_158">
    <path d="M 410.189615 174.032089 
L 411.566242 174.032089 
L 411.566242 151.782377 
L 410.189615 151.782377 
z
" clip-path="url(#p81acced36f)" style="fill: #1f77b4"/>
   </g>
   <g id="patch_159">
    <path d="M 412.116892 174.032089 
L 413.493519 174.032089 
L 413.493519 165.842974 
L 412.116892 165.842974 
z
" clip-path="url(#p81acced36f)" style="fill: #1f77b4"/>
   </g>
   <g id="patch_160">
    <path d="M 414.250664 174.032089 
L 415.62729 174.032089 
L 415.62729 169.017881 
L 414.250664 169.017881 
z
" clip-path="url(#p81acced36f)" style="fill: #1f77b4"/>
   </g>
   <g id="patch_161">
    <path d="M 416.315604 174.032089 
L 417.69223 174.032089 
L 417.69223 166.570709 
L 416.315604 166.570709 
z
" clip-path="url(#p81acced36f)" style="fill: #1f77b4"/>
   </g>
   <g id="patch_162">
    <path d="M 418.449375 174.032089 
L 419.826002 174.032089 
L 419.826002 167.750224 
L 418.449375 167.750224 
z
" clip-path="url(#p81acced36f)" style="fill: #1f77b4"/>
   </g>
   <g id="patch_163">
    <path d="M 420.514315 174.032089 
L 421.890942 174.032089 
L 421.890942 167.121578 
L 420.514315 167.121578 
z
" clip-path="url(#p81acced36f)" style="fill: #1f77b4"/>
   </g>
   <g id="patch_164">
    <path d="M 422.648087 174.032089 
L 424.024713 174.032089 
L 424.024713 168.024117 
L 422.648087 168.024117 
z
" clip-path="url(#p81acced36f)" style="fill: #1f77b4"/>
   </g>
   <g id="patch_165">
    <path d="M 424.781858 174.032089 
L 426.158485 174.032089 
L 426.158485 166.982028 
L 424.781858 166.982028 
z
" clip-path="url(#p81acced36f)" style="fill: #1f77b4"/>
   </g>
   <g id="patch_166">
    <path d="M 426.846798 174.032089 
L 428.223425 174.032089 
L 428.223425 167.359734 
L 426.846798 167.359734 
z
" clip-path="url(#p81acced36f)" style="fill: #1f77b4"/>
   </g>
   <g id="patch_167">
    <path d="M 428.980569 174.032089 
L 430.357196 174.032089 
L 430.357196 164.843673 
L 428.980569 164.843673 
z
" clip-path="url(#p81acced36f)" style="fill: #1f77b4"/>
   </g>
   <g id="patch_168">
    <path d="M 431.04551 174.032089 
L 432.422136 174.032089 
L 432.422136 164.117158 
L 431.04551 164.117158 
z
" clip-path="url(#p81acced36f)" style="fill: #1f77b4"/>
   </g>
   <g id="patch_169">
    <path d="M 433.179281 174.032089 
L 434.555908 174.032089 
L 434.555908 172.590411 
L 433.179281 172.590411 
z
" clip-path="url(#p81acced36f)" style="fill: #1f77b4"/>
   </g>
   <g id="patch_170">
    <path d="M 435.313052 174.032089 
L 436.689679 174.032089 
L 436.689679 157.840398 
L 435.313052 157.840398 
z
" clip-path="url(#p81acced36f)" style="fill: #1f77b4"/>
   </g>
   <g id="patch_171">
    <path d="M 437.24033 174.032089 
L 438.616956 174.032089 
L 438.616956 168.887463 
L 437.24033 168.887463 
z
" clip-path="url(#p81acced36f)" style="fill: #1f77b4"/>
   </g>
   <g id="patch_172">
    <path d="M 439.374101 174.032089 
L 440.750728 174.032089 
L 440.750728 169.083116 
L 439.374101 169.083116 
z
" clip-path="url(#p81acced36f)" style="fill: #1f77b4"/>
   </g>
   <g id="patch_173">
    <path d="M 441.439041 174.032089 
L 442.815668 174.032089 
L 442.815668 166.643062 
L 441.439041 166.643062 
z
" clip-path="url(#p81acced36f)" style="fill: #1f77b4"/>
   </g>
   <g id="patch_174">
    <path d="M 443.572813 174.032089 
L 444.949439 174.032089 
L 444.949439 164.290336 
L 443.572813 164.290336 
z
" clip-path="url(#p81acced36f)" style="fill: #1f77b4"/>
   </g>
   <g id="patch_175">
    <path d="M 445.637753 174.032089 
L 447.014379 174.032089 
L 447.014379 171.751083 
L 445.637753 171.751083 
z
" clip-path="url(#p81acced36f)" style="fill: #1f77b4"/>
   </g>
   <g id="patch_176">
    <path d="M 447.771524 174.032089 
L 449.148151 174.032089 
L 449.148151 162.900152 
L 447.771524 162.900152 
z
" clip-path="url(#p81acced36f)" style="fill: #1f77b4"/>
   </g>
   <g id="patch_177">
    <path d="M 449.905296 174.032089 
L 451.281922 174.032089 
L 451.281922 167.584385 
L 449.905296 167.584385 
z
" clip-path="url(#p81acced36f)" style="fill: #1f77b4"/>
   </g>
   <g id="patch_178">
    <path d="M 451.970236 174.032089 
L 453.346862 174.032089 
L 453.346862 161.816202 
L 451.970236 161.816202 
z
" clip-path="url(#p81acced36f)" style="fill: #1f77b4"/>
   </g>
   <g id="patch_179">
    <path d="M 454.104007 174.032089 
L 455.480634 174.032089 
L 455.480634 166.102899 
L 454.104007 166.102899 
z
" clip-path="url(#p81acced36f)" style="fill: #1f77b4"/>
   </g>
   <g id="patch_180">
    <path d="M 456.168947 174.032089 
L 457.545574 174.032089 
L 457.545574 170.026764 
L 456.168947 170.026764 
z
" clip-path="url(#p81acced36f)" style="fill: #1f77b4"/>
   </g>
   <g id="patch_181">
    <path d="M 458.302718 174.032089 
L 459.679345 174.032089 
L 459.679345 165.421024 
L 458.302718 165.421024 
z
" clip-path="url(#p81acced36f)" style="fill: #1f77b4"/>
   </g>
   <g id="patch_182">
    <path d="M 460.43649 174.032089 
L 461.813117 174.032089 
L 461.813117 150.199127 
L 460.43649 150.199127 
z
" clip-path="url(#p81acced36f)" style="fill: #1f77b4"/>
   </g>
   <g id="patch_183">
    <path d="M 462.363767 174.032089 
L 463.740394 174.032089 
L 463.740394 159.330033 
L 462.363767 159.330033 
z
" clip-path="url(#p81acced36f)" style="fill: #1f77b4"/>
   </g>
   <g id="patch_184">
    <path d="M 464.497539 174.032089 
L 465.874165 174.032089 
L 465.874165 169.286845 
L 464.497539 169.286845 
z
" clip-path="url(#p81acced36f)" style="fill: #1f77b4"/>
   </g>
   <g id="patch_185">
    <path d="M 466.562479 174.032089 
L 467.939105 174.032089 
L 467.939105 156.848659 
L 466.562479 156.848659 
z
" clip-path="url(#p81acced36f)" style="fill: #1f77b4"/>
   </g>
   <g id="patch_186">
    <path d="M 468.69625 174.032089 
L 470.072877 174.032089 
L 470.072877 168.45881 
L 468.69625 168.45881 
z
" clip-path="url(#p81acced36f)" style="fill: #1f77b4"/>
   </g>
   <g id="patch_187">
    <path d="M 470.76119 174.032089 
L 472.137817 174.032089 
L 472.137817 166.516481 
L 470.76119 166.516481 
z
" clip-path="url(#p81acced36f)" style="fill: #1f77b4"/>
   </g>
   <g id="patch_188">
    <path d="M 472.894962 174.032089 
L 474.271588 174.032089 
L 474.271588 164.040519 
L 472.894962 164.040519 
z
" clip-path="url(#p81acced36f)" style="fill: #1f77b4"/>
   </g>
   <g id="patch_189">
    <path d="M 475.028733 174.032089 
L 476.40536 174.032089 
L 476.40536 168.665384 
L 475.028733 168.665384 
z
" clip-path="url(#p81acced36f)" style="fill: #1f77b4"/>
   </g>
   <g id="patch_190">
    <path d="M 477.093673 174.032089 
L 478.4703 174.032089 
L 478.4703 159.355985 
L 477.093673 159.355985 
z
" clip-path="url(#p81acced36f)" style="fill: #1f77b4"/>
   </g>
   <g id="patch_191">
    <path d="M 479.227445 174.032089 
L 480.604071 174.032089 
L 480.604071 169.886108 
L 479.227445 169.886108 
z
" clip-path="url(#p81acced36f)" style="fill: #1f77b4"/>
   </g>
   <g id="patch_192">
    <path d="M 481.292385 174.032089 
L 482.669011 174.032089 
L 482.669011 166.097053 
L 481.292385 166.097053 
z
" clip-path="url(#p81acced36f)" style="fill: #1f77b4"/>
   </g>
   <g id="patch_193">
    <path d="M 483.426156 174.032089 
L 484.802783 174.032089 
L 484.802783 164.980653 
L 483.426156 164.980653 
z
" clip-path="url(#p81acced36f)" style="fill: #1f77b4"/>
   </g>
   <g id="patch_194">
    <path d="M 485.559927 174.032089 
L 486.936554 174.032089 
L 486.936554 156.494196 
L 485.559927 156.494196 
z
" clip-path="url(#p81acced36f)" style="fill: #1f77b4"/>
   </g>
   <g id="patch_195">
    <path d="M 487.556036 174.032089 
L 488.932663 174.032089 
L 488.932663 168.439818 
L 487.556036 168.439818 
z
" clip-path="url(#p81acced36f)" style="fill: #1f77b4"/>
   </g>
   <g id="patch_196">
    <path d="M 489.689808 174.032089 
L 491.066434 174.032089 
L 491.066434 152.208721 
L 489.689808 152.208721 
z
" clip-path="url(#p81acced36f)" style="fill: #1f77b4"/>
   </g>
   <g id="patch_197">
    <path d="M 491.754748 174.032089 
L 493.131374 174.032089 
L 493.131374 71.320648 
L 491.754748 71.320648 
z
" clip-path="url(#p81acced36f)" style="fill: #1f77b4"/>
   </g>
   <g id="patch_198">
    <path d="M 493.888519 174.032089 
L 495.265146 174.032089 
L 495.265146 138.172323 
L 493.888519 138.172323 
z
" clip-path="url(#p81acced36f)" style="fill: #1f77b4"/>
   </g>
   <g id="patch_199">
    <path d="M 495.953459 174.032089 
L 497.330086 174.032089 
L 497.330086 140.800509 
L 495.953459 140.800509 
z
" clip-path="url(#p81acced36f)" style="fill: #1f77b4"/>
   </g>
   <g id="patch_200">
    <path d="M 498.087231 174.032089 
L 499.463857 174.032089 
L 499.463857 165.745232 
L 498.087231 165.745232 
z
" clip-path="url(#p81acced36f)" style="fill: #1f77b4"/>
   </g>
   <g id="patch_201">
    <path d="M 500.221002 174.032089 
L 501.597629 174.032089 
L 501.597629 147.579575 
L 500.221002 147.579575 
z
" clip-path="url(#p81acced36f)" style="fill: #1f77b4"/>
   </g>
   <g id="patch_202">
    <path d="M 502.285942 174.032089 
L 503.662569 174.032089 
L 503.662569 154.893548 
L 502.285942 154.893548 
z
" clip-path="url(#p81acced36f)" style="fill: #1f77b4"/>
   </g>
   <g id="patch_203">
    <path d="M 504.419713 174.032089 
L 505.79634 174.032089 
L 505.79634 161.138954 
L 504.419713 161.138954 
z
" clip-path="url(#p81acced36f)" style="fill: #1f77b4"/>
   </g>
   <g id="patch_204">
    <path d="M 506.484653 174.032089 
L 507.86128 174.032089 
L 507.86128 182.731436 
L 506.484653 182.731436 
z
" clip-path="url(#p81acced36f)" style="fill: #1f77b4"/>
   </g>
   <g id="patch_205">
    <path d="M 508.618425 174.032089 
L 509.995052 174.032089 
L 509.995052 159.240066 
L 508.618425 159.240066 
z
" clip-path="url(#p81acced36f)" style="fill: #1f77b4"/>
   </g>
   <g id="patch_206">
    <path d="M 510.752196 174.032089 
L 512.128823 174.032089 
L 512.128823 153.320385 
L 510.752196 153.320385 
z
" clip-path="url(#p81acced36f)" style="fill: #1f77b4"/>
   </g>
   <g id="patch_207">
    <path d="M 512.679474 174.032089 
L 514.0561 174.032089 
L 514.0561 144.426916 
L 512.679474 144.426916 
z
" clip-path="url(#p81acced36f)" style="fill: #1f77b4"/>
   </g>
   <g id="patch_208">
    <path d="M 514.813245 174.032089 
L 516.189872 174.032089 
L 516.189872 161.158781 
L 514.813245 161.158781 
z
" clip-path="url(#p81acced36f)" style="fill: #1f77b4"/>
   </g>
   <g id="patch_209">
    <path d="M 516.878185 174.032089 
L 518.254812 174.032089 
L 518.254812 165.079535 
L 516.878185 165.079535 
z
" clip-path="url(#p81acced36f)" style="fill: #1f77b4"/>
   </g>
   <g id="patch_210">
    <path d="M 519.011957 174.032089 
L 520.388583 174.032089 
L 520.388583 166.836605 
L 519.011957 166.836605 
z
" clip-path="url(#p81acced36f)" style="fill: #1f77b4"/>
   </g>
   <g id="patch_211">
    <path d="M 521.076897 174.032089 
L 522.453523 174.032089 
L 522.453523 164.386726 
L 521.076897 164.386726 
z
" clip-path="url(#p81acced36f)" style="fill: #1f77b4"/>
   </g>
   <g id="patch_212">
    <path d="M 523.210668 174.032089 
L 524.587295 174.032089 
L 524.587295 167.350416 
L 523.210668 167.350416 
z
" clip-path="url(#p81acced36f)" style="fill: #1f77b4"/>
   </g>
   <g id="patch_213">
    <path d="M 525.344439 174.032089 
L 526.721066 174.032089 
L 526.721066 160.791718 
L 525.344439 160.791718 
z
" clip-path="url(#p81acced36f)" style="fill: #1f77b4"/>
   </g>
   <g id="patch_214">
    <path d="M 527.40938 174.032089 
L 528.786006 174.032089 
L 528.786006 160.41316 
L 527.40938 160.41316 
z
" clip-path="url(#p81acced36f)" style="fill: #1f77b4"/>
   </g>
   <g id="patch_215">
    <path d="M 529.543151 174.032089 
L 530.919778 174.032089 
L 530.919778 175.441468 
L 529.543151 175.441468 
z
" clip-path="url(#p81acced36f)" style="fill: #1f77b4"/>
   </g>
   <g id="patch_216">
    <path d="M 531.608091 174.032089 
L 532.984718 174.032089 
L 532.984718 165.952115 
L 531.608091 165.952115 
z
" clip-path="url(#p81acced36f)" style="fill: #1f77b4"/>
   </g>
   <g id="patch_217">
    <path d="M 533.741862 174.032089 
L 535.118489 174.032089 
L 535.118489 168.438383 
L 533.741862 168.438383 
z
" clip-path="url(#p81acced36f)" style="fill: #1f77b4"/>
   </g>
   <g id="patch_218">
    <path d="M 535.875634 174.032089 
L 537.252261 174.032089 
L 537.252261 156.904337 
L 535.875634 156.904337 
z
" clip-path="url(#p81acced36f)" style="fill: #1f77b4"/>
   </g>
   <g id="patch_219">
    <path d="M 537.802911 174.032089 
L 539.179538 174.032089 
L 539.179538 170.796054 
L 537.802911 170.796054 
z
" clip-path="url(#p81acced36f)" style="fill: #1f77b4"/>
   </g>
   <g id="patch_220">
    <path d="M 539.936683 174.032089 
L 541.313309 174.032089 
L 541.313309 168.949036 
L 539.936683 168.949036 
z
" clip-path="url(#p81acced36f)" style="fill: #1f77b4"/>
   </g>
   <g id="patch_221">
    <path d="M 542.001623 174.032089 
L 543.378249 174.032089 
L 543.378249 164.800818 
L 542.001623 164.800818 
z
" clip-path="url(#p81acced36f)" style="fill: #1f77b4"/>
   </g>
   <g id="patch_222">
    <path d="M 544.135394 174.032089 
L 545.512021 174.032089 
L 545.512021 169.788375 
L 544.135394 169.788375 
z
" clip-path="url(#p81acced36f)" style="fill: #1f77b4"/>
   </g>
   <g id="patch_223">
    <path d="M 546.200334 174.032089 
L 547.576961 174.032089 
L 547.576961 169.162228 
L 546.200334 169.162228 
z
" clip-path="url(#p81acced36f)" style="fill: #1f77b4"/>
   </g>
   <g id="patch_224">
    <path d="M 548.334106 174.032089 
L 549.710732 174.032089 
L 549.710732 178.366839 
L 548.334106 178.366839 
z
" clip-path="url(#p81acced36f)" style="fill: #1f77b4"/>
   </g>
   <g id="patch_225">
    <path d="M 550.467877 174.032089 
L 551.844504 174.032089 
L 551.844504 140.573167 
L 550.467877 140.573167 
z
" clip-path="url(#p81acced36f)" style="fill: #1f77b4"/>
   </g>
   <g id="patch_226">
    <path d="M 552.532817 174.032089 
L 553.909444 174.032089 
L 553.909444 162.94656 
L 552.532817 162.94656 
z
" clip-path="url(#p81acced36f)" style="fill: #1f77b4"/>
   </g>
   <g id="patch_227">
    <path d="M 554.666588 174.032089 
L 556.043215 174.032089 
L 556.043215 159.197032 
L 554.666588 159.197032 
z
" clip-path="url(#p81acced36f)" style="fill: #1f77b4"/>
   </g>
   <g id="patch_228">
    <path d="M 556.731529 174.032089 
L 558.108155 174.032089 
L 558.108155 162.448311 
L 556.731529 162.448311 
z
" clip-path="url(#p81acced36f)" style="fill: #1f77b4"/>
   </g>
   <g id="patch_229">
    <path d="M 558.8653 174.032089 
L 560.241927 174.032089 
L 560.241927 151.673063 
L 558.8653 151.673063 
z
" clip-path="url(#p81acced36f)" style="fill: #1f77b4"/>
   </g>
   <g id="patch_230">
    <path d="M 560.999071 174.032089 
L 562.375698 174.032089 
L 562.375698 159.962635 
L 560.999071 159.962635 
z
" clip-path="url(#p81acced36f)" style="fill: #1f77b4"/>
   </g>
   <g id="patch_231">
    <path d="M 562.926349 174.032089 
L 564.302975 174.032089 
L 564.302975 150.538608 
L 562.926349 150.538608 
z
" clip-path="url(#p81acced36f)" style="fill: #1f77b4"/>
   </g>
   <g id="patch_232">
    <path d="M 565.06012 174.032089 
L 566.436747 174.032089 
L 566.436747 175.878668 
L 565.06012 175.878668 
z
" clip-path="url(#p81acced36f)" style="fill: #1f77b4"/>
   </g>
   <g id="patch_233">
    <path d="M 567.12506 174.032089 
L 568.501687 174.032089 
L 568.501687 150.116813 
L 567.12506 150.116813 
z
" clip-path="url(#p81acced36f)" style="fill: #1f77b4"/>
   </g>
   <g id="patch_234">
    <path d="M 569.258832 174.032089 
L 570.635458 174.032089 
L 570.635458 154.106884 
L 569.258832 154.106884 
z
" clip-path="url(#p81acced36f)" style="fill: #1f77b4"/>
   </g>
   <g id="patch_235">
    <path d="M 571.323772 174.032089 
L 572.700398 174.032089 
L 572.700398 166.712461 
L 571.323772 166.712461 
z
" clip-path="url(#p81acced36f)" style="fill: #1f77b4"/>
   </g>
   <g id="patch_236">
    <path d="M 573.457543 174.032089 
L 574.83417 174.032089 
L 574.83417 158.398344 
L 573.457543 158.398344 
z
" clip-path="url(#p81acced36f)" style="fill: #1f77b4"/>
   </g>
   <g id="patch_237">
    <path d="M 575.591315 174.032089 
L 576.967941 174.032089 
L 576.967941 161.408271 
L 575.591315 161.408271 
z
" clip-path="url(#p81acced36f)" style="fill: #1f77b4"/>
   </g>
   <g id="patch_238">
    <path d="M 577.656255 174.032089 
L 579.032881 174.032089 
L 579.032881 158.532045 
L 577.656255 158.532045 
z
" clip-path="url(#p81acced36f)" style="fill: #1f77b4"/>
   </g>
   <g id="patch_239">
    <path d="M 579.790026 174.032089 
L 581.166653 174.032089 
L 581.166653 159.883385 
L 579.790026 159.883385 
z
" clip-path="url(#p81acced36f)" style="fill: #1f77b4"/>
   </g>
   <g id="patch_240">
    <path d="M 581.854966 174.032089 
L 583.231593 174.032089 
L 583.231593 171.630723 
L 581.854966 171.630723 
z
" clip-path="url(#p81acced36f)" style="fill: #1f77b4"/>
   </g>
   <g id="patch_241">
    <path d="M 583.988737 174.032089 
L 585.365364 174.032089 
L 585.365364 165.142832 
L 583.988737 165.142832 
z
" clip-path="url(#p81acced36f)" style="fill: #1f77b4"/>
   </g>
   <g id="patch_242">
    <path d="M 586.122509 174.032089 
L 587.499136 174.032089 
L 587.499136 144.209252 
L 586.122509 144.209252 
z
" clip-path="url(#p81acced36f)" style="fill: #1f77b4"/>
   </g>
   <g id="patch_243">
    <path d="M 588.118618 174.032089 
L 589.495244 174.032089 
L 589.495244 163.252228 
L 588.118618 163.252228 
z
" clip-path="url(#p81acced36f)" style="fill: #1f77b4"/>
   </g>
   <g id="patch_244">
    <path d="M 590.252389 174.032089 
L 591.629016 174.032089 
L 591.629016 171.916487 
L 590.252389 171.916487 
z
" clip-path="url(#p81acced36f)" style="fill: #1f77b4"/>
   </g>
   <g id="patch_245">
    <path d="M 592.317329 174.032089 
L 593.693956 174.032089 
L 593.693956 155.722843 
L 592.317329 155.722843 
z
" clip-path="url(#p81acced36f)" style="fill: #1f77b4"/>
   </g>
   <g id="patch_246">
    <path d="M 594.451101 174.032089 
L 595.827727 174.032089 
L 595.827727 163.787899 
L 594.451101 163.787899 
z
" clip-path="url(#p81acced36f)" style="fill: #1f77b4"/>
   </g>
   <g id="patch_247">
    <path d="M 596.516041 174.032089 
L 597.892667 174.032089 
L 597.892667 157.324781 
L 596.516041 157.324781 
z
" clip-path="url(#p81acced36f)" style="fill: #1f77b4"/>
   </g>
   <g id="patch_248">
    <path d="M 598.649812 174.032089 
L 600.026439 174.032089 
L 600.026439 173.273916 
L 598.649812 173.273916 
z
" clip-path="url(#p81acced36f)" style="fill: #1f77b4"/>
   </g>
   <g id="patch_249">
    <path d="M 600.783583 174.032089 
L 602.16021 174.032089 
L 602.16021 170.150779 
L 600.783583 170.150779 
z
" clip-path="url(#p81acced36f)" style="fill: #1f77b4"/>
   </g>
   <g id="patch_250">
    <path d="M 602.848523 174.032089 
L 604.22515 174.032089 
L 604.22515 161.635617 
L 602.848523 161.635617 
z
" clip-path="url(#p81acced36f)" style="fill: #1f77b4"/>
   </g>
   <g id="patch_251">
    <path d="M 604.982295 174.032089 
L 606.358922 174.032089 
L 606.358922 169.387928 
L 604.982295 169.387928 
z
" clip-path="url(#p81acced36f)" style="fill: #1f77b4"/>
   </g>
   <g id="patch_252">
    <path d="M 607.047235 174.032089 
L 608.423862 174.032089 
L 608.423862 170.854761 
L 607.047235 170.854761 
z
" clip-path="url(#p81acced36f)" style="fill: #1f77b4"/>
   </g>
   <g id="patch_253">
    <path d="M 609.181006 174.032089 
L 610.557633 174.032089 
L 610.557633 160.42636 
L 609.181006 160.42636 
z
" clip-path="url(#p81acced36f)" style="fill: #1f77b4"/>
   </g>
   <g id="patch_254">
    <path d="M 611.314778 174.032089 
L 612.691404 174.032089 
L 612.691404 167.238867 
L 611.314778 167.238867 
z
" clip-path="url(#p81acced36f)" style="fill: #1f77b4"/>
   </g>
   <g id="patch_255">
    <path d="M 613.242055 174.032089 
L 614.618682 174.032089 
L 614.618682 164.665624 
L 613.242055 164.665624 
z
" clip-path="url(#p81acced36f)" style="fill: #1f77b4"/>
   </g>
   <g id="patch_256">
    <path d="M 615.375827 174.032089 
L 616.752453 174.032089 
L 616.752453 163.398999 
L 615.375827 163.398999 
z
" clip-path="url(#p81acced36f)" style="fill: #1f77b4"/>
   </g>
   <g id="patch_257">
    <path d="M 617.440767 174.032089 
L 618.817393 174.032089 
L 618.817393 171.966884 
L 617.440767 171.966884 
z
" clip-path="url(#p81acced36f)" style="fill: #1f77b4"/>
   </g>
   <g id="patch_258">
    <path d="M 619.574538 174.032089 
L 620.951165 174.032089 
L 620.951165 162.690321 
L 619.574538 162.690321 
z
" clip-path="url(#p81acced36f)" style="fill: #1f77b4"/>
   </g>
   <g id="matplotlib.axis_1">
    <g id="xtick_1">
     <g id="line2d_1">
      <defs>
       <path id="m4873f09369" d="M 0 0 
L 0 3.5 
" style="stroke: #000000; stroke-width: 0.8"/>
      </defs>
      <g>
       <use xlink:href="#m4873f09369" x="81.932975" y="291.878125" style="stroke: #000000; stroke-width: 0.8"/>
      </g>
     </g>
     <g id="text_1">
      <!-- 2004 -->
      <g transform="translate(69.207975 306.476562) scale(0.1 -0.1)">
       <defs>
        <path id="DejaVuSans-32" d="M 1228 531 
L 3431 531 
L 3431 0 
L 469 0 
L 469 531 
Q 828 903 1448 1529 
Q 2069 2156 2228 2338 
Q 2531 2678 2651 2914 
Q 2772 3150 2772 3378 
Q 2772 3750 2511 3984 
Q 2250 4219 1831 4219 
Q 1534 4219 1204 4116 
Q 875 4013 500 3803 
L 500 4441 
Q 881 4594 1212 4672 
Q 1544 4750 1819 4750 
Q 2544 4750 2975 4387 
Q 3406 4025 3406 3419 
Q 3406 3131 3298 2873 
Q 3191 2616 2906 2266 
Q 2828 2175 2409 1742 
Q 1991 1309 1228 531 
z
" transform="scale(0.015625)"/>
        <path id="DejaVuSans-30" d="M 2034 4250 
Q 1547 4250 1301 3770 
Q 1056 3291 1056 2328 
Q 1056 1369 1301 889 
Q 1547 409 2034 409 
Q 2525 409 2770 889 
Q 3016 1369 3016 2328 
Q 3016 3291 2770 3770 
Q 2525 4250 2034 4250 
z
M 2034 4750 
Q 2819 4750 3233 4129 
Q 3647 3509 3647 2328 
Q 3647 1150 3233 529 
Q 2819 -91 2034 -91 
Q 1250 -91 836 529 
Q 422 1150 422 2328 
Q 422 3509 836 4129 
Q 1250 4750 2034 4750 
z
" transform="scale(0.015625)"/>
        <path id="DejaVuSans-34" d="M 2419 4116 
L 825 1625 
L 2419 1625 
L 2419 4116 
z
M 2253 4666 
L 3047 4666 
L 3047 1625 
L 3713 1625 
L 3713 1100 
L 3047 1100 
L 3047 0 
L 2419 0 
L 2419 1100 
L 313 1100 
L 313 1709 
L 2253 4666 
z
" transform="scale(0.015625)"/>
       </defs>
       <use xlink:href="#DejaVuSans-32"/>
       <use xlink:href="#DejaVuSans-30" transform="translate(63.623047 0)"/>
       <use xlink:href="#DejaVuSans-30" transform="translate(127.246094 0)"/>
       <use xlink:href="#DejaVuSans-34" transform="translate(190.869141 0)"/>
      </g>
     </g>
    </g>
    <g id="xtick_2">
     <g id="line2d_2">
      <g>
       <use xlink:href="#m4873f09369" x="182.495556" y="291.878125" style="stroke: #000000; stroke-width: 0.8"/>
      </g>
     </g>
     <g id="text_2">
      <!-- 2008 -->
      <g transform="translate(169.770556 306.476562) scale(0.1 -0.1)">
       <defs>
        <path id="DejaVuSans-38" d="M 2034 2216 
Q 1584 2216 1326 1975 
Q 1069 1734 1069 1313 
Q 1069 891 1326 650 
Q 1584 409 2034 409 
Q 2484 409 2743 651 
Q 3003 894 3003 1313 
Q 3003 1734 2745 1975 
Q 2488 2216 2034 2216 
z
M 1403 2484 
Q 997 2584 770 2862 
Q 544 3141 544 3541 
Q 544 4100 942 4425 
Q 1341 4750 2034 4750 
Q 2731 4750 3128 4425 
Q 3525 4100 3525 3541 
Q 3525 3141 3298 2862 
Q 3072 2584 2669 2484 
Q 3125 2378 3379 2068 
Q 3634 1759 3634 1313 
Q 3634 634 3220 271 
Q 2806 -91 2034 -91 
Q 1263 -91 848 271 
Q 434 634 434 1313 
Q 434 1759 690 2068 
Q 947 2378 1403 2484 
z
M 1172 3481 
Q 1172 3119 1398 2916 
Q 1625 2713 2034 2713 
Q 2441 2713 2670 2916 
Q 2900 3119 2900 3481 
Q 2900 3844 2670 4047 
Q 2441 4250 2034 4250 
Q 1625 4250 1398 4047 
Q 1172 3844 1172 3481 
z
" transform="scale(0.015625)"/>
       </defs>
       <use xlink:href="#DejaVuSans-32"/>
       <use xlink:href="#DejaVuSans-30" transform="translate(63.623047 0)"/>
       <use xlink:href="#DejaVuSans-30" transform="translate(127.246094 0)"/>
       <use xlink:href="#DejaVuSans-38" transform="translate(190.869141 0)"/>
      </g>
     </g>
    </g>
    <g id="xtick_3">
     <g id="line2d_3">
      <g>
       <use xlink:href="#m4873f09369" x="283.058138" y="291.878125" style="stroke: #000000; stroke-width: 0.8"/>
      </g>
     </g>
     <g id="text_3">
      <!-- 2012 -->
      <g transform="translate(270.333138 306.476562) scale(0.1 -0.1)">
       <defs>
        <path id="DejaVuSans-31" d="M 794 531 
L 1825 531 
L 1825 4091 
L 703 3866 
L 703 4441 
L 1819 4666 
L 2450 4666 
L 2450 531 
L 3481 531 
L 3481 0 
L 794 0 
L 794 531 
z
" transform="scale(0.015625)"/>
       </defs>
       <use xlink:href="#DejaVuSans-32"/>
       <use xlink:href="#DejaVuSans-30" transform="translate(63.623047 0)"/>
       <use xlink:href="#DejaVuSans-31" transform="translate(127.246094 0)"/>
       <use xlink:href="#DejaVuSans-32" transform="translate(190.869141 0)"/>
      </g>
     </g>
    </g>
    <g id="xtick_4">
     <g id="line2d_4">
      <g>
       <use xlink:href="#m4873f09369" x="383.620719" y="291.878125" style="stroke: #000000; stroke-width: 0.8"/>
      </g>
     </g>
     <g id="text_4">
      <!-- 2016 -->
      <g transform="translate(370.895719 306.476562) scale(0.1 -0.1)">
       <defs>
        <path id="DejaVuSans-36" d="M 2113 2584 
Q 1688 2584 1439 2293 
Q 1191 2003 1191 1497 
Q 1191 994 1439 701 
Q 1688 409 2113 409 
Q 2538 409 2786 701 
Q 3034 994 3034 1497 
Q 3034 2003 2786 2293 
Q 2538 2584 2113 2584 
z
M 3366 4563 
L 3366 3988 
Q 3128 4100 2886 4159 
Q 2644 4219 2406 4219 
Q 1781 4219 1451 3797 
Q 1122 3375 1075 2522 
Q 1259 2794 1537 2939 
Q 1816 3084 2150 3084 
Q 2853 3084 3261 2657 
Q 3669 2231 3669 1497 
Q 3669 778 3244 343 
Q 2819 -91 2113 -91 
Q 1303 -91 875 529 
Q 447 1150 447 2328 
Q 447 3434 972 4092 
Q 1497 4750 2381 4750 
Q 2619 4750 2861 4703 
Q 3103 4656 3366 4563 
z
" transform="scale(0.015625)"/>
       </defs>
       <use xlink:href="#DejaVuSans-32"/>
       <use xlink:href="#DejaVuSans-30" transform="translate(63.623047 0)"/>
       <use xlink:href="#DejaVuSans-31" transform="translate(127.246094 0)"/>
       <use xlink:href="#DejaVuSans-36" transform="translate(190.869141 0)"/>
      </g>
     </g>
    </g>
    <g id="xtick_5">
     <g id="line2d_5">
      <g>
       <use xlink:href="#m4873f09369" x="484.183301" y="291.878125" style="stroke: #000000; stroke-width: 0.8"/>
      </g>
     </g>
     <g id="text_5">
      <!-- 2020 -->
      <g transform="translate(471.458301 306.476562) scale(0.1 -0.1)">
       <use xlink:href="#DejaVuSans-32"/>
       <use xlink:href="#DejaVuSans-30" transform="translate(63.623047 0)"/>
       <use xlink:href="#DejaVuSans-32" transform="translate(127.246094 0)"/>
       <use xlink:href="#DejaVuSans-30" transform="translate(190.869141 0)"/>
      </g>
     </g>
    </g>
    <g id="xtick_6">
     <g id="line2d_6">
      <g>
       <use xlink:href="#m4873f09369" x="584.745882" y="291.878125" style="stroke: #000000; stroke-width: 0.8"/>
      </g>
     </g>
     <g id="text_6">
      <!-- 2024 -->
      <g transform="translate(572.020882 306.476562) scale(0.1 -0.1)">
       <use xlink:href="#DejaVuSans-32"/>
       <use xlink:href="#DejaVuSans-30" transform="translate(63.623047 0)"/>
       <use xlink:href="#DejaVuSans-32" transform="translate(127.246094 0)"/>
       <use xlink:href="#DejaVuSans-34" transform="translate(190.869141 0)"/>
      </g>
     </g>
    </g>
    <g id="text_7">
     <!-- Target month -->
     <g transform="translate(319.840156 320.154687) scale(0.1 -0.1)">
      <defs>
       <path id="DejaVuSans-54" d="M -19 4666 
L 3928 4666 
L 3928 4134 
L 2272 4134 
L 2272 0 
L 1638 0 
L 1638 4134 
L -19 4134 
L -19 4666 
z
" transform="scale(0.015625)"/>
       <path id="DejaVuSans-61" d="M 2194 1759 
Q 1497 1759 1228 1600 
Q 959 1441 959 1056 
Q 959 750 1161 570 
Q 1363 391 1709 391 
Q 2188 391 2477 730 
Q 2766 1069 2766 1631 
L 2766 1759 
L 2194 1759 
z
M 3341 1997 
L 3341 0 
L 2766 0 
L 2766 531 
Q 2569 213 2275 61 
Q 1981 -91 1556 -91 
Q 1019 -91 701 211 
Q 384 513 384 1019 
Q 384 1609 779 1909 
Q 1175 2209 1959 2209 
L 2766 2209 
L 2766 2266 
Q 2766 2663 2505 2880 
Q 2244 3097 1772 3097 
Q 1472 3097 1187 3025 
Q 903 2953 641 2809 
L 641 3341 
Q 956 3463 1253 3523 
Q 1550 3584 1831 3584 
Q 2591 3584 2966 3190 
Q 3341 2797 3341 1997 
z
" transform="scale(0.015625)"/>
       <path id="DejaVuSans-72" d="M 2631 2963 
Q 2534 3019 2420 3045 
Q 2306 3072 2169 3072 
Q 1681 3072 1420 2755 
Q 1159 2438 1159 1844 
L 1159 0 
L 581 0 
L 581 3500 
L 1159 3500 
L 1159 2956 
Q 1341 3275 1631 3429 
Q 1922 3584 2338 3584 
Q 2397 3584 2469 3576 
Q 2541 3569 2628 3553 
L 2631 2963 
z
" transform="scale(0.015625)"/>
       <path id="DejaVuSans-67" d="M 2906 1791 
Q 2906 2416 2648 2759 
Q 2391 3103 1925 3103 
Q 1463 3103 1205 2759 
Q 947 2416 947 1791 
Q 947 1169 1205 825 
Q 1463 481 1925 481 
Q 2391 481 2648 825 
Q 2906 1169 2906 1791 
z
M 3481 434 
Q 3481 -459 3084 -895 
Q 2688 -1331 1869 -1331 
Q 1566 -1331 1297 -1286 
Q 1028 -1241 775 -1147 
L 775 -588 
Q 1028 -725 1275 -790 
Q 1522 -856 1778 -856 
Q 2344 -856 2625 -561 
Q 2906 -266 2906 331 
L 2906 616 
Q 2728 306 2450 153 
Q 2172 0 1784 0 
Q 1141 0 747 490 
Q 353 981 353 1791 
Q 353 2603 747 3093 
Q 1141 3584 1784 3584 
Q 2172 3584 2450 3431 
Q 2728 3278 2906 2969 
L 2906 3500 
L 3481 3500 
L 3481 434 
z
" transform="scale(0.015625)"/>
       <path id="DejaVuSans-65" d="M 3597 1894 
L 3597 1613 
L 953 1613 
Q 991 1019 1311 708 
Q 1631 397 2203 397 
Q 2534 397 2845 478 
Q 3156 559 3463 722 
L 3463 178 
Q 3153 47 2828 -22 
Q 2503 -91 2169 -91 
Q 1331 -91 842 396 
Q 353 884 353 1716 
Q 353 2575 817 3079 
Q 1281 3584 2069 3584 
Q 2775 3584 3186 3129 
Q 3597 2675 3597 1894 
z
M 3022 2063 
Q 3016 2534 2758 2815 
Q 2500 3097 2075 3097 
Q 1594 3097 1305 2825 
Q 1016 2553 972 2059 
L 3022 2063 
z
" transform="scale(0.015625)"/>
       <path id="DejaVuSans-74" d="M 1172 4494 
L 1172 3500 
L 2356 3500 
L 2356 3053 
L 1172 3053 
L 1172 1153 
Q 1172 725 1289 603 
Q 1406 481 1766 481 
L 2356 481 
L 2356 0 
L 1766 0 
Q 1100 0 847 248 
Q 594 497 594 1153 
L 594 3053 
L 172 3053 
L 172 3500 
L 594 3500 
L 594 4494 
L 1172 4494 
z
" transform="scale(0.015625)"/>
       <path id="DejaVuSans-20" transform="scale(0.015625)"/>
       <path id="DejaVuSans-6d" d="M 3328 2828 
Q 3544 3216 3844 3400 
Q 4144 3584 4550 3584 
Q 5097 3584 5394 3201 
Q 5691 2819 5691 2113 
L 5691 0 
L 5113 0 
L 5113 2094 
Q 5113 2597 4934 2840 
Q 4756 3084 4391 3084 
Q 3944 3084 3684 2787 
Q 3425 2491 3425 1978 
L 3425 0 
L 2847 0 
L 2847 2094 
Q 2847 2600 2669 2842 
Q 2491 3084 2119 3084 
Q 1678 3084 1418 2786 
Q 1159 2488 1159 1978 
L 1159 0 
L 581 0 
L 581 3500 
L 1159 3500 
L 1159 2956 
Q 1356 3278 1631 3431 
Q 1906 3584 2284 3584 
Q 2666 3584 2933 3390 
Q 3200 3197 3328 2828 
z
" transform="scale(0.015625)"/>
       <path id="DejaVuSans-6f" d="M 1959 3097 
Q 1497 3097 1228 2736 
Q 959 2375 959 1747 
Q 959 1119 1226 758 
Q 1494 397 1959 397 
Q 2419 397 2687 759 
Q 2956 1122 2956 1747 
Q 2956 2369 2687 2733 
Q 2419 3097 1959 3097 
z
M 1959 3584 
Q 2709 3584 3137 3096 
Q 3566 2609 3566 1747 
Q 3566 888 3137 398 
Q 2709 -91 1959 -91 
Q 1206 -91 779 398 
Q 353 888 353 1747 
Q 353 2609 779 3096 
Q 1206 3584 1959 3584 
z
" transform="scale(0.015625)"/>
       <path id="DejaVuSans-6e" d="M 3513 2113 
L 3513 0 
L 2938 0 
L 2938 2094 
Q 2938 2591 2744 2837 
Q 2550 3084 2163 3084 
Q 1697 3084 1428 2787 
Q 1159 2491 1159 1978 
L 1159 0 
L 581 0 
L 581 3500 
L 1159 3500 
L 1159 2956 
Q 1366 3272 1645 3428 
Q 1925 3584 2291 3584 
Q 2894 3584 3203 3211 
Q 3513 2838 3513 2113 
z
" transform="scale(0.015625)"/>
       <path id="DejaVuSans-68" d="M 3513 2113 
L 3513 0 
L 2938 0 
L 2938 2094 
Q 2938 2591 2744 2837 
Q 2550 3084 2163 3084 
Q 1697 3084 1428 2787 
Q 1159 2491 1159 1978 
L 1159 0 
L 581 0 
L 581 4863 
L 1159 4863 
L 1159 2956 
Q 1366 3272 1645 3428 
Q 1925 3584 2291 3584 
Q 2894 3584 3203 3211 
Q 3513 2838 3513 2113 
z
" transform="scale(0.015625)"/>
      </defs>
      <use xlink:href="#DejaVuSans-54"/>
      <use xlink:href="#DejaVuSans-61" transform="translate(44.583984 0)"/>
      <use xlink:href="#DejaVuSans-72" transform="translate(105.863281 0)"/>
      <use xlink:href="#DejaVuSans-67" transform="translate(145.226562 0)"/>
      <use xlink:href="#DejaVuSans-65" transform="translate(208.703125 0)"/>
      <use xlink:href="#DejaVuSans-74" transform="translate(270.226562 0)"/>
      <use xlink:href="#DejaVuSans-20" transform="translate(309.435547 0)"/>
      <use xlink:href="#DejaVuSans-6d" transform="translate(341.222656 0)"/>
      <use xlink:href="#DejaVuSans-6f" transform="translate(438.634766 0)"/>
      <use xlink:href="#DejaVuSans-6e" transform="translate(499.816406 0)"/>
      <use xlink:href="#DejaVuSans-74" transform="translate(563.195312 0)"/>
      <use xlink:href="#DejaVuSans-68" transform="translate(602.404297 0)"/>
     </g>
    </g>
   </g>
   <g id="matplotlib.axis_2">
    <g id="ytick_1">
     <g id="line2d_7">
      <path d="M 58.523438 281.312418 
L 647.733438 281.312418 
" clip-path="url(#p81acced36f)" style="fill: none; stroke: #b0b0b0; stroke-opacity: 0.25; stroke-width: 0.8; stroke-linecap: square"/>
     </g>
     <g id="line2d_8">
      <defs>
       <path id="m0ad0af0f2d" d="M 0 0 
L -3.5 0 
" style="stroke: #000000; stroke-width: 0.8"/>
      </defs>
      <g>
       <use xlink:href="#m0ad0af0f2d" x="58.523438" y="281.312418" style="stroke: #000000; stroke-width: 0.8"/>
      </g>
     </g>
     <g id="text_8">
      <!-- −0.03 -->
      <g transform="translate(20.878125 285.111637) scale(0.1 -0.1)">
       <defs>
        <path id="DejaVuSans-2212" d="M 678 2272 
L 4684 2272 
L 4684 1741 
L 678 1741 
L 678 2272 
z
" transform="scale(0.015625)"/>
        <path id="DejaVuSans-2e" d="M 684 794 
L 1344 794 
L 1344 0 
L 684 0 
L 684 794 
z
" transform="scale(0.015625)"/>
        <path id="DejaVuSans-33" d="M 2597 2516 
Q 3050 2419 3304 2112 
Q 3559 1806 3559 1356 
Q 3559 666 3084 287 
Q 2609 -91 1734 -91 
Q 1441 -91 1130 -33 
Q 819 25 488 141 
L 488 750 
Q 750 597 1062 519 
Q 1375 441 1716 441 
Q 2309 441 2620 675 
Q 2931 909 2931 1356 
Q 2931 1769 2642 2001 
Q 2353 2234 1838 2234 
L 1294 2234 
L 1294 2753 
L 1863 2753 
Q 2328 2753 2575 2939 
Q 2822 3125 2822 3475 
Q 2822 3834 2567 4026 
Q 2313 4219 1838 4219 
Q 1578 4219 1281 4162 
Q 984 4106 628 3988 
L 628 4550 
Q 988 4650 1302 4700 
Q 1616 4750 1894 4750 
Q 2613 4750 3031 4423 
Q 3450 4097 3450 3541 
Q 3450 3153 3228 2886 
Q 3006 2619 2597 2516 
z
" transform="scale(0.015625)"/>
       </defs>
       <use xlink:href="#DejaVuSans-2212"/>
       <use xlink:href="#DejaVuSans-30" transform="translate(83.789062 0)"/>
       <use xlink:href="#DejaVuSans-2e" transform="translate(147.412109 0)"/>
       <use xlink:href="#DejaVuSans-30" transform="translate(179.199219 0)"/>
       <use xlink:href="#DejaVuSans-33" transform="translate(242.822266 0)"/>
      </g>
     </g>
    </g>
    <g id="ytick_2">
     <g id="line2d_9">
      <path d="M 58.523438 245.552308 
L 647.733438 245.552308 
" clip-path="url(#p81acced36f)" style="fill: none; stroke: #b0b0b0; stroke-opacity: 0.25; stroke-width: 0.8; stroke-linecap: square"/>
     </g>
     <g id="line2d_10">
      <g>
       <use xlink:href="#m0ad0af0f2d" x="58.523438" y="245.552308" style="stroke: #000000; stroke-width: 0.8"/>
      </g>
     </g>
     <g id="text_9">
      <!-- −0.02 -->
      <g transform="translate(20.878125 249.351527) scale(0.1 -0.1)">
       <use xlink:href="#DejaVuSans-2212"/>
       <use xlink:href="#DejaVuSans-30" transform="translate(83.789062 0)"/>
       <use xlink:href="#DejaVuSans-2e" transform="translate(147.412109 0)"/>
       <use xlink:href="#DejaVuSans-30" transform="translate(179.199219 0)"/>
       <use xlink:href="#DejaVuSans-32" transform="translate(242.822266 0)"/>
      </g>
     </g>
    </g>
    <g id="ytick_3">
     <g id="line2d_11">
      <path d="M 58.523438 209.792199 
L 647.733438 209.792199 
" clip-path="url(#p81acced36f)" style="fill: none; stroke: #b0b0b0; stroke-opacity: 0.25; stroke-width: 0.8; stroke-linecap: square"/>
     </g>
     <g id="line2d_12">
      <g>
       <use xlink:href="#m0ad0af0f2d" x="58.523438" y="209.792199" style="stroke: #000000; stroke-width: 0.8"/>
      </g>
     </g>
     <g id="text_10">
      <!-- −0.01 -->
      <g transform="translate(20.878125 213.591417) scale(0.1 -0.1)">
       <use xlink:href="#DejaVuSans-2212"/>
       <use xlink:href="#DejaVuSans-30" transform="translate(83.789062 0)"/>
       <use xlink:href="#DejaVuSans-2e" transform="translate(147.412109 0)"/>
       <use xlink:href="#DejaVuSans-30" transform="translate(179.199219 0)"/>
       <use xlink:href="#DejaVuSans-31" transform="translate(242.822266 0)"/>
      </g>
     </g>
    </g>
    <g id="ytick_4">
     <g id="line2d_13">
      <path d="M 58.523438 174.032089 
L 647.733438 174.032089 
" clip-path="url(#p81acced36f)" style="fill: none; stroke: #b0b0b0; stroke-opacity: 0.25; stroke-width: 0.8; stroke-linecap: square"/>
     </g>
     <g id="line2d_14">
      <g>
       <use xlink:href="#m0ad0af0f2d" x="58.523438" y="174.032089" style="stroke: #000000; stroke-width: 0.8"/>
      </g>
     </g>
     <g id="text_11">
      <!-- 0.00 -->
      <g transform="translate(29.257813 177.831308) scale(0.1 -0.1)">
       <use xlink:href="#DejaVuSans-30"/>
       <use xlink:href="#DejaVuSans-2e" transform="translate(63.623047 0)"/>
       <use xlink:href="#DejaVuSans-30" transform="translate(95.410156 0)"/>
       <use xlink:href="#DejaVuSans-30" transform="translate(159.033203 0)"/>
      </g>
     </g>
    </g>
    <g id="ytick_5">
     <g id="line2d_15">
      <path d="M 58.523438 138.271979 
L 647.733438 138.271979 
" clip-path="url(#p81acced36f)" style="fill: none; stroke: #b0b0b0; stroke-opacity: 0.25; stroke-width: 0.8; stroke-linecap: square"/>
     </g>
     <g id="line2d_16">
      <g>
       <use xlink:href="#m0ad0af0f2d" x="58.523438" y="138.271979" style="stroke: #000000; stroke-width: 0.8"/>
      </g>
     </g>
     <g id="text_12">
      <!-- 0.01 -->
      <g transform="translate(29.257813 142.071198) scale(0.1 -0.1)">
       <use xlink:href="#DejaVuSans-30"/>
       <use xlink:href="#DejaVuSans-2e" transform="translate(63.623047 0)"/>
       <use xlink:href="#DejaVuSans-30" transform="translate(95.410156 0)"/>
       <use xlink:href="#DejaVuSans-31" transform="translate(159.033203 0)"/>
      </g>
     </g>
    </g>
    <g id="ytick_6">
     <g id="line2d_17">
      <path d="M 58.523438 102.51187 
L 647.733438 102.51187 
" clip-path="url(#p81acced36f)" style="fill: none; stroke: #b0b0b0; stroke-opacity: 0.25; stroke-width: 0.8; stroke-linecap: square"/>
     </g>
     <g id="line2d_18">
      <g>
       <use xlink:href="#m0ad0af0f2d" x="58.523438" y="102.51187" style="stroke: #000000; stroke-width: 0.8"/>
      </g>
     </g>
     <g id="text_13">
      <!-- 0.02 -->
      <g transform="translate(29.257813 106.311088) scale(0.1 -0.1)">
       <use xlink:href="#DejaVuSans-30"/>
       <use xlink:href="#DejaVuSans-2e" transform="translate(63.623047 0)"/>
       <use xlink:href="#DejaVuSans-30" transform="translate(95.410156 0)"/>
       <use xlink:href="#DejaVuSans-32" transform="translate(159.033203 0)"/>
      </g>
     </g>
    </g>
    <g id="ytick_7">
     <g id="line2d_19">
      <path d="M 58.523438 66.75176 
L 647.733438 66.75176 
" clip-path="url(#p81acced36f)" style="fill: none; stroke: #b0b0b0; stroke-opacity: 0.25; stroke-width: 0.8; stroke-linecap: square"/>
     </g>
     <g id="line2d_20">
      <g>
       <use xlink:href="#m0ad0af0f2d" x="58.523438" y="66.75176" style="stroke: #000000; stroke-width: 0.8"/>
      </g>
     </g>
     <g id="text_14">
      <!-- 0.03 -->
      <g transform="translate(29.257813 70.550979) scale(0.1 -0.1)">
       <use xlink:href="#DejaVuSans-30"/>
       <use xlink:href="#DejaVuSans-2e" transform="translate(63.623047 0)"/>
       <use xlink:href="#DejaVuSans-30" transform="translate(95.410156 0)"/>
       <use xlink:href="#DejaVuSans-33" transform="translate(159.033203 0)"/>
      </g>
     </g>
    </g>
    <g id="ytick_8">
     <g id="line2d_21">
      <path d="M 58.523438 30.99165 
L 647.733438 30.99165 
" clip-path="url(#p81acced36f)" style="fill: none; stroke: #b0b0b0; stroke-opacity: 0.25; stroke-width: 0.8; stroke-linecap: square"/>
     </g>
     <g id="line2d_22">
      <g>
       <use xlink:href="#m0ad0af0f2d" x="58.523438" y="30.99165" style="stroke: #000000; stroke-width: 0.8"/>
      </g>
     </g>
     <g id="text_15">
      <!-- 0.04 -->
      <g transform="translate(29.257813 34.790869) scale(0.1 -0.1)">
       <use xlink:href="#DejaVuSans-30"/>
       <use xlink:href="#DejaVuSans-2e" transform="translate(63.623047 0)"/>
       <use xlink:href="#DejaVuSans-30" transform="translate(95.410156 0)"/>
       <use xlink:href="#DejaVuSans-34" transform="translate(159.033203 0)"/>
      </g>
     </g>
    </g>
    <g id="text_16">
     <!-- Return -->
     <g transform="translate(14.798438 173.689531) rotate(-90) scale(0.1 -0.1)">
      <defs>
       <path id="DejaVuSans-52" d="M 2841 2188 
Q 3044 2119 3236 1894 
Q 3428 1669 3622 1275 
L 4263 0 
L 3584 0 
L 2988 1197 
Q 2756 1666 2539 1819 
Q 2322 1972 1947 1972 
L 1259 1972 
L 1259 0 
L 628 0 
L 628 4666 
L 2053 4666 
Q 2853 4666 3247 4331 
Q 3641 3997 3641 3322 
Q 3641 2881 3436 2590 
Q 3231 2300 2841 2188 
z
M 1259 4147 
L 1259 2491 
L 2053 2491 
Q 2509 2491 2742 2702 
Q 2975 2913 2975 3322 
Q 2975 3731 2742 3939 
Q 2509 4147 2053 4147 
L 1259 4147 
z
" transform="scale(0.015625)"/>
       <path id="DejaVuSans-75" d="M 544 1381 
L 544 3500 
L 1119 3500 
L 1119 1403 
Q 1119 906 1312 657 
Q 1506 409 1894 409 
Q 2359 409 2629 706 
Q 2900 1003 2900 1516 
L 2900 3500 
L 3475 3500 
L 3475 0 
L 2900 0 
L 2900 538 
Q 2691 219 2414 64 
Q 2138 -91 1772 -91 
Q 1169 -91 856 284 
Q 544 659 544 1381 
z
M 1991 3584 
L 1991 3584 
z
" transform="scale(0.015625)"/>
      </defs>
      <use xlink:href="#DejaVuSans-52"/>
      <use xlink:href="#DejaVuSans-65" transform="translate(64.982422 0)"/>
      <use xlink:href="#DejaVuSans-74" transform="translate(126.505859 0)"/>
      <use xlink:href="#DejaVuSans-75" transform="translate(165.714844 0)"/>
      <use xlink:href="#DejaVuSans-72" transform="translate(229.09375 0)"/>
      <use xlink:href="#DejaVuSans-6e" transform="translate(268.457031 0)"/>
     </g>
    </g>
   </g>
   <g id="line2d_23">
    <path d="M 58.523438 174.032089 
L 647.733438 174.032089 
" clip-path="url(#p81acced36f)" style="fill: none; stroke: #666666; stroke-linecap: square"/>
   </g>
   <g id="patch_259">
    <path d="M 58.523438 291.878125 
L 58.523438 22.318125 
" style="fill: none; stroke: #000000; stroke-width: 0.8; stroke-linejoin: miter; stroke-linecap: square"/>
   </g>
   <g id="patch_260">
    <path d="M 647.733438 291.878125 
L 647.733438 22.318125 
" style="fill: none; stroke: #000000; stroke-width: 0.8; stroke-linejoin: miter; stroke-linecap: square"/>
   </g>
   <g id="patch_261">
    <path d="M 58.523437 291.878125 
L 647.733438 291.878125 
" style="fill: none; stroke: #000000; stroke-width: 0.8; stroke-linejoin: miter; stroke-linecap: square"/>
   </g>
   <g id="patch_262">
    <path d="M 58.523437 22.318125 
L 647.733438 22.318125 
" style="fill: none; stroke: #000000; stroke-width: 0.8; stroke-linejoin: miter; stroke-linecap: square"/>
   </g>
   <g id="text_17">
    <!-- 7.0 Pilot Residual Sort: Monthly Long-Short Return -->
    <g transform="translate(202.925938 16.318125) scale(0.12 -0.12)">
     <defs>
      <path id="DejaVuSans-37" d="M 525 4666 
L 3525 4666 
L 3525 4397 
L 1831 0 
L 1172 0 
L 2766 4134 
L 525 4134 
L 525 4666 
z
" transform="scale(0.015625)"/>
      <path id="DejaVuSans-50" d="M 1259 4147 
L 1259 2394 
L 2053 2394 
Q 2494 2394 2734 2622 
Q 2975 2850 2975 3272 
Q 2975 3691 2734 3919 
Q 2494 4147 2053 4147 
L 1259 4147 
z
M 628 4666 
L 2053 4666 
Q 2838 4666 3239 4311 
Q 3641 3956 3641 3272 
Q 3641 2581 3239 2228 
Q 2838 1875 2053 1875 
L 1259 1875 
L 1259 0 
L 628 0 
L 628 4666 
z
" transform="scale(0.015625)"/>
      <path id="DejaVuSans-69" d="M 603 3500 
L 1178 3500 
L 1178 0 
L 603 0 
L 603 3500 
z
M 603 4863 
L 1178 4863 
L 1178 4134 
L 603 4134 
L 603 4863 
z
" transform="scale(0.015625)"/>
      <path id="DejaVuSans-6c" d="M 603 4863 
L 1178 4863 
L 1178 0 
L 603 0 
L 603 4863 
z
" transform="scale(0.015625)"/>
      <path id="DejaVuSans-73" d="M 2834 3397 
L 2834 2853 
Q 2591 2978 2328 3040 
Q 2066 3103 1784 3103 
Q 1356 3103 1142 2972 
Q 928 2841 928 2578 
Q 928 2378 1081 2264 
Q 1234 2150 1697 2047 
L 1894 2003 
Q 2506 1872 2764 1633 
Q 3022 1394 3022 966 
Q 3022 478 2636 193 
Q 2250 -91 1575 -91 
Q 1294 -91 989 -36 
Q 684 19 347 128 
L 347 722 
Q 666 556 975 473 
Q 1284 391 1588 391 
Q 1994 391 2212 530 
Q 2431 669 2431 922 
Q 2431 1156 2273 1281 
Q 2116 1406 1581 1522 
L 1381 1569 
Q 847 1681 609 1914 
Q 372 2147 372 2553 
Q 372 3047 722 3315 
Q 1072 3584 1716 3584 
Q 2034 3584 2315 3537 
Q 2597 3491 2834 3397 
z
" transform="scale(0.015625)"/>
      <path id="DejaVuSans-64" d="M 2906 2969 
L 2906 4863 
L 3481 4863 
L 3481 0 
L 2906 0 
L 2906 525 
Q 2725 213 2448 61 
Q 2172 -91 1784 -91 
Q 1150 -91 751 415 
Q 353 922 353 1747 
Q 353 2572 751 3078 
Q 1150 3584 1784 3584 
Q 2172 3584 2448 3432 
Q 2725 3281 2906 2969 
z
M 947 1747 
Q 947 1113 1208 752 
Q 1469 391 1925 391 
Q 2381 391 2643 752 
Q 2906 1113 2906 1747 
Q 2906 2381 2643 2742 
Q 2381 3103 1925 3103 
Q 1469 3103 1208 2742 
Q 947 2381 947 1747 
z
" transform="scale(0.015625)"/>
      <path id="DejaVuSans-53" d="M 3425 4513 
L 3425 3897 
Q 3066 4069 2747 4153 
Q 2428 4238 2131 4238 
Q 1616 4238 1336 4038 
Q 1056 3838 1056 3469 
Q 1056 3159 1242 3001 
Q 1428 2844 1947 2747 
L 2328 2669 
Q 3034 2534 3370 2195 
Q 3706 1856 3706 1288 
Q 3706 609 3251 259 
Q 2797 -91 1919 -91 
Q 1588 -91 1214 -16 
Q 841 59 441 206 
L 441 856 
Q 825 641 1194 531 
Q 1563 422 1919 422 
Q 2459 422 2753 634 
Q 3047 847 3047 1241 
Q 3047 1584 2836 1778 
Q 2625 1972 2144 2069 
L 1759 2144 
Q 1053 2284 737 2584 
Q 422 2884 422 3419 
Q 422 4038 858 4394 
Q 1294 4750 2059 4750 
Q 2388 4750 2728 4690 
Q 3069 4631 3425 4513 
z
" transform="scale(0.015625)"/>
      <path id="DejaVuSans-3a" d="M 750 794 
L 1409 794 
L 1409 0 
L 750 0 
L 750 794 
z
M 750 3309 
L 1409 3309 
L 1409 2516 
L 750 2516 
L 750 3309 
z
" transform="scale(0.015625)"/>
      <path id="DejaVuSans-4d" d="M 628 4666 
L 1569 4666 
L 2759 1491 
L 3956 4666 
L 4897 4666 
L 4897 0 
L 4281 0 
L 4281 4097 
L 3078 897 
L 2444 897 
L 1241 4097 
L 1241 0 
L 628 0 
L 628 4666 
z
" transform="scale(0.015625)"/>
      <path id="DejaVuSans-79" d="M 2059 -325 
Q 1816 -950 1584 -1140 
Q 1353 -1331 966 -1331 
L 506 -1331 
L 506 -850 
L 844 -850 
Q 1081 -850 1212 -737 
Q 1344 -625 1503 -206 
L 1606 56 
L 191 3500 
L 800 3500 
L 1894 763 
L 2988 3500 
L 3597 3500 
L 2059 -325 
z
" transform="scale(0.015625)"/>
      <path id="DejaVuSans-4c" d="M 628 4666 
L 1259 4666 
L 1259 531 
L 3531 531 
L 3531 0 
L 628 0 
L 628 4666 
z
" transform="scale(0.015625)"/>
      <path id="DejaVuSans-2d" d="M 313 2009 
L 1997 2009 
L 1997 1497 
L 313 1497 
L 313 2009 
z
" transform="scale(0.015625)"/>
     </defs>
     <use xlink:href="#DejaVuSans-37"/>
     <use xlink:href="#DejaVuSans-2e" transform="translate(63.623047 0)"/>
     <use xlink:href="#DejaVuSans-30" transform="translate(95.410156 0)"/>
     <use xlink:href="#DejaVuSans-20" transform="translate(159.033203 0)"/>
     <use xlink:href="#DejaVuSans-50" transform="translate(190.820312 0)"/>
     <use xlink:href="#DejaVuSans-69" transform="translate(248.873047 0)"/>
     <use xlink:href="#DejaVuSans-6c" transform="translate(276.65625 0)"/>
     <use xlink:href="#DejaVuSans-6f" transform="translate(304.439453 0)"/>
     <use xlink:href="#DejaVuSans-74" transform="translate(365.621094 0)"/>
     <use xlink:href="#DejaVuSans-20" transform="translate(404.830078 0)"/>
     <use xlink:href="#DejaVuSans-52" transform="translate(436.617188 0)"/>
     <use xlink:href="#DejaVuSans-65" transform="translate(501.599609 0)"/>
     <use xlink:href="#DejaVuSans-73" transform="translate(563.123047 0)"/>
     <use xlink:href="#DejaVuSans-69" transform="translate(615.222656 0)"/>
     <use xlink:href="#DejaVuSans-64" transform="translate(643.005859 0)"/>
     <use xlink:href="#DejaVuSans-75" transform="translate(706.482422 0)"/>
     <use xlink:href="#DejaVuSans-61" transform="translate(769.861328 0)"/>
     <use xlink:href="#DejaVuSans-6c" transform="translate(831.140625 0)"/>
     <use xlink:href="#DejaVuSans-20" transform="translate(858.923828 0)"/>
     <use xlink:href="#DejaVuSans-53" transform="translate(890.710938 0)"/>
     <use xlink:href="#DejaVuSans-6f" transform="translate(954.1875 0)"/>
     <use xlink:href="#DejaVuSans-72" transform="translate(1015.369141 0)"/>
     <use xlink:href="#DejaVuSans-74" transform="translate(1056.482422 0)"/>
     <use xlink:href="#DejaVuSans-3a" transform="translate(1095.691406 0)"/>
     <use xlink:href="#DejaVuSans-20" transform="translate(1129.382812 0)"/>
     <use xlink:href="#DejaVuSans-4d" transform="translate(1161.169922 0)"/>
     <use xlink:href="#DejaVuSans-6f" transform="translate(1247.449219 0)"/>
     <use xlink:href="#DejaVuSans-6e" transform="translate(1308.630859 0)"/>
     <use xlink:href="#DejaVuSans-74" transform="translate(1372.009766 0)"/>
     <use xlink:href="#DejaVuSans-68" transform="translate(1411.21875 0)"/>
     <use xlink:href="#DejaVuSans-6c" transform="translate(1474.597656 0)"/>
     <use xlink:href="#DejaVuSans-79" transform="translate(1502.380859 0)"/>
     <use xlink:href="#DejaVuSans-20" transform="translate(1561.560547 0)"/>
     <use xlink:href="#DejaVuSans-4c" transform="translate(1593.347656 0)"/>
     <use xlink:href="#DejaVuSans-6f" transform="translate(1647.310547 0)"/>
     <use xlink:href="#DejaVuSans-6e" transform="translate(1708.492188 0)"/>
     <use xlink:href="#DejaVuSans-67" transform="translate(1771.871094 0)"/>
     <use xlink:href="#DejaVuSans-2d" transform="translate(1835.347656 0)"/>
     <use xlink:href="#DejaVuSans-53" transform="translate(1871.431641 0)"/>
     <use xlink:href="#DejaVuSans-68" transform="translate(1934.908203 0)"/>
     <use xlink:href="#DejaVuSans-6f" transform="translate(1998.287109 0)"/>
     <use xlink:href="#DejaVuSans-72" transform="translate(2059.46875 0)"/>
     <use xlink:href="#DejaVuSans-74" transform="translate(2100.582031 0)"/>
     <use xlink:href="#DejaVuSans-20" transform="translate(2139.791016 0)"/>
     <use xlink:href="#DejaVuSans-52" transform="translate(2171.578125 0)"/>
     <use xlink:href="#DejaVuSans-65" transform="translate(2236.560547 0)"/>
     <use xlink:href="#DejaVuSans-74" transform="translate(2298.083984 0)"/>
     <use xlink:href="#DejaVuSans-75" transform="translate(2337.292969 0)"/>
     <use xlink:href="#DejaVuSans-72" transform="translate(2400.671875 0)"/>
     <use xlink:href="#DejaVuSans-6e" transform="translate(2440.035156 0)"/>
    </g>
   </g>
  </g>
 </g>
 <defs>
  <clipPath id="p81acced36f">
   <rect x="58.523438" y="22.318125" width="589.21" height="269.56"/>
  </clipPath>
 </defs>
</svg>
