<?xml version="1.0" encoding="utf-8" standalone="no"?>
<!DOCTYPE svg PUBLIC "-//W3C//DTD SVG 1.1//EN"
  "http://www.w3.org/Graphics/SVG/1.1/DTD/svg11.dtd">
<svg xmlns:xlink="http://www.w3.org/1999/xlink" width="654.92375pt" height="329.434375pt" viewBox="0 0 654.92375 329.434375" xmlns="http://www.w3.org/2000/svg" version="1.1">
 <metadata>
  <rdf:RDF xmlns:dc="http://purl.org/dc/elements/1.1/" xmlns:cc="http://creativecommons.org/ns#" xmlns:rdf="http://www.w3.org/1999/02/22-rdf-syntax-ns#">
   <cc:Work>
    <dc:type rdf:resource="http://purl.org/dc/dcmitype/StillImage"/>
    <dc:date>2026-05-28T00:21:15.336171</dc:date>
    <dc:format>image/svg+xml</dc:format>
    <dc:creator>
     <cc:Agent>
      <dc:title>Matplotlib v3.10.9, https://matplotlib.org/</dc:title>
     </cc:Agent>
    </dc:creator>
   </cc:Work>
  </rdf:RDF>
 </metadata>
 <defs>
  <style type="text/css">*{stroke-linejoin: round; stroke-linecap: butt}</style>
 </defs>
 <g id="figure_1">
  <g id="patch_1">
   <path d="M -0 329.434375 
L 654.92375 329.434375 
L 654.92375 0 
L -0 0 
z
" style="fill: #ffffff"/>
  </g>
  <g id="axes_1">
   <g id="patch_2">
    <path d="M 50.14375 291.878125 
L 647.72375 291.878125 
L 647.72375 22.318125 
L 50.14375 22.318125 
z
" style="fill: #ffffff"/>
   </g>
   <g id="matplotlib.axis_1">
    <g id="xtick_1">
     <g id="line2d_1">
      <path d="M 73.177127 291.878125 
L 73.177127 22.318125 
" clip-path="url(#p45c9903adb)" style="fill: none; stroke: #b0b0b0; stroke-opacity: 0.25; stroke-width: 0.8; stroke-linecap: square"/>
     </g>
     <g id="line2d_2">
      <defs>
       <path id="m5f411fe9d6" d="M 0 0 
L 0 3.5 
" style="stroke: #000000; stroke-width: 0.8"/>
      </defs>
      <g>
       <use xlink:href="#m5f411fe9d6" x="73.177127" y="291.878125" style="stroke: #000000; stroke-width: 0.8"/>
      </g>
     </g>
     <g id="text_1">
      <!-- 2004 -->
      <g transform="translate(60.452127 306.476562) scale(0.1 -0.1)">
       <defs>
        <path id="DejaVuSans-32" d="M 1228 531 
L 3431 531 
L 3431 0 
L 469 0 
L 469 531 
Q 828 903 1448 1529 
Q 2069 2156 2228 2338 
Q 2531 2678 2651 2914 
Q 2772 3150 2772 3378 
Q 2772 3750 2511 3984 
Q 2250 4219 1831 4219 
Q 1534 4219 1204 4116 
Q 875 4013 500 3803 
L 500 4441 
Q 881 4594 1212 4672 
Q 1544 4750 1819 4750 
Q 2544 4750 2975 4387 
Q 3406 4025 3406 3419 
Q 3406 3131 3298 2873 
Q 3191 2616 2906 2266 
Q 2828 2175 2409 1742 
Q 1991 1309 1228 531 
z
" transform="scale(0.015625)"/>
        <path id="DejaVuSans-30" d="M 2034 4250 
Q 1547 4250 1301 3770 
Q 1056 3291 1056 2328 
Q 1056 1369 1301 889 
Q 1547 409 2034 409 
Q 2525 409 2770 889 
Q 3016 1369 3016 2328 
Q 3016 3291 2770 3770 
Q 2525 4250 2034 4250 
z
M 2034 4750 
Q 2819 4750 3233 4129 
Q 3647 3509 3647 2328 
Q 3647 1150 3233 529 
Q 2819 -91 2034 -91 
Q 1250 -91 836 529 
Q 422 1150 422 2328 
Q 422 3509 836 4129 
Q 1250 4750 2034 4750 
z
" transform="scale(0.015625)"/>
        <path id="DejaVuSans-34" d="M 2419 4116 
L 825 1625 
L 2419 1625 
L 2419 4116 
z
M 2253 4666 
L 3047 4666 
L 3047 1625 
L 3713 1625 
L 3713 1100 
L 3047 1100 
L 3047 0 
L 2419 0 
L 2419 1100 
L 313 1100 
L 313 1709 
L 2253 4666 
z
" transform="scale(0.015625)"/>
       </defs>
       <use xlink:href="#DejaVuSans-32"/>
       <use xlink:href="#DejaVuSans-30" transform="translate(63.623047 0)"/>
       <use xlink:href="#DejaVuSans-30" transform="translate(127.246094 0)"/>
       <use xlink:href="#DejaVuSans-34" transform="translate(190.869141 0)"/>
      </g>
     </g>
    </g>
    <g id="xtick_2">
     <g id="line2d_3">
      <path d="M 175.431042 291.878125 
L 175.431042 22.318125 
" clip-path="url(#p45c9903adb)" style="fill: none; stroke: #b0b0b0; stroke-opacity: 0.25; stroke-width: 0.8; stroke-linecap: square"/>
     </g>
     <g id="line2d_4">
      <g>
       <use xlink:href="#m5f411fe9d6" x="175.431042" y="291.878125" style="stroke: #000000; stroke-width: 0.8"/>
      </g>
     </g>
     <g id="text_2">
      <!-- 2008 -->
      <g transform="translate(162.706042 306.476562) scale(0.1 -0.1)">
       <defs>
        <path id="DejaVuSans-38" d="M 2034 2216 
Q 1584 2216 1326 1975 
Q 1069 1734 1069 1313 
Q 1069 891 1326 650 
Q 1584 409 2034 409 
Q 2484 409 2743 651 
Q 3003 894 3003 1313 
Q 3003 1734 2745 1975 
Q 2488 2216 2034 2216 
z
M 1403 2484 
Q 997 2584 770 2862 
Q 544 3141 544 3541 
Q 544 4100 942 4425 
Q 1341 4750 2034 4750 
Q 2731 4750 3128 4425 
Q 3525 4100 3525 3541 
Q 3525 3141 3298 2862 
Q 3072 2584 2669 2484 
Q 3125 2378 3379 2068 
Q 3634 1759 3634 1313 
Q 3634 634 3220 271 
Q 2806 -91 2034 -91 
Q 1263 -91 848 271 
Q 434 634 434 1313 
Q 434 1759 690 2068 
Q 947 2378 1403 2484 
z
M 1172 3481 
Q 1172 3119 1398 2916 
Q 1625 2713 2034 2713 
Q 2441 2713 2670 2916 
Q 2900 3119 2900 3481 
Q 2900 3844 2670 4047 
Q 2441 4250 2034 4250 
Q 1625 4250 1398 4047 
Q 1172 3844 1172 3481 
z
" transform="scale(0.015625)"/>
       </defs>
       <use xlink:href="#DejaVuSans-32"/>
       <use xlink:href="#DejaVuSans-30" transform="translate(63.623047 0)"/>
       <use xlink:href="#DejaVuSans-30" transform="translate(127.246094 0)"/>
       <use xlink:href="#DejaVuSans-38" transform="translate(190.869141 0)"/>
      </g>
     </g>
    </g>
    <g id="xtick_3">
     <g id="line2d_5">
      <path d="M 277.684958 291.878125 
L 277.684958 22.318125 
" clip-path="url(#p45c9903adb)" style="fill: none; stroke: #b0b0b0; stroke-opacity: 0.25; stroke-width: 0.8; stroke-linecap: square"/>
     </g>
     <g id="line2d_6">
      <g>
       <use xlink:href="#m5f411fe9d6" x="277.684958" y="291.878125" style="stroke: #000000; stroke-width: 0.8"/>
      </g>
     </g>
     <g id="text_3">
      <!-- 2012 -->
      <g transform="translate(264.959958 306.476562) scale(0.1 -0.1)">
       <defs>
        <path id="DejaVuSans-31" d="M 794 531 
L 1825 531 
L 1825 4091 
L 703 3866 
L 703 4441 
L 1819 4666 
L 2450 4666 
L 2450 531 
L 3481 531 
L 3481 0 
L 794 0 
L 794 531 
z
" transform="scale(0.015625)"/>
       </defs>
       <use xlink:href="#DejaVuSans-32"/>
       <use xlink:href="#DejaVuSans-30" transform="translate(63.623047 0)"/>
       <use xlink:href="#DejaVuSans-31" transform="translate(127.246094 0)"/>
       <use xlink:href="#DejaVuSans-32" transform="translate(190.869141 0)"/>
      </g>
     </g>
    </g>
    <g id="xtick_4">
     <g id="line2d_7">
      <path d="M 379.938873 291.878125 
L 379.938873 22.318125 
" clip-path="url(#p45c9903adb)" style="fill: none; stroke: #b0b0b0; stroke-opacity: 0.25; stroke-width: 0.8; stroke-linecap: square"/>
     </g>
     <g id="line2d_8">
      <g>
       <use xlink:href="#m5f411fe9d6" x="379.938873" y="291.878125" style="stroke: #000000; stroke-width: 0.8"/>
      </g>
     </g>
     <g id="text_4">
      <!-- 2016 -->
      <g transform="translate(367.213873 306.476562) scale(0.1 -0.1)">
       <defs>
        <path id="DejaVuSans-36" d="M 2113 2584 
Q 1688 2584 1439 2293 
Q 1191 2003 1191 1497 
Q 1191 994 1439 701 
Q 1688 409 2113 409 
Q 2538 409 2786 701 
Q 3034 994 3034 1497 
Q 3034 2003 2786 2293 
Q 2538 2584 2113 2584 
z
M 3366 4563 
L 3366 3988 
Q 3128 4100 2886 4159 
Q 2644 4219 2406 4219 
Q 1781 4219 1451 3797 
Q 1122 3375 1075 2522 
Q 1259 2794 1537 2939 
Q 1816 3084 2150 3084 
Q 2853 3084 3261 2657 
Q 3669 2231 3669 1497 
Q 3669 778 3244 343 
Q 2819 -91 2113 -91 
Q 1303 -91 875 529 
Q 447 1150 447 2328 
Q 447 3434 972 4092 
Q 1497 4750 2381 4750 
Q 2619 4750 2861 4703 
Q 3103 4656 3366 4563 
z
" transform="scale(0.015625)"/>
       </defs>
       <use xlink:href="#DejaVuSans-32"/>
       <use xlink:href="#DejaVuSans-30" transform="translate(63.623047 0)"/>
       <use xlink:href="#DejaVuSans-31" transform="translate(127.246094 0)"/>
       <use xlink:href="#DejaVuSans-36" transform="translate(190.869141 0)"/>
      </g>
     </g>
    </g>
    <g id="xtick_5">
     <g id="line2d_9">
      <path d="M 482.192788 291.878125 
L 482.192788 22.318125 
" clip-path="url(#p45c9903adb)" style="fill: none; stroke: #b0b0b0; stroke-opacity: 0.25; stroke-width: 0.8; stroke-linecap: square"/>
     </g>
     <g id="line2d_10">
      <g>
       <use xlink:href="#m5f411fe9d6" x="482.192788" y="291.878125" style="stroke: #000000; stroke-width: 0.8"/>
      </g>
     </g>
     <g id="text_5">
      <!-- 2020 -->
      <g transform="translate(469.467788 306.476562) scale(0.1 -0.1)">
       <use xlink:href="#DejaVuSans-32"/>
       <use xlink:href="#DejaVuSans-30" transform="translate(63.623047 0)"/>
       <use xlink:href="#DejaVuSans-32" transform="translate(127.246094 0)"/>
       <use xlink:href="#DejaVuSans-30" transform="translate(190.869141 0)"/>
      </g>
     </g>
    </g>
    <g id="xtick_6">
     <g id="line2d_11">
      <path d="M 584.446704 291.878125 
L 584.446704 22.318125 
" clip-path="url(#p45c9903adb)" style="fill: none; stroke: #b0b0b0; stroke-opacity: 0.25; stroke-width: 0.8; stroke-linecap: square"/>
     </g>
     <g id="line2d_12">
      <g>
       <use xlink:href="#m5f411fe9d6" x="584.446704" y="291.878125" style="stroke: #000000; stroke-width: 0.8"/>
      </g>
     </g>
     <g id="text_6">
      <!-- 2024 -->
      <g transform="translate(571.721704 306.476562) scale(0.1 -0.1)">
       <use xlink:href="#DejaVuSans-32"/>
       <use xlink:href="#DejaVuSans-30" transform="translate(63.623047 0)"/>
       <use xlink:href="#DejaVuSans-32" transform="translate(127.246094 0)"/>
       <use xlink:href="#DejaVuSans-34" transform="translate(190.869141 0)"/>
      </g>
     </g>
    </g>
    <g id="text_7">
     <!-- Target month -->
     <g transform="translate(315.645469 320.154687) scale(0.1 -0.1)">
      <defs>
       <path id="DejaVuSans-54" d="M -19 4666 
L 3928 4666 
L 3928 4134 
L 2272 4134 
L 2272 0 
L 1638 0 
L 1638 4134 
L -19 4134 
L -19 4666 
z
" transform="scale(0.015625)"/>
       <path id="DejaVuSans-61" d="M 2194 1759 
Q 1497 1759 1228 1600 
Q 959 1441 959 1056 
Q 959 750 1161 570 
Q 1363 391 1709 391 
Q 2188 391 2477 730 
Q 2766 1069 2766 1631 
L 2766 1759 
L 2194 1759 
z
M 3341 1997 
L 3341 0 
L 2766 0 
L 2766 531 
Q 2569 213 2275 61 
Q 1981 -91 1556 -91 
Q 1019 -91 701 211 
Q 384 513 384 1019 
Q 384 1609 779 1909 
Q 1175 2209 1959 2209 
L 2766 2209 
L 2766 2266 
Q 2766 2663 2505 2880 
Q 2244 3097 1772 3097 
Q 1472 3097 1187 3025 
Q 903 2953 641 2809 
L 641 3341 
Q 956 3463 1253 3523 
Q 1550 3584 1831 3584 
Q 2591 3584 2966 3190 
Q 3341 2797 3341 1997 
z
" transform="scale(0.015625)"/>
       <path id="DejaVuSans-72" d="M 2631 2963 
Q 2534 3019 2420 3045 
Q 2306 3072 2169 3072 
Q 1681 3072 1420 2755 
Q 1159 2438 1159 1844 
L 1159 0 
L 581 0 
L 581 3500 
L 1159 3500 
L 1159 2956 
Q 1341 3275 1631 3429 
Q 1922 3584 2338 3584 
Q 2397 3584 2469 3576 
Q 2541 3569 2628 3553 
L 2631 2963 
z
" transform="scale(0.015625)"/>
       <path id="DejaVuSans-67" d="M 2906 1791 
Q 2906 2416 2648 2759 
Q 2391 3103 1925 3103 
Q 1463 3103 1205 2759 
Q 947 2416 947 1791 
Q 947 1169 1205 825 
Q 1463 481 1925 481 
Q 2391 481 2648 825 
Q 2906 1169 2906 1791 
z
M 3481 434 
Q 3481 -459 3084 -895 
Q 2688 -1331 1869 -1331 
Q 1566 -1331 1297 -1286 
Q 1028 -1241 775 -1147 
L 775 -588 
Q 1028 -725 1275 -790 
Q 1522 -856 1778 -856 
Q 2344 -856 2625 -561 
Q 2906 -266 2906 331 
L 2906 616 
Q 2728 306 2450 153 
Q 2172 0 1784 0 
Q 1141 0 747 490 
Q 353 981 353 1791 
Q 353 2603 747 3093 
Q 1141 3584 1784 3584 
Q 2172 3584 2450 3431 
Q 2728 3278 2906 2969 
L 2906 3500 
L 3481 3500 
L 3481 434 
z
" transform="scale(0.015625)"/>
       <path id="DejaVuSans-65" d="M 3597 1894 
L 3597 1613 
L 953 1613 
Q 991 1019 1311 708 
Q 1631 397 2203 397 
Q 2534 397 2845 478 
Q 3156 559 3463 722 
L 3463 178 
Q 3153 47 2828 -22 
Q 2503 -91 2169 -91 
Q 1331 -91 842 396 
Q 353 884 353 1716 
Q 353 2575 817 3079 
Q 1281 3584 2069 3584 
Q 2775 3584 3186 3129 
Q 3597 2675 3597 1894 
z
M 3022 2063 
Q 3016 2534 2758 2815 
Q 2500 3097 2075 3097 
Q 1594 3097 1305 2825 
Q 1016 2553 972 2059 
L 3022 2063 
z
" transform="scale(0.015625)"/>
       <path id="DejaVuSans-74" d="M 1172 4494 
L 1172 3500 
L 2356 3500 
L 2356 3053 
L 1172 3053 
L 1172 1153 
Q 1172 725 1289 603 
Q 1406 481 1766 481 
L 2356 481 
L 2356 0 
L 1766 0 
Q 1100 0 847 248 
Q 594 497 594 1153 
L 594 3053 
L 172 3053 
L 172 3500 
L 594 3500 
L 594 4494 
L 1172 4494 
z
" transform="scale(0.015625)"/>
       <path id="DejaVuSans-20" transform="scale(0.015625)"/>
       <path id="DejaVuSans-6d" d="M 3328 2828 
Q 3544 3216 3844 3400 
Q 4144 3584 4550 3584 
Q 5097 3584 5394 3201 
Q 5691 2819 5691 2113 
L 5691 0 
L 5113 0 
L 5113 2094 
Q 5113 2597 4934 2840 
Q 4756 3084 4391 3084 
Q 3944 3084 3684 2787 
Q 3425 2491 3425 1978 
L 3425 0 
L 2847 0 
L 2847 2094 
Q 2847 2600 2669 2842 
Q 2491 3084 2119 3084 
Q 1678 3084 1418 2786 
Q 1159 2488 1159 1978 
L 1159 0 
L 581 0 
L 581 3500 
L 1159 3500 
L 1159 2956 
Q 1356 3278 1631 3431 
Q 1906 3584 2284 3584 
Q 2666 3584 2933 3390 
Q 3200 3197 3328 2828 
z
" transform="scale(0.015625)"/>
       <path id="DejaVuSans-6f" d="M 1959 3097 
Q 1497 3097 1228 2736 
Q 959 2375 959 1747 
Q 959 1119 1226 758 
Q 1494 397 1959 397 
Q 2419 397 2687 759 
Q 2956 1122 2956 1747 
Q 2956 2369 2687 2733 
Q 2419 3097 1959 3097 
z
M 1959 3584 
Q 2709 3584 3137 3096 
Q 3566 2609 3566 1747 
Q 3566 888 3137 398 
Q 2709 -91 1959 -91 
Q 1206 -91 779 398 
Q 353 888 353 1747 
Q 353 2609 779 3096 
Q 1206 3584 1959 3584 
z
" transform="scale(0.015625)"/>
       <path id="DejaVuSans-6e" d="M 3513 2113 
L 3513 0 
L 2938 0 
L 2938 2094 
Q 2938 2591 2744 2837 
Q 2550 3084 2163 3084 
Q 1697 3084 1428 2787 
Q 1159 2491 1159 1978 
L 1159 0 
L 581 0 
L 581 3500 
L 1159 3500 
L 1159 2956 
Q 1366 3272 1645 3428 
Q 1925 3584 2291 3584 
Q 2894 3584 3203 3211 
Q 3513 2838 3513 2113 
z
" transform="scale(0.015625)"/>
       <path id="DejaVuSans-68" d="M 3513 2113 
L 3513 0 
L 2938 0 
L 2938 2094 
Q 2938 2591 2744 2837 
Q 2550 3084 2163 3084 
Q 1697 3084 1428 2787 
Q 1159 2491 1159 1978 
L 1159 0 
L 581 0 
L 581 4863 
L 1159 4863 
L 1159 2956 
Q 1366 3272 1645 3428 
Q 1925 3584 2291 3584 
Q 2894 3584 3203 3211 
Q 3513 2838 3513 2113 
z
" transform="scale(0.015625)"/>
      </defs>
      <use xlink:href="#DejaVuSans-54"/>
      <use xlink:href="#DejaVuSans-61" transform="translate(44.583984 0)"/>
      <use xlink:href="#DejaVuSans-72" transform="translate(105.863281 0)"/>
      <use xlink:href="#DejaVuSans-67" transform="translate(145.226562 0)"/>
      <use xlink:href="#DejaVuSans-65" transform="translate(208.703125 0)"/>
      <use xlink:href="#DejaVuSans-74" transform="translate(270.226562 0)"/>
      <use xlink:href="#DejaVuSans-20" transform="translate(309.435547 0)"/>
      <use xlink:href="#DejaVuSans-6d" transform="translate(341.222656 0)"/>
      <use xlink:href="#DejaVuSans-6f" transform="translate(438.634766 0)"/>
      <use xlink:href="#DejaVuSans-6e" transform="translate(499.816406 0)"/>
      <use xlink:href="#DejaVuSans-74" transform="translate(563.195312 0)"/>
      <use xlink:href="#DejaVuSans-68" transform="translate(602.404297 0)"/>
     </g>
    </g>
   </g>
   <g id="matplotlib.axis_2">
    <g id="ytick_1">
     <g id="line2d_13">
      <path d="M 50.14375 279.924384 
L 647.72375 279.924384 
" clip-path="url(#p45c9903adb)" style="fill: none; stroke: #b0b0b0; stroke-opacity: 0.25; stroke-width: 0.8; stroke-linecap: square"/>
     </g>
     <g id="line2d_14">
      <defs>
       <path id="m48898747fb" d="M 0 0 
L -3.5 0 
" style="stroke: #000000; stroke-width: 0.8"/>
      </defs>
      <g>
       <use xlink:href="#m48898747fb" x="50.14375" y="279.924384" style="stroke: #000000; stroke-width: 0.8"/>
      </g>
     </g>
     <g id="text_8">
      <!-- 0.00 -->
      <g transform="translate(20.878125 283.723603) scale(0.1 -0.1)">
       <defs>
        <path id="DejaVuSans-2e" d="M 684 794 
L 1344 794 
L 1344 0 
L 684 0 
L 684 794 
z
" transform="scale(0.015625)"/>
       </defs>
       <use xlink:href="#DejaVuSans-30"/>
       <use xlink:href="#DejaVuSans-2e" transform="translate(63.623047 0)"/>
       <use xlink:href="#DejaVuSans-30" transform="translate(95.410156 0)"/>
       <use xlink:href="#DejaVuSans-30" transform="translate(159.033203 0)"/>
      </g>
     </g>
    </g>
    <g id="ytick_2">
     <g id="line2d_15">
      <path d="M 50.14375 247.134614 
L 647.72375 247.134614 
" clip-path="url(#p45c9903adb)" style="fill: none; stroke: #b0b0b0; stroke-opacity: 0.25; stroke-width: 0.8; stroke-linecap: square"/>
     </g>
     <g id="line2d_16">
      <g>
       <use xlink:href="#m48898747fb" x="50.14375" y="247.134614" style="stroke: #000000; stroke-width: 0.8"/>
      </g>
     </g>
     <g id="text_9">
      <!-- 0.25 -->
      <g transform="translate(20.878125 250.933833) scale(0.1 -0.1)">
       <defs>
        <path id="DejaVuSans-35" d="M 691 4666 
L 3169 4666 
L 3169 4134 
L 1269 4134 
L 1269 2991 
Q 1406 3038 1543 3061 
Q 1681 3084 1819 3084 
Q 2600 3084 3056 2656 
Q 3513 2228 3513 1497 
Q 3513 744 3044 326 
Q 2575 -91 1722 -91 
Q 1428 -91 1123 -41 
Q 819 9 494 109 
L 494 744 
Q 775 591 1075 516 
Q 1375 441 1709 441 
Q 2250 441 2565 725 
Q 2881 1009 2881 1497 
Q 2881 1984 2565 2268 
Q 2250 2553 1709 2553 
Q 1456 2553 1204 2497 
Q 953 2441 691 2322 
L 691 4666 
z
" transform="scale(0.015625)"/>
       </defs>
       <use xlink:href="#DejaVuSans-30"/>
       <use xlink:href="#DejaVuSans-2e" transform="translate(63.623047 0)"/>
       <use xlink:href="#DejaVuSans-32" transform="translate(95.410156 0)"/>
       <use xlink:href="#DejaVuSans-35" transform="translate(159.033203 0)"/>
      </g>
     </g>
    </g>
    <g id="ytick_3">
     <g id="line2d_17">
      <path d="M 50.14375 214.344844 
L 647.72375 214.344844 
" clip-path="url(#p45c9903adb)" style="fill: none; stroke: #b0b0b0; stroke-opacity: 0.25; stroke-width: 0.8; stroke-linecap: square"/>
     </g>
     <g id="line2d_18">
      <g>
       <use xlink:href="#m48898747fb" x="50.14375" y="214.344844" style="stroke: #000000; stroke-width: 0.8"/>
      </g>
     </g>
     <g id="text_10">
      <!-- 0.50 -->
      <g transform="translate(20.878125 218.144063) scale(0.1 -0.1)">
       <use xlink:href="#DejaVuSans-30"/>
       <use xlink:href="#DejaVuSans-2e" transform="translate(63.623047 0)"/>
       <use xlink:href="#DejaVuSans-35" transform="translate(95.410156 0)"/>
       <use xlink:href="#DejaVuSans-30" transform="translate(159.033203 0)"/>
      </g>
     </g>
    </g>
    <g id="ytick_4">
     <g id="line2d_19">
      <path d="M 50.14375 181.555074 
L 647.72375 181.555074 
" clip-path="url(#p45c9903adb)" style="fill: none; stroke: #b0b0b0; stroke-opacity: 0.25; stroke-width: 0.8; stroke-linecap: square"/>
     </g>
     <g id="line2d_20">
      <g>
       <use xlink:href="#m48898747fb" x="50.14375" y="181.555074" style="stroke: #000000; stroke-width: 0.8"/>
      </g>
     </g>
     <g id="text_11">
      <!-- 0.75 -->
      <g transform="translate(20.878125 185.354293) scale(0.1 -0.1)">
       <defs>
        <path id="DejaVuSans-37" d="M 525 4666 
L 3525 4666 
L 3525 4397 
L 1831 0 
L 1172 0 
L 2766 4134 
L 525 4134 
L 525 4666 
z
" transform="scale(0.015625)"/>
       </defs>
       <use xlink:href="#DejaVuSans-30"/>
       <use xlink:href="#DejaVuSans-2e" transform="translate(63.623047 0)"/>
       <use xlink:href="#DejaVuSans-37" transform="translate(95.410156 0)"/>
       <use xlink:href="#DejaVuSans-35" transform="translate(159.033203 0)"/>
      </g>
     </g>
    </g>
    <g id="ytick_5">
     <g id="line2d_21">
      <path d="M 50.14375 148.765304 
L 647.72375 148.765304 
" clip-path="url(#p45c9903adb)" style="fill: none; stroke: #b0b0b0; stroke-opacity: 0.25; stroke-width: 0.8; stroke-linecap: square"/>
     </g>
     <g id="line2d_22">
      <g>
       <use xlink:href="#m48898747fb" x="50.14375" y="148.765304" style="stroke: #000000; stroke-width: 0.8"/>
      </g>
     </g>
     <g id="text_12">
      <!-- 1.00 -->
      <g transform="translate(20.878125 152.564523) scale(0.1 -0.1)">
       <use xlink:href="#DejaVuSans-31"/>
       <use xlink:href="#DejaVuSans-2e" transform="translate(63.623047 0)"/>
       <use xlink:href="#DejaVuSans-30" transform="translate(95.410156 0)"/>
       <use xlink:href="#DejaVuSans-30" transform="translate(159.033203 0)"/>
      </g>
     </g>
    </g>
    <g id="ytick_6">
     <g id="line2d_23">
      <path d="M 50.14375 115.975534 
L 647.72375 115.975534 
" clip-path="url(#p45c9903adb)" style="fill: none; stroke: #b0b0b0; stroke-opacity: 0.25; stroke-width: 0.8; stroke-linecap: square"/>
     </g>
     <g id="line2d_24">
      <g>
       <use xlink:href="#m48898747fb" x="50.14375" y="115.975534" style="stroke: #000000; stroke-width: 0.8"/>
      </g>
     </g>
     <g id="text_13">
      <!-- 1.25 -->
      <g transform="translate(20.878125 119.774753) scale(0.1 -0.1)">
       <use xlink:href="#DejaVuSans-31"/>
       <use xlink:href="#DejaVuSans-2e" transform="translate(63.623047 0)"/>
       <use xlink:href="#DejaVuSans-32" transform="translate(95.410156 0)"/>
       <use xlink:href="#DejaVuSans-35" transform="translate(159.033203 0)"/>
      </g>
     </g>
    </g>
    <g id="ytick_7">
     <g id="line2d_25">
      <path d="M 50.14375 83.185764 
L 647.72375 83.185764 
" clip-path="url(#p45c9903adb)" style="fill: none; stroke: #b0b0b0; stroke-opacity: 0.25; stroke-width: 0.8; stroke-linecap: square"/>
     </g>
     <g id="line2d_26">
      <g>
       <use xlink:href="#m48898747fb" x="50.14375" y="83.185764" style="stroke: #000000; stroke-width: 0.8"/>
      </g>
     </g>
     <g id="text_14">
      <!-- 1.50 -->
      <g transform="translate(20.878125 86.984983) scale(0.1 -0.1)">
       <use xlink:href="#DejaVuSans-31"/>
       <use xlink:href="#DejaVuSans-2e" transform="translate(63.623047 0)"/>
       <use xlink:href="#DejaVuSans-35" transform="translate(95.410156 0)"/>
       <use xlink:href="#DejaVuSans-30" transform="translate(159.033203 0)"/>
      </g>
     </g>
    </g>
    <g id="ytick_8">
     <g id="line2d_27">
      <path d="M 50.14375 50.395994 
L 647.72375 50.395994 
" clip-path="url(#p45c9903adb)" style="fill: none; stroke: #b0b0b0; stroke-opacity: 0.25; stroke-width: 0.8; stroke-linecap: square"/>
     </g>
     <g id="line2d_28">
      <g>
       <use xlink:href="#m48898747fb" x="50.14375" y="50.395994" style="stroke: #000000; stroke-width: 0.8"/>
      </g>
     </g>
     <g id="text_15">
      <!-- 1.75 -->
      <g transform="translate(20.878125 54.195213) scale(0.1 -0.1)">
       <use xlink:href="#DejaVuSans-31"/>
       <use xlink:href="#DejaVuSans-2e" transform="translate(63.623047 0)"/>
       <use xlink:href="#DejaVuSans-37" transform="translate(95.410156 0)"/>
       <use xlink:href="#DejaVuSans-35" transform="translate(159.033203 0)"/>
      </g>
     </g>
    </g>
    <g id="text_16">
     <!-- Cumulative return -->
     <g transform="translate(14.798438 202.509844) rotate(-90) scale(0.1 -0.1)">
      <defs>
       <path id="DejaVuSans-43" d="M 4122 4306 
L 4122 3641 
Q 3803 3938 3442 4084 
Q 3081 4231 2675 4231 
Q 1875 4231 1450 3742 
Q 1025 3253 1025 2328 
Q 1025 1406 1450 917 
Q 1875 428 2675 428 
Q 3081 428 3442 575 
Q 3803 722 4122 1019 
L 4122 359 
Q 3791 134 3420 21 
Q 3050 -91 2638 -91 
Q 1578 -91 968 557 
Q 359 1206 359 2328 
Q 359 3453 968 4101 
Q 1578 4750 2638 4750 
Q 3056 4750 3426 4639 
Q 3797 4528 4122 4306 
z
" transform="scale(0.015625)"/>
       <path id="DejaVuSans-75" d="M 544 1381 
L 544 3500 
L 1119 3500 
L 1119 1403 
Q 1119 906 1312 657 
Q 1506 409 1894 409 
Q 2359 409 2629 706 
Q 2900 1003 2900 1516 
L 2900 3500 
L 3475 3500 
L 3475 0 
L 2900 0 
L 2900 538 
Q 2691 219 2414 64 
Q 2138 -91 1772 -91 
Q 1169 -91 856 284 
Q 544 659 544 1381 
z
M 1991 3584 
L 1991 3584 
z
" transform="scale(0.015625)"/>
       <path id="DejaVuSans-6c" d="M 603 4863 
L 1178 4863 
L 1178 0 
L 603 0 
L 603 4863 
z
" transform="scale(0.015625)"/>
       <path id="DejaVuSans-69" d="M 603 3500 
L 1178 3500 
L 1178 0 
L 603 0 
L 603 3500 
z
M 603 4863 
L 1178 4863 
L 1178 4134 
L 603 4134 
L 603 4863 
z
" transform="scale(0.015625)"/>
       <path id="DejaVuSans-76" d="M 191 3500 
L 800 3500 
L 1894 563 
L 2988 3500 
L 3597 3500 
L 2284 0 
L 1503 0 
L 191 3500 
z
" transform="scale(0.015625)"/>
      </defs>
      <use xlink:href="#DejaVuSans-43"/>
      <use xlink:href="#DejaVuSans-75" transform="translate(69.824219 0)"/>
      <use xlink:href="#DejaVuSans-6d" transform="translate(133.203125 0)"/>
      <use xlink:href="#DejaVuSans-75" transform="translate(230.615234 0)"/>
      <use xlink:href="#DejaVuSans-6c" transform="translate(293.994141 0)"/>
      <use xlink:href="#DejaVuSans-61" transform="translate(321.777344 0)"/>
      <use xlink:href="#DejaVuSans-74" transform="translate(383.056641 0)"/>
      <use xlink:href="#DejaVuSans-69" transform="translate(422.265625 0)"/>
      <use xlink:href="#DejaVuSans-76" transform="translate(450.048828 0)"/>
      <use xlink:href="#DejaVuSans-65" transform="translate(509.228516 0)"/>
      <use xlink:href="#DejaVuSans-20" transform="translate(570.751953 0)"/>
      <use xlink:href="#DejaVuSans-72" transform="translate(602.539062 0)"/>
      <use xlink:href="#DejaVuSans-65" transform="translate(641.402344 0)"/>
      <use xlink:href="#DejaVuSans-74" transform="translate(702.925781 0)"/>
      <use xlink:href="#DejaVuSans-75" transform="translate(742.134766 0)"/>
      <use xlink:href="#DejaVuSans-72" transform="translate(805.513672 0)"/>
      <use xlink:href="#DejaVuSans-6e" transform="translate(844.876953 0)"/>
     </g>
    </g>
   </g>
   <g id="line2d_29">
    <path d="M 77.306477 279.625398 
L 81.575806 278.475562 
L 83.745464 276.669288 
L 85.845134 275.336781 
L 88.014793 275.021888 
L 90.184452 272.791309 
L 92.284121 272.235517 
L 94.45378 272.069813 
L 96.55345 274.48744 
L 98.723108 274.467299 
L 100.892767 273.623626 
L 102.852459 273.049248 
L 105.022118 272.763231 
L 107.121787 272.623944 
L 109.291446 271.749476 
L 111.391116 271.281163 
L 113.560774 270.983892 
L 115.730433 270.40474 
L 117.830103 270.200149 
L 119.999762 269.569276 
L 122.099431 269.089318 
L 124.26909 268.798422 
L 126.438749 267.795748 
L 132.667769 267.04283 
L 134.837428 266.143117 
L 136.937097 265.886085 
L 139.106756 265.006761 
L 141.276415 264.315414 
L 143.376084 263.988094 
L 145.545743 263.41948 
L 147.645413 263.321586 
L 149.815072 262.770516 
L 151.98473 261.927421 
L 156.114081 261.365734 
L 158.21375 260.534186 
L 162.483079 260.267558 
L 164.652738 259.834871 
L 166.822396 259.282459 
L 168.922066 258.276419 
L 171.091725 257.016927 
L 173.191394 256.974869 
L 175.361053 256.175429 
L 177.530712 254.602652 
L 179.560393 253.910842 
L 181.730051 252.851251 
L 188.099049 249.302396 
L 190.268708 247.615558 
L 192.438367 246.818506 
L 194.538037 245.283498 
L 196.707695 242.765856 
L 198.807365 236.856605 
L 200.977024 230.061913 
L 203.146682 225.500054 
L 205.106374 221.670734 
L 207.276033 222.245297 
L 209.375703 215.985178 
L 213.645031 209.726081 
L 215.81469 207.755251 
L 217.984348 204.589844 
L 220.084018 202.514958 
L 222.253677 201.524165 
L 226.523005 199.134267 
L 230.652356 197.7274 
L 232.822015 196.369263 
L 234.921684 195.817533 
L 239.191013 193.626805 
L 241.360671 200.047918 
L 245.63 197.533489 
L 247.799659 197.029418 
L 249.899328 195.984754 
L 252.068987 195.305351 
L 254.238646 194.117967 
L 256.198337 193.491769 
L 258.367996 192.946175 
L 260.467666 193.138419 
L 264.736994 192.143504 
L 266.906653 192.452041 
L 269.076312 191.954547 
L 271.175981 191.65746 
L 273.34564 189.921415 
L 275.44531 188.409122 
L 277.614969 188.167328 
L 279.784627 186.437785 
L 281.814308 185.123983 
L 283.983967 184.325411 
L 286.083636 183.250698 
L 288.253295 182.722218 
L 290.352965 182.405694 
L 292.522624 182.339112 
L 294.692282 182.023193 
L 298.961611 179.90835 
L 303.230939 179.102087 
L 305.400598 177.246118 
L 307.36029 176.531583 
L 309.529948 176.037252 
L 311.629618 174.64969 
L 315.898946 173.15781 
L 318.068605 172.023575 
L 320.238264 171.285315 
L 324.507592 170.177502 
L 328.776921 168.408116 
L 330.946579 167.642789 
L 332.906271 166.424766 
L 335.07593 165.486302 
L 337.1756 164.841855 
L 339.345258 164.613783 
L 341.444928 163.906455 
L 345.784245 163.3424 
L 347.883915 162.407048 
L 350.053574 161.758158 
L 352.153244 161.363966 
L 354.322902 160.452614 
L 356.492561 160.191728 
L 358.452253 158.729617 
L 360.621911 158.17612 
L 362.721581 157.521461 
L 364.89124 157.44014 
L 366.99091 157.027504 
L 369.160568 156.308083 
L 371.330227 155.302178 
L 373.429897 154.751372 
L 377.699225 153.270238 
L 379.868884 152.907266 
L 382.038543 152.301054 
L 386.237882 149.529721 
L 388.337552 148.939804 
L 390.50721 147.265109 
L 392.60688 147.221089 
L 394.776539 146.393974 
L 396.946198 145.152409 
L 399.045867 144.766324 
L 403.315196 142.147285 
L 405.484854 141.377532 
L 407.654513 139.699439 
L 409.614205 139.077966 
L 411.783864 138.696566 
L 416.053192 137.648736 
L 426.761508 134.898157 
L 428.861177 134.132399 
L 431.030836 134.020746 
L 433.200495 132.766244 
L 439.429515 131.40341 
L 441.599174 130.641507 
L 443.698843 130.462624 
L 445.868502 129.589066 
L 448.038161 129.081519 
L 450.13783 128.118182 
L 452.307489 127.490755 
L 454.407159 127.173116 
L 456.576818 126.489457 
L 458.746476 124.59273 
L 460.706168 123.41488 
L 462.875827 123.033154 
L 464.975497 121.649016 
L 467.145155 121.197927 
L 469.244825 120.588682 
L 471.414484 119.777024 
L 473.584142 119.339845 
L 475.683812 118.142517 
L 477.853471 117.802885 
L 482.122799 116.40812 
L 484.292458 114.962939 
L 486.322139 114.499857 
L 488.491797 112.689893 
L 490.591467 104.119328 
L 494.860796 98.159934 
L 497.030454 97.434781 
L 499.200113 95.114655 
L 501.299783 93.423614 
L 503.469441 92.278307 
L 505.569111 93.053863 
L 507.73877 91.738346 
L 509.908429 89.888749 
L 511.86812 87.229633 
L 514.037779 86.06379 
L 516.137449 85.250102 
L 518.307107 84.594475 
L 520.406777 83.713856 
L 522.576436 83.102175 
L 526.845764 80.634094 
L 529.015423 80.764331 
L 531.115093 80.017977 
L 533.284751 79.500114 
L 535.45441 77.911954 
L 537.414102 77.610457 
L 539.583761 77.136449 
L 541.68343 76.274383 
L 545.952759 75.420571 
L 548.122417 75.827453 
L 550.292076 72.690632 
L 552.391746 71.641624 
L 554.561405 70.233452 
L 556.661074 69.129336 
L 558.830733 66.991266 
L 561.000392 65.63747 
L 562.960083 63.367978 
L 565.129742 63.547531 
L 567.229412 61.223316 
L 569.399071 59.273928 
L 571.49874 58.55382 
L 573.668399 57.012617 
L 575.838058 55.762697 
L 577.937727 54.222577 
L 580.107386 52.810635 
L 582.207056 52.570047 
L 584.376715 51.678854 
L 586.546373 48.681529 
L 588.576054 47.589071 
L 590.745713 47.374024 
L 592.845382 45.511825 
L 595.015041 44.464573 
L 597.114711 42.751711 
L 599.28437 42.673618 
L 601.454028 42.273756 
L 603.553698 40.995253 
L 605.723357 40.51462 
L 607.823026 40.185365 
L 609.992685 38.774201 
L 612.162344 38.066938 
L 616.291694 35.977863 
L 618.391364 35.761234 
L 620.561023 34.570852 
L 620.561023 34.570852 
" clip-path="url(#p45c9903adb)" style="fill: none; stroke: #1f77b4; stroke-width: 2; stroke-linecap: square"/>
    <defs>
     <path id="m9732f7dc73" d="M 0 3 
C 0.795609 3 1.55874 2.683901 2.12132 2.12132 
C 2.683901 1.55874 3 0.795609 3 0 
C 3 -0.795609 2.683901 -1.55874 2.12132 -2.12132 
C 1.55874 -2.683901 0.795609 -3 0 -3 
C -0.795609 -3 -1.55874 -2.683901 -2.12132 -2.12132 
C -2.683901 -1.55874 -3 -0.795609 -3 0 
C -3 0.795609 -2.683901 1.55874 -2.12132 2.12132 
C -1.55874 2.683901 -0.795609 3 0 3 
z
" style="stroke: #1f77b4"/>
    </defs>
    <g clip-path="url(#p45c9903adb)">
     <use xlink:href="#m9732f7dc73" x="77.306477" y="279.625398" style="fill: #1f77b4; stroke: #1f77b4"/>
     <use xlink:href="#m9732f7dc73" x="79.476136" y="279.074503" style="fill: #1f77b4; stroke: #1f77b4"/>
     <use xlink:href="#m9732f7dc73" x="81.575806" y="278.475562" style="fill: #1f77b4; stroke: #1f77b4"/>
     <use xlink:href="#m9732f7dc73" x="83.745464" y="276.669288" style="fill: #1f77b4; stroke: #1f77b4"/>
     <use xlink:href="#m9732f7dc73" x="85.845134" y="275.336781" style="fill: #1f77b4; stroke: #1f77b4"/>
     <use xlink:href="#m9732f7dc73" x="88.014793" y="275.021888" style="fill: #1f77b4; stroke: #1f77b4"/>
     <use xlink:href="#m9732f7dc73" x="90.184452" y="272.791309" style="fill: #1f77b4; stroke: #1f77b4"/>
     <use xlink:href="#m9732f7dc73" x="92.284121" y="272.235517" style="fill: #1f77b4; stroke: #1f77b4"/>
     <use xlink:href="#m9732f7dc73" x="94.45378" y="272.069813" style="fill: #1f77b4; stroke: #1f77b4"/>
     <use xlink:href="#m9732f7dc73" x="96.55345" y="274.48744" style="fill: #1f77b4; stroke: #1f77b4"/>
     <use xlink:href="#m9732f7dc73" x="98.723108" y="274.467299" style="fill: #1f77b4; stroke: #1f77b4"/>
     <use xlink:href="#m9732f7dc73" x="100.892767" y="273.623626" style="fill: #1f77b4; stroke: #1f77b4"/>
     <use xlink:href="#m9732f7dc73" x="102.852459" y="273.049248" style="fill: #1f77b4; stroke: #1f77b4"/>
     <use xlink:href="#m9732f7dc73" x="105.022118" y="272.763231" style="fill: #1f77b4; stroke: #1f77b4"/>
     <use xlink:href="#m9732f7dc73" x="107.121787" y="272.623944" style="fill: #1f77b4; stroke: #1f77b4"/>
     <use xlink:href="#m9732f7dc73" x="109.291446" y="271.749476" style="fill: #1f77b4; stroke: #1f77b4"/>
     <use xlink:href="#m9732f7dc73" x="111.391116" y="271.281163" style="fill: #1f77b4; stroke: #1f77b4"/>
     <use xlink:href="#m9732f7dc73" x="113.560774" y="270.983892" style="fill: #1f77b4; stroke: #1f77b4"/>
     <use xlink:href="#m9732f7dc73" x="115.730433" y="270.40474" style="fill: #1f77b4; stroke: #1f77b4"/>
     <use xlink:href="#m9732f7dc73" x="117.830103" y="270.200149" style="fill: #1f77b4; stroke: #1f77b4"/>
     <use xlink:href="#m9732f7dc73" x="119.999762" y="269.569276" style="fill: #1f77b4; stroke: #1f77b4"/>
     <use xlink:href="#m9732f7dc73" x="122.099431" y="269.089318" style="fill: #1f77b4; stroke: #1f77b4"/>
     <use xlink:href="#m9732f7dc73" x="124.26909" y="268.798422" style="fill: #1f77b4; stroke: #1f77b4"/>
     <use xlink:href="#m9732f7dc73" x="126.438749" y="267.795748" style="fill: #1f77b4; stroke: #1f77b4"/>
     <use xlink:href="#m9732f7dc73" x="128.39844" y="267.586601" style="fill: #1f77b4; stroke: #1f77b4"/>
     <use xlink:href="#m9732f7dc73" x="130.568099" y="267.40134" style="fill: #1f77b4; stroke: #1f77b4"/>
     <use xlink:href="#m9732f7dc73" x="132.667769" y="267.04283" style="fill: #1f77b4; stroke: #1f77b4"/>
     <use xlink:href="#m9732f7dc73" x="134.837428" y="266.143117" style="fill: #1f77b4; stroke: #1f77b4"/>
     <use xlink:href="#m9732f7dc73" x="136.937097" y="265.886085" style="fill: #1f77b4; stroke: #1f77b4"/>
     <use xlink:href="#m9732f7dc73" x="139.106756" y="265.006761" style="fill: #1f77b4; stroke: #1f77b4"/>
     <use xlink:href="#m9732f7dc73" x="141.276415" y="264.315414" style="fill: #1f77b4; stroke: #1f77b4"/>
     <use xlink:href="#m9732f7dc73" x="143.376084" y="263.988094" style="fill: #1f77b4; stroke: #1f77b4"/>
     <use xlink:href="#m9732f7dc73" x="145.545743" y="263.41948" style="fill: #1f77b4; stroke: #1f77b4"/>
     <use xlink:href="#m9732f7dc73" x="147.645413" y="263.321586" style="fill: #1f77b4; stroke: #1f77b4"/>
     <use xlink:href="#m9732f7dc73" x="149.815072" y="262.770516" style="fill: #1f77b4; stroke: #1f77b4"/>
     <use xlink:href="#m9732f7dc73" x="151.98473" y="261.927421" style="fill: #1f77b4; stroke: #1f77b4"/>
     <use xlink:href="#m9732f7dc73" x="153.944422" y="261.685956" style="fill: #1f77b4; stroke: #1f77b4"/>
     <use xlink:href="#m9732f7dc73" x="156.114081" y="261.365734" style="fill: #1f77b4; stroke: #1f77b4"/>
     <use xlink:href="#m9732f7dc73" x="158.21375" y="260.534186" style="fill: #1f77b4; stroke: #1f77b4"/>
     <use xlink:href="#m9732f7dc73" x="160.383409" y="260.365322" style="fill: #1f77b4; stroke: #1f77b4"/>
     <use xlink:href="#m9732f7dc73" x="162.483079" y="260.267558" style="fill: #1f77b4; stroke: #1f77b4"/>
     <use xlink:href="#m9732f7dc73" x="164.652738" y="259.834871" style="fill: #1f77b4; stroke: #1f77b4"/>
     <use xlink:href="#m9732f7dc73" x="166.822396" y="259.282459" style="fill: #1f77b4; stroke: #1f77b4"/>
     <use xlink:href="#m9732f7dc73" x="168.922066" y="258.276419" style="fill: #1f77b4; stroke: #1f77b4"/>
     <use xlink:href="#m9732f7dc73" x="171.091725" y="257.016927" style="fill: #1f77b4; stroke: #1f77b4"/>
     <use xlink:href="#m9732f7dc73" x="173.191394" y="256.974869" style="fill: #1f77b4; stroke: #1f77b4"/>
     <use xlink:href="#m9732f7dc73" x="175.361053" y="256.175429" style="fill: #1f77b4; stroke: #1f77b4"/>
     <use xlink:href="#m9732f7dc73" x="177.530712" y="254.602652" style="fill: #1f77b4; stroke: #1f77b4"/>
     <use xlink:href="#m9732f7dc73" x="179.560393" y="253.910842" style="fill: #1f77b4; stroke: #1f77b4"/>
     <use xlink:href="#m9732f7dc73" x="181.730051" y="252.851251" style="fill: #1f77b4; stroke: #1f77b4"/>
     <use xlink:href="#m9732f7dc73" x="183.829721" y="251.688232" style="fill: #1f77b4; stroke: #1f77b4"/>
     <use xlink:href="#m9732f7dc73" x="185.99938" y="250.461616" style="fill: #1f77b4; stroke: #1f77b4"/>
     <use xlink:href="#m9732f7dc73" x="188.099049" y="249.302396" style="fill: #1f77b4; stroke: #1f77b4"/>
     <use xlink:href="#m9732f7dc73" x="190.268708" y="247.615558" style="fill: #1f77b4; stroke: #1f77b4"/>
     <use xlink:href="#m9732f7dc73" x="192.438367" y="246.818506" style="fill: #1f77b4; stroke: #1f77b4"/>
     <use xlink:href="#m9732f7dc73" x="194.538037" y="245.283498" style="fill: #1f77b4; stroke: #1f77b4"/>
     <use xlink:href="#m9732f7dc73" x="196.707695" y="242.765856" style="fill: #1f77b4; stroke: #1f77b4"/>
     <use xlink:href="#m9732f7dc73" x="198.807365" y="236.856605" style="fill: #1f77b4; stroke: #1f77b4"/>
     <use xlink:href="#m9732f7dc73" x="200.977024" y="230.061913" style="fill: #1f77b4; stroke: #1f77b4"/>
     <use xlink:href="#m9732f7dc73" x="203.146682" y="225.500054" style="fill: #1f77b4; stroke: #1f77b4"/>
     <use xlink:href="#m9732f7dc73" x="205.106374" y="221.670734" style="fill: #1f77b4; stroke: #1f77b4"/>
     <use xlink:href="#m9732f7dc73" x="207.276033" y="222.245297" style="fill: #1f77b4; stroke: #1f77b4"/>
     <use xlink:href="#m9732f7dc73" x="209.375703" y="215.985178" style="fill: #1f77b4; stroke: #1f77b4"/>
     <use xlink:href="#m9732f7dc73" x="211.545361" y="212.858351" style="fill: #1f77b4; stroke: #1f77b4"/>
     <use xlink:href="#m9732f7dc73" x="213.645031" y="209.726081" style="fill: #1f77b4; stroke: #1f77b4"/>
     <use xlink:href="#m9732f7dc73" x="215.81469" y="207.755251" style="fill: #1f77b4; stroke: #1f77b4"/>
     <use xlink:href="#m9732f7dc73" x="217.984348" y="204.589844" style="fill: #1f77b4; stroke: #1f77b4"/>
     <use xlink:href="#m9732f7dc73" x="220.084018" y="202.514958" style="fill: #1f77b4; stroke: #1f77b4"/>
     <use xlink:href="#m9732f7dc73" x="222.253677" y="201.524165" style="fill: #1f77b4; stroke: #1f77b4"/>
     <use xlink:href="#m9732f7dc73" x="224.353347" y="200.359632" style="fill: #1f77b4; stroke: #1f77b4"/>
     <use xlink:href="#m9732f7dc73" x="226.523005" y="199.134267" style="fill: #1f77b4; stroke: #1f77b4"/>
     <use xlink:href="#m9732f7dc73" x="228.692664" y="198.451632" style="fill: #1f77b4; stroke: #1f77b4"/>
     <use xlink:href="#m9732f7dc73" x="230.652356" y="197.7274" style="fill: #1f77b4; stroke: #1f77b4"/>
     <use xlink:href="#m9732f7dc73" x="232.822015" y="196.369263" style="fill: #1f77b4; stroke: #1f77b4"/>
     <use xlink:href="#m9732f7dc73" x="234.921684" y="195.817533" style="fill: #1f77b4; stroke: #1f77b4"/>
     <use xlink:href="#m9732f7dc73" x="237.091343" y="194.690456" style="fill: #1f77b4; stroke: #1f77b4"/>
     <use xlink:href="#m9732f7dc73" x="239.191013" y="193.626805" style="fill: #1f77b4; stroke: #1f77b4"/>
     <use xlink:href="#m9732f7dc73" x="241.360671" y="200.047918" style="fill: #1f77b4; stroke: #1f77b4"/>
     <use xlink:href="#m9732f7dc73" x="243.53033" y="198.743284" style="fill: #1f77b4; stroke: #1f77b4"/>
     <use xlink:href="#m9732f7dc73" x="245.63" y="197.533489" style="fill: #1f77b4; stroke: #1f77b4"/>
     <use xlink:href="#m9732f7dc73" x="247.799659" y="197.029418" style="fill: #1f77b4; stroke: #1f77b4"/>
     <use xlink:href="#m9732f7dc73" x="249.899328" y="195.984754" style="fill: #1f77b4; stroke: #1f77b4"/>
     <use xlink:href="#m9732f7dc73" x="252.068987" y="195.305351" style="fill: #1f77b4; stroke: #1f77b4"/>
     <use xlink:href="#m9732f7dc73" x="254.238646" y="194.117967" style="fill: #1f77b4; stroke: #1f77b4"/>
     <use xlink:href="#m9732f7dc73" x="256.198337" y="193.491769" style="fill: #1f77b4; stroke: #1f77b4"/>
     <use xlink:href="#m9732f7dc73" x="258.367996" y="192.946175" style="fill: #1f77b4; stroke: #1f77b4"/>
     <use xlink:href="#m9732f7dc73" x="260.467666" y="193.138419" style="fill: #1f77b4; stroke: #1f77b4"/>
     <use xlink:href="#m9732f7dc73" x="262.637325" y="192.664727" style="fill: #1f77b4; stroke: #1f77b4"/>
     <use xlink:href="#m9732f7dc73" x="264.736994" y="192.143504" style="fill: #1f77b4; stroke: #1f77b4"/>
     <use xlink:href="#m9732f7dc73" x="266.906653" y="192.452041" style="fill: #1f77b4; stroke: #1f77b4"/>
     <use xlink:href="#m9732f7dc73" x="269.076312" y="191.954547" style="fill: #1f77b4; stroke: #1f77b4"/>
     <use xlink:href="#m9732f7dc73" x="271.175981" y="191.65746" style="fill: #1f77b4; stroke: #1f77b4"/>
     <use xlink:href="#m9732f7dc73" x="273.34564" y="189.921415" style="fill: #1f77b4; stroke: #1f77b4"/>
     <use xlink:href="#m9732f7dc73" x="275.44531" y="188.409122" style="fill: #1f77b4; stroke: #1f77b4"/>
     <use xlink:href="#m9732f7dc73" x="277.614969" y="188.167328" style="fill: #1f77b4; stroke: #1f77b4"/>
     <use xlink:href="#m9732f7dc73" x="279.784627" y="186.437785" style="fill: #1f77b4; stroke: #1f77b4"/>
     <use xlink:href="#m9732f7dc73" x="281.814308" y="185.123983" style="fill: #1f77b4; stroke: #1f77b4"/>
     <use xlink:href="#m9732f7dc73" x="283.983967" y="184.325411" style="fill: #1f77b4; stroke: #1f77b4"/>
     <use xlink:href="#m9732f7dc73" x="286.083636" y="183.250698" style="fill: #1f77b4; stroke: #1f77b4"/>
     <use xlink:href="#m9732f7dc73" x="288.253295" y="182.722218" style="fill: #1f77b4; stroke: #1f77b4"/>
     <use xlink:href="#m9732f7dc73" x="290.352965" y="182.405694" style="fill: #1f77b4; stroke: #1f77b4"/>
     <use xlink:href="#m9732f7dc73" x="292.522624" y="182.339112" style="fill: #1f77b4; stroke: #1f77b4"/>
     <use xlink:href="#m9732f7dc73" x="294.692282" y="182.023193" style="fill: #1f77b4; stroke: #1f77b4"/>
     <use xlink:href="#m9732f7dc73" x="296.791952" y="180.957439" style="fill: #1f77b4; stroke: #1f77b4"/>
     <use xlink:href="#m9732f7dc73" x="298.961611" y="179.90835" style="fill: #1f77b4; stroke: #1f77b4"/>
     <use xlink:href="#m9732f7dc73" x="301.06128" y="179.46675" style="fill: #1f77b4; stroke: #1f77b4"/>
     <use xlink:href="#m9732f7dc73" x="303.230939" y="179.102087" style="fill: #1f77b4; stroke: #1f77b4"/>
     <use xlink:href="#m9732f7dc73" x="305.400598" y="177.246118" style="fill: #1f77b4; stroke: #1f77b4"/>
     <use xlink:href="#m9732f7dc73" x="307.36029" y="176.531583" style="fill: #1f77b4; stroke: #1f77b4"/>
     <use xlink:href="#m9732f7dc73" x="309.529948" y="176.037252" style="fill: #1f77b4; stroke: #1f77b4"/>
     <use xlink:href="#m9732f7dc73" x="311.629618" y="174.64969" style="fill: #1f77b4; stroke: #1f77b4"/>
     <use xlink:href="#m9732f7dc73" x="313.799277" y="173.913507" style="fill: #1f77b4; stroke: #1f77b4"/>
     <use xlink:href="#m9732f7dc73" x="315.898946" y="173.15781" style="fill: #1f77b4; stroke: #1f77b4"/>
     <use xlink:href="#m9732f7dc73" x="318.068605" y="172.023575" style="fill: #1f77b4; stroke: #1f77b4"/>
     <use xlink:href="#m9732f7dc73" x="320.238264" y="171.285315" style="fill: #1f77b4; stroke: #1f77b4"/>
     <use xlink:href="#m9732f7dc73" x="322.337934" y="170.762818" style="fill: #1f77b4; stroke: #1f77b4"/>
     <use xlink:href="#m9732f7dc73" x="324.507592" y="170.177502" style="fill: #1f77b4; stroke: #1f77b4"/>
     <use xlink:href="#m9732f7dc73" x="326.607262" y="169.288154" style="fill: #1f77b4; stroke: #1f77b4"/>
     <use xlink:href="#m9732f7dc73" x="328.776921" y="168.408116" style="fill: #1f77b4; stroke: #1f77b4"/>
     <use xlink:href="#m9732f7dc73" x="330.946579" y="167.642789" style="fill: #1f77b4; stroke: #1f77b4"/>
     <use xlink:href="#m9732f7dc73" x="332.906271" y="166.424766" style="fill: #1f77b4; stroke: #1f77b4"/>
     <use xlink:href="#m9732f7dc73" x="335.07593" y="165.486302" style="fill: #1f77b4; stroke: #1f77b4"/>
     <use xlink:href="#m9732f7dc73" x="337.1756" y="164.841855" style="fill: #1f77b4; stroke: #1f77b4"/>
     <use xlink:href="#m9732f7dc73" x="339.345258" y="164.613783" style="fill: #1f77b4; stroke: #1f77b4"/>
     <use xlink:href="#m9732f7dc73" x="341.444928" y="163.906455" style="fill: #1f77b4; stroke: #1f77b4"/>
     <use xlink:href="#m9732f7dc73" x="343.614587" y="163.572977" style="fill: #1f77b4; stroke: #1f77b4"/>
     <use xlink:href="#m9732f7dc73" x="345.784245" y="163.3424" style="fill: #1f77b4; stroke: #1f77b4"/>
     <use xlink:href="#m9732f7dc73" x="347.883915" y="162.407048" style="fill: #1f77b4; stroke: #1f77b4"/>
     <use xlink:href="#m9732f7dc73" x="350.053574" y="161.758158" style="fill: #1f77b4; stroke: #1f77b4"/>
     <use xlink:href="#m9732f7dc73" x="352.153244" y="161.363966" style="fill: #1f77b4; stroke: #1f77b4"/>
     <use xlink:href="#m9732f7dc73" x="354.322902" y="160.452614" style="fill: #1f77b4; stroke: #1f77b4"/>
     <use xlink:href="#m9732f7dc73" x="356.492561" y="160.191728" style="fill: #1f77b4; stroke: #1f77b4"/>
     <use xlink:href="#m9732f7dc73" x="358.452253" y="158.729617" style="fill: #1f77b4; stroke: #1f77b4"/>
     <use xlink:href="#m9732f7dc73" x="360.621911" y="158.17612" style="fill: #1f77b4; stroke: #1f77b4"/>
     <use xlink:href="#m9732f7dc73" x="362.721581" y="157.521461" style="fill: #1f77b4; stroke: #1f77b4"/>
     <use xlink:href="#m9732f7dc73" x="364.89124" y="157.44014" style="fill: #1f77b4; stroke: #1f77b4"/>
     <use xlink:href="#m9732f7dc73" x="366.99091" y="157.027504" style="fill: #1f77b4; stroke: #1f77b4"/>
     <use xlink:href="#m9732f7dc73" x="369.160568" y="156.308083" style="fill: #1f77b4; stroke: #1f77b4"/>
     <use xlink:href="#m9732f7dc73" x="371.330227" y="155.302178" style="fill: #1f77b4; stroke: #1f77b4"/>
     <use xlink:href="#m9732f7dc73" x="373.429897" y="154.751372" style="fill: #1f77b4; stroke: #1f77b4"/>
     <use xlink:href="#m9732f7dc73" x="375.599555" y="154.014378" style="fill: #1f77b4; stroke: #1f77b4"/>
     <use xlink:href="#m9732f7dc73" x="377.699225" y="153.270238" style="fill: #1f77b4; stroke: #1f77b4"/>
     <use xlink:href="#m9732f7dc73" x="379.868884" y="152.907266" style="fill: #1f77b4; stroke: #1f77b4"/>
     <use xlink:href="#m9732f7dc73" x="382.038543" y="152.301054" style="fill: #1f77b4; stroke: #1f77b4"/>
     <use xlink:href="#m9732f7dc73" x="384.068223" y="150.905365" style="fill: #1f77b4; stroke: #1f77b4"/>
     <use xlink:href="#m9732f7dc73" x="386.237882" y="149.529721" style="fill: #1f77b4; stroke: #1f77b4"/>
     <use xlink:href="#m9732f7dc73" x="388.337552" y="148.939804" style="fill: #1f77b4; stroke: #1f77b4"/>
     <use xlink:href="#m9732f7dc73" x="390.50721" y="147.265109" style="fill: #1f77b4; stroke: #1f77b4"/>
     <use xlink:href="#m9732f7dc73" x="392.60688" y="147.221089" style="fill: #1f77b4; stroke: #1f77b4"/>
     <use xlink:href="#m9732f7dc73" x="394.776539" y="146.393974" style="fill: #1f77b4; stroke: #1f77b4"/>
     <use xlink:href="#m9732f7dc73" x="396.946198" y="145.152409" style="fill: #1f77b4; stroke: #1f77b4"/>
     <use xlink:href="#m9732f7dc73" x="399.045867" y="144.766324" style="fill: #1f77b4; stroke: #1f77b4"/>
     <use xlink:href="#m9732f7dc73" x="401.215526" y="143.457092" style="fill: #1f77b4; stroke: #1f77b4"/>
     <use xlink:href="#m9732f7dc73" x="403.315196" y="142.147285" style="fill: #1f77b4; stroke: #1f77b4"/>
     <use xlink:href="#m9732f7dc73" x="405.484854" y="141.377532" style="fill: #1f77b4; stroke: #1f77b4"/>
     <use xlink:href="#m9732f7dc73" x="407.654513" y="139.699439" style="fill: #1f77b4; stroke: #1f77b4"/>
     <use xlink:href="#m9732f7dc73" x="409.614205" y="139.077966" style="fill: #1f77b4; stroke: #1f77b4"/>
     <use xlink:href="#m9732f7dc73" x="411.783864" y="138.696566" style="fill: #1f77b4; stroke: #1f77b4"/>
     <use xlink:href="#m9732f7dc73" x="413.883533" y="138.128228" style="fill: #1f77b4; stroke: #1f77b4"/>
     <use xlink:href="#m9732f7dc73" x="416.053192" y="137.648736" style="fill: #1f77b4; stroke: #1f77b4"/>
     <use xlink:href="#m9732f7dc73" x="418.152862" y="137.120333" style="fill: #1f77b4; stroke: #1f77b4"/>
     <use xlink:href="#m9732f7dc73" x="420.32252" y="136.660054" style="fill: #1f77b4; stroke: #1f77b4"/>
     <use xlink:href="#m9732f7dc73" x="422.492179" y="136.119032" style="fill: #1f77b4; stroke: #1f77b4"/>
     <use xlink:href="#m9732f7dc73" x="424.591849" y="135.605985" style="fill: #1f77b4; stroke: #1f77b4"/>
     <use xlink:href="#m9732f7dc73" x="426.761508" y="134.898157" style="fill: #1f77b4; stroke: #1f77b4"/>
     <use xlink:href="#m9732f7dc73" x="428.861177" y="134.132399" style="fill: #1f77b4; stroke: #1f77b4"/>
     <use xlink:href="#m9732f7dc73" x="431.030836" y="134.020746" style="fill: #1f77b4; stroke: #1f77b4"/>
     <use xlink:href="#m9732f7dc73" x="433.200495" y="132.766244" style="fill: #1f77b4; stroke: #1f77b4"/>
     <use xlink:href="#m9732f7dc73" x="435.160186" y="132.365843" style="fill: #1f77b4; stroke: #1f77b4"/>
     <use xlink:href="#m9732f7dc73" x="437.329845" y="131.980115" style="fill: #1f77b4; stroke: #1f77b4"/>
     <use xlink:href="#m9732f7dc73" x="439.429515" y="131.40341" style="fill: #1f77b4; stroke: #1f77b4"/>
     <use xlink:href="#m9732f7dc73" x="441.599174" y="130.641507" style="fill: #1f77b4; stroke: #1f77b4"/>
     <use xlink:href="#m9732f7dc73" x="443.698843" y="130.462624" style="fill: #1f77b4; stroke: #1f77b4"/>
     <use xlink:href="#m9732f7dc73" x="445.868502" y="129.589066" style="fill: #1f77b4; stroke: #1f77b4"/>
     <use xlink:href="#m9732f7dc73" x="448.038161" y="129.081519" style="fill: #1f77b4; stroke: #1f77b4"/>
     <use xlink:href="#m9732f7dc73" x="450.13783" y="128.118182" style="fill: #1f77b4; stroke: #1f77b4"/>
     <use xlink:href="#m9732f7dc73" x="452.307489" y="127.490755" style="fill: #1f77b4; stroke: #1f77b4"/>
     <use xlink:href="#m9732f7dc73" x="454.407159" y="127.173116" style="fill: #1f77b4; stroke: #1f77b4"/>
     <use xlink:href="#m9732f7dc73" x="456.576818" y="126.489457" style="fill: #1f77b4; stroke: #1f77b4"/>
     <use xlink:href="#m9732f7dc73" x="458.746476" y="124.59273" style="fill: #1f77b4; stroke: #1f77b4"/>
     <use xlink:href="#m9732f7dc73" x="460.706168" y="123.41488" style="fill: #1f77b4; stroke: #1f77b4"/>
     <use xlink:href="#m9732f7dc73" x="462.875827" y="123.033154" style="fill: #1f77b4; stroke: #1f77b4"/>
     <use xlink:href="#m9732f7dc73" x="464.975497" y="121.649016" style="fill: #1f77b4; stroke: #1f77b4"/>
     <use xlink:href="#m9732f7dc73" x="467.145155" y="121.197927" style="fill: #1f77b4; stroke: #1f77b4"/>
     <use xlink:href="#m9732f7dc73" x="469.244825" y="120.588682" style="fill: #1f77b4; stroke: #1f77b4"/>
     <use xlink:href="#m9732f7dc73" x="471.414484" y="119.777024" style="fill: #1f77b4; stroke: #1f77b4"/>
     <use xlink:href="#m9732f7dc73" x="473.584142" y="119.339845" style="fill: #1f77b4; stroke: #1f77b4"/>
     <use xlink:href="#m9732f7dc73" x="475.683812" y="118.142517" style="fill: #1f77b4; stroke: #1f77b4"/>
     <use xlink:href="#m9732f7dc73" x="477.853471" y="117.802885" style="fill: #1f77b4; stroke: #1f77b4"/>
     <use xlink:href="#m9732f7dc73" x="479.953141" y="117.152106" style="fill: #1f77b4; stroke: #1f77b4"/>
     <use xlink:href="#m9732f7dc73" x="482.122799" y="116.40812" style="fill: #1f77b4; stroke: #1f77b4"/>
     <use xlink:href="#m9732f7dc73" x="484.292458" y="114.962939" style="fill: #1f77b4; stroke: #1f77b4"/>
     <use xlink:href="#m9732f7dc73" x="486.322139" y="114.499857" style="fill: #1f77b4; stroke: #1f77b4"/>
     <use xlink:href="#m9732f7dc73" x="488.491797" y="112.689893" style="fill: #1f77b4; stroke: #1f77b4"/>
     <use xlink:href="#m9732f7dc73" x="490.591467" y="104.119328" style="fill: #1f77b4; stroke: #1f77b4"/>
     <use xlink:href="#m9732f7dc73" x="492.761126" y="101.041132" style="fill: #1f77b4; stroke: #1f77b4"/>
     <use xlink:href="#m9732f7dc73" x="494.860796" y="98.159934" style="fill: #1f77b4; stroke: #1f77b4"/>
     <use xlink:href="#m9732f7dc73" x="497.030454" y="97.434781" style="fill: #1f77b4; stroke: #1f77b4"/>
     <use xlink:href="#m9732f7dc73" x="499.200113" y="95.114655" style="fill: #1f77b4; stroke: #1f77b4"/>
     <use xlink:href="#m9732f7dc73" x="501.299783" y="93.423614" style="fill: #1f77b4; stroke: #1f77b4"/>
     <use xlink:href="#m9732f7dc73" x="503.469441" y="92.278307" style="fill: #1f77b4; stroke: #1f77b4"/>
     <use xlink:href="#m9732f7dc73" x="505.569111" y="93.053863" style="fill: #1f77b4; stroke: #1f77b4"/>
     <use xlink:href="#m9732f7dc73" x="507.73877" y="91.738346" style="fill: #1f77b4; stroke: #1f77b4"/>
     <use xlink:href="#m9732f7dc73" x="509.908429" y="89.888749" style="fill: #1f77b4; stroke: #1f77b4"/>
     <use xlink:href="#m9732f7dc73" x="511.86812" y="87.229633" style="fill: #1f77b4; stroke: #1f77b4"/>
     <use xlink:href="#m9732f7dc73" x="514.037779" y="86.06379" style="fill: #1f77b4; stroke: #1f77b4"/>
     <use xlink:href="#m9732f7dc73" x="516.137449" y="85.250102" style="fill: #1f77b4; stroke: #1f77b4"/>
     <use xlink:href="#m9732f7dc73" x="518.307107" y="84.594475" style="fill: #1f77b4; stroke: #1f77b4"/>
     <use xlink:href="#m9732f7dc73" x="520.406777" y="83.713856" style="fill: #1f77b4; stroke: #1f77b4"/>
     <use xlink:href="#m9732f7dc73" x="522.576436" y="83.102175" style="fill: #1f77b4; stroke: #1f77b4"/>
     <use xlink:href="#m9732f7dc73" x="524.746095" y="81.887807" style="fill: #1f77b4; stroke: #1f77b4"/>
     <use xlink:href="#m9732f7dc73" x="526.845764" y="80.634094" style="fill: #1f77b4; stroke: #1f77b4"/>
     <use xlink:href="#m9732f7dc73" x="529.015423" y="80.764331" style="fill: #1f77b4; stroke: #1f77b4"/>
     <use xlink:href="#m9732f7dc73" x="531.115093" y="80.017977" style="fill: #1f77b4; stroke: #1f77b4"/>
     <use xlink:href="#m9732f7dc73" x="533.284751" y="79.500114" style="fill: #1f77b4; stroke: #1f77b4"/>
     <use xlink:href="#m9732f7dc73" x="535.45441" y="77.911954" style="fill: #1f77b4; stroke: #1f77b4"/>
     <use xlink:href="#m9732f7dc73" x="537.414102" y="77.610457" style="fill: #1f77b4; stroke: #1f77b4"/>
     <use xlink:href="#m9732f7dc73" x="539.583761" y="77.136449" style="fill: #1f77b4; stroke: #1f77b4"/>
     <use xlink:href="#m9732f7dc73" x="541.68343" y="76.274383" style="fill: #1f77b4; stroke: #1f77b4"/>
     <use xlink:href="#m9732f7dc73" x="543.853089" y="75.877059" style="fill: #1f77b4; stroke: #1f77b4"/>
     <use xlink:href="#m9732f7dc73" x="545.952759" y="75.420571" style="fill: #1f77b4; stroke: #1f77b4"/>
     <use xlink:href="#m9732f7dc73" x="548.122417" y="75.827453" style="fill: #1f77b4; stroke: #1f77b4"/>
     <use xlink:href="#m9732f7dc73" x="550.292076" y="72.690632" style="fill: #1f77b4; stroke: #1f77b4"/>
     <use xlink:href="#m9732f7dc73" x="552.391746" y="71.641624" style="fill: #1f77b4; stroke: #1f77b4"/>
     <use xlink:href="#m9732f7dc73" x="554.561405" y="70.233452" style="fill: #1f77b4; stroke: #1f77b4"/>
     <use xlink:href="#m9732f7dc73" x="556.661074" y="69.129336" style="fill: #1f77b4; stroke: #1f77b4"/>
     <use xlink:href="#m9732f7dc73" x="558.830733" y="66.991266" style="fill: #1f77b4; stroke: #1f77b4"/>
     <use xlink:href="#m9732f7dc73" x="561.000392" y="65.63747" style="fill: #1f77b4; stroke: #1f77b4"/>
     <use xlink:href="#m9732f7dc73" x="562.960083" y="63.367978" style="fill: #1f77b4; stroke: #1f77b4"/>
     <use xlink:href="#m9732f7dc73" x="565.129742" y="63.547531" style="fill: #1f77b4; stroke: #1f77b4"/>
     <use xlink:href="#m9732f7dc73" x="567.229412" y="61.223316" style="fill: #1f77b4; stroke: #1f77b4"/>
     <use xlink:href="#m9732f7dc73" x="569.399071" y="59.273928" style="fill: #1f77b4; stroke: #1f77b4"/>
     <use xlink:href="#m9732f7dc73" x="571.49874" y="58.55382" style="fill: #1f77b4; stroke: #1f77b4"/>
     <use xlink:href="#m9732f7dc73" x="573.668399" y="57.012617" style="fill: #1f77b4; stroke: #1f77b4"/>
     <use xlink:href="#m9732f7dc73" x="575.838058" y="55.762697" style="fill: #1f77b4; stroke: #1f77b4"/>
     <use xlink:href="#m9732f7dc73" x="577.937727" y="54.222577" style="fill: #1f77b4; stroke: #1f77b4"/>
     <use xlink:href="#m9732f7dc73" x="580.107386" y="52.810635" style="fill: #1f77b4; stroke: #1f77b4"/>
     <use xlink:href="#m9732f7dc73" x="582.207056" y="52.570047" style="fill: #1f77b4; stroke: #1f77b4"/>
     <use xlink:href="#m9732f7dc73" x="584.376715" y="51.678854" style="fill: #1f77b4; stroke: #1f77b4"/>
     <use xlink:href="#m9732f7dc73" x="586.546373" y="48.681529" style="fill: #1f77b4; stroke: #1f77b4"/>
     <use xlink:href="#m9732f7dc73" x="588.576054" y="47.589071" style="fill: #1f77b4; stroke: #1f77b4"/>
     <use xlink:href="#m9732f7dc73" x="590.745713" y="47.374024" style="fill: #1f77b4; stroke: #1f77b4"/>
     <use xlink:href="#m9732f7dc73" x="592.845382" y="45.511825" style="fill: #1f77b4; stroke: #1f77b4"/>
     <use xlink:href="#m9732f7dc73" x="595.015041" y="44.464573" style="fill: #1f77b4; stroke: #1f77b4"/>
     <use xlink:href="#m9732f7dc73" x="597.114711" y="42.751711" style="fill: #1f77b4; stroke: #1f77b4"/>
     <use xlink:href="#m9732f7dc73" x="599.28437" y="42.673618" style="fill: #1f77b4; stroke: #1f77b4"/>
     <use xlink:href="#m9732f7dc73" x="601.454028" y="42.273756" style="fill: #1f77b4; stroke: #1f77b4"/>
     <use xlink:href="#m9732f7dc73" x="603.553698" y="40.995253" style="fill: #1f77b4; stroke: #1f77b4"/>
     <use xlink:href="#m9732f7dc73" x="605.723357" y="40.51462" style="fill: #1f77b4; stroke: #1f77b4"/>
     <use xlink:href="#m9732f7dc73" x="607.823026" y="40.185365" style="fill: #1f77b4; stroke: #1f77b4"/>
     <use xlink:href="#m9732f7dc73" x="609.992685" y="38.774201" style="fill: #1f77b4; stroke: #1f77b4"/>
     <use xlink:href="#m9732f7dc73" x="612.162344" y="38.066938" style="fill: #1f77b4; stroke: #1f77b4"/>
     <use xlink:href="#m9732f7dc73" x="614.122036" y="37.089915" style="fill: #1f77b4; stroke: #1f77b4"/>
     <use xlink:href="#m9732f7dc73" x="616.291694" y="35.977863" style="fill: #1f77b4; stroke: #1f77b4"/>
     <use xlink:href="#m9732f7dc73" x="618.391364" y="35.761234" style="fill: #1f77b4; stroke: #1f77b4"/>
     <use xlink:href="#m9732f7dc73" x="620.561023" y="34.570852" style="fill: #1f77b4; stroke: #1f77b4"/>
    </g>
   </g>
   <g id="line2d_30">
    <path d="M 50.14375 279.924384 
L 647.72375 279.924384 
" clip-path="url(#p45c9903adb)" style="fill: none; stroke: #666666; stroke-linecap: square"/>
   </g>
   <g id="patch_3">
    <path d="M 50.14375 291.878125 
L 50.14375 22.318125 
" style="fill: none; stroke: #000000; stroke-width: 0.8; stroke-linejoin: miter; stroke-linecap: square"/>
   </g>
   <g id="patch_4">
    <path d="M 647.72375 291.878125 
L 647.72375 22.318125 
" style="fill: none; stroke: #000000; stroke-width: 0.8; stroke-linejoin: miter; stroke-linecap: square"/>
   </g>
   <g id="patch_5">
    <path d="M 50.14375 291.878125 
L 647.72375 291.878125 
" style="fill: none; stroke: #000000; stroke-width: 0.8; stroke-linejoin: miter; stroke-linecap: square"/>
   </g>
   <g id="patch_6">
    <path d="M 50.14375 22.318125 
L 647.72375 22.318125 
" style="fill: none; stroke: #000000; stroke-width: 0.8; stroke-linejoin: miter; stroke-linecap: square"/>
   </g>
   <g id="text_17">
    <!-- 7.0 Pilot Residual Sort: Cumulative Return -->
    <g transform="translate(223.20375 16.318125) scale(0.12 -0.12)">
     <defs>
      <path id="DejaVuSans-50" d="M 1259 4147 
L 1259 2394 
L 2053 2394 
Q 2494 2394 2734 2622 
Q 2975 2850 2975 3272 
Q 2975 3691 2734 3919 
Q 2494 4147 2053 4147 
L 1259 4147 
z
M 628 4666 
L 2053 4666 
Q 2838 4666 3239 4311 
Q 3641 3956 3641 3272 
Q 3641 2581 3239 2228 
Q 2838 1875 2053 1875 
L 1259 1875 
L 1259 0 
L 628 0 
L 628 4666 
z
" transform="scale(0.015625)"/>
      <path id="DejaVuSans-52" d="M 2841 2188 
Q 3044 2119 3236 1894 
Q 3428 1669 3622 1275 
L 4263 0 
L 3584 0 
L 2988 1197 
Q 2756 1666 2539 1819 
Q 2322 1972 1947 1972 
L 1259 1972 
L 1259 0 
L 628 0 
L 628 4666 
L 2053 4666 
Q 2853 4666 3247 4331 
Q 3641 3997 3641 3322 
Q 3641 2881 3436 2590 
Q 3231 2300 2841 2188 
z
M 1259 4147 
L 1259 2491 
L 2053 2491 
Q 2509 2491 2742 2702 
Q 2975 2913 2975 3322 
Q 2975 3731 2742 3939 
Q 2509 4147 2053 4147 
L 1259 4147 
z
" transform="scale(0.015625)"/>
      <path id="DejaVuSans-73" d="M 2834 3397 
L 2834 2853 
Q 2591 2978 2328 3040 
Q 2066 3103 1784 3103 
Q 1356 3103 1142 2972 
Q 928 2841 928 2578 
Q 928 2378 1081 2264 
Q 1234 2150 1697 2047 
L 1894 2003 
Q 2506 1872 2764 1633 
Q 3022 1394 3022 966 
Q 3022 478 2636 193 
Q 2250 -91 1575 -91 
Q 1294 -91 989 -36 
Q 684 19 347 128 
L 347 722 
Q 666 556 975 473 
Q 1284 391 1588 391 
Q 1994 391 2212 530 
Q 2431 669 2431 922 
Q 2431 1156 2273 1281 
Q 2116 1406 1581 1522 
L 1381 1569 
Q 847 1681 609 1914 
Q 372 2147 372 2553 
Q 372 3047 722 3315 
Q 1072 3584 1716 3584 
Q 2034 3584 2315 3537 
Q 2597 3491 2834 3397 
z
" transform="scale(0.015625)"/>
      <path id="DejaVuSans-64" d="M 2906 2969 
L 2906 4863 
L 3481 4863 
L 3481 0 
L 2906 0 
L 2906 525 
Q 2725 213 2448 61 
Q 2172 -91 1784 -91 
Q 1150 -91 751 415 
Q 353 922 353 1747 
Q 353 2572 751 3078 
Q 1150 3584 1784 3584 
Q 2172 3584 2448 3432 
Q 2725 3281 2906 2969 
z
M 947 1747 
Q 947 1113 1208 752 
Q 1469 391 1925 391 
Q 2381 391 2643 752 
Q 2906 1113 2906 1747 
Q 2906 2381 2643 2742 
Q 2381 3103 1925 3103 
Q 1469 3103 1208 2742 
Q 947 2381 947 1747 
z
" transform="scale(0.015625)"/>
      <path id="DejaVuSans-53" d="M 3425 4513 
L 3425 3897 
Q 3066 4069 2747 4153 
Q 2428 4238 2131 4238 
Q 1616 4238 1336 4038 
Q 1056 3838 1056 3469 
Q 1056 3159 1242 3001 
Q 1428 2844 1947 2747 
L 2328 2669 
Q 3034 2534 3370 2195 
Q 3706 1856 3706 1288 
Q 3706 609 3251 259 
Q 2797 -91 1919 -91 
Q 1588 -91 1214 -16 
Q 841 59 441 206 
L 441 856 
Q 825 641 1194 531 
Q 1563 422 1919 422 
Q 2459 422 2753 634 
Q 3047 847 3047 1241 
Q 3047 1584 2836 1778 
Q 2625 1972 2144 2069 
L 1759 2144 
Q 1053 2284 737 2584 
Q 422 2884 422 3419 
Q 422 4038 858 4394 
Q 1294 4750 2059 4750 
Q 2388 4750 2728 4690 
Q 3069 4631 3425 4513 
z
" transform="scale(0.015625)"/>
      <path id="DejaVuSans-3a" d="M 750 794 
L 1409 794 
L 1409 0 
L 750 0 
L 750 794 
z
M 750 3309 
L 1409 3309 
L 1409 2516 
L 750 2516 
L 750 3309 
z
" transform="scale(0.015625)"/>
     </defs>
     <use xlink:href="#DejaVuSans-37"/>
     <use xlink:href="#DejaVuSans-2e" transform="translate(63.623047 0)"/>
     <use xlink:href="#DejaVuSans-30" transform="translate(95.410156 0)"/>
     <use xlink:href="#DejaVuSans-20" transform="translate(159.033203 0)"/>
     <use xlink:href="#DejaVuSans-50" transform="translate(190.820312 0)"/>
     <use xlink:href="#DejaVuSans-69" transform="translate(248.873047 0)"/>
     <use xlink:href="#DejaVuSans-6c" transform="translate(276.65625 0)"/>
     <use xlink:href="#DejaVuSans-6f" transform="translate(304.439453 0)"/>
     <use xlink:href="#DejaVuSans-74" transform="translate(365.621094 0)"/>
     <use xlink:href="#DejaVuSans-20" transform="translate(404.830078 0)"/>
     <use xlink:href="#DejaVuSans-52" transform="translate(436.617188 0)"/>
     <use xlink:href="#DejaVuSans-65" transform="translate(501.599609 0)"/>
     <use xlink:href="#DejaVuSans-73" transform="translate(563.123047 0)"/>
     <use xlink:href="#DejaVuSans-69" transform="translate(615.222656 0)"/>
     <use xlink:href="#DejaVuSans-64" transform="translate(643.005859 0)"/>
     <use xlink:href="#DejaVuSans-75" transform="translate(706.482422 0)"/>
     <use xlink:href="#DejaVuSans-61" transform="translate(769.861328 0)"/>
     <use xlink:href="#DejaVuSans-6c" transform="translate(831.140625 0)"/>
     <use xlink:href="#DejaVuSans-20" transform="translate(858.923828 0)"/>
     <use xlink:href="#DejaVuSans-53" transform="translate(890.710938 0)"/>
     <use xlink:href="#DejaVuSans-6f" transform="translate(954.1875 0)"/>
     <use xlink:href="#DejaVuSans-72" transform="translate(1015.369141 0)"/>
     <use xlink:href="#DejaVuSans-74" transform="translate(1056.482422 0)"/>
     <use xlink:href="#DejaVuSans-3a" transform="translate(1095.691406 0)"/>
     <use xlink:href="#DejaVuSans-20" transform="translate(1129.382812 0)"/>
     <use xlink:href="#DejaVuSans-43" transform="translate(1161.169922 0)"/>
     <use xlink:href="#DejaVuSans-75" transform="translate(1230.994141 0)"/>
     <use xlink:href="#DejaVuSans-6d" transform="translate(1294.373047 0)"/>
     <use xlink:href="#DejaVuSans-75" transform="translate(1391.785156 0)"/>
     <use xlink:href="#DejaVuSans-6c" transform="translate(1455.164062 0)"/>
     <use xlink:href="#DejaVuSans-61" transform="translate(1482.947266 0)"/>
     <use xlink:href="#DejaVuSans-74" transform="translate(1544.226562 0)"/>
     <use xlink:href="#DejaVuSans-69" transform="translate(1583.435547 0)"/>
     <use xlink:href="#DejaVuSans-76" transform="translate(1611.21875 0)"/>
     <use xlink:href="#DejaVuSans-65" transform="translate(1670.398438 0)"/>
     <use xlink:href="#DejaVuSans-20" transform="translate(1731.921875 0)"/>
     <use xlink:href="#DejaVuSans-52" transform="translate(1763.708984 0)"/>
     <use xlink:href="#DejaVuSans-65" transform="translate(1828.691406 0)"/>
     <use xlink:href="#DejaVuSans-74" transform="translate(1890.214844 0)"/>
     <use xlink:href="#DejaVuSans-75" transform="translate(1929.423828 0)"/>
     <use xlink:href="#DejaVuSans-72" transform="translate(1992.802734 0)"/>
     <use xlink:href="#DejaVuSans-6e" transform="translate(2032.166016 0)"/>
    </g>
   </g>
  </g>
 </g>
 <defs>
  <clipPath id="p45c9903adb">
   <rect x="50.14375" y="22.318125" width="597.58" height="269.56"/>
  </clipPath>
 </defs>
</svg>
